G04 #@! TF.FileFunction,Soldermask,Bot*
%FSLAX46Y46*%
G04 Gerber Fmt 4.6, Leading zero omitted, Abs format (unit mm)*
G04 Created by KiCad (PCBNEW 4.0.5) date 03/19/18 20:55:47*
%MOMM*%
%LPD*%
G01*
G04 APERTURE LIST*
%ADD10C,0.100000*%
%ADD11C,3.250000*%
%ADD12C,1.000000*%
%ADD13C,1.600000*%
%ADD14R,1.700000X1.700000*%
%ADD15O,1.700000X1.700000*%
%ADD16R,1.750000X1.750000*%
%ADD17C,1.750000*%
%ADD18R,0.900000X0.800000*%
%ADD19R,2.000000X1.700000*%
%ADD20C,1.524000*%
G04 APERTURE END LIST*
D10*
D11*
X203800000Y-85700000D03*
X203800000Y-71980000D03*
D12*
X194660000Y-86210000D03*
X194660000Y-83920000D03*
X194660000Y-72490000D03*
X194660000Y-74780000D03*
X199480000Y-82910000D03*
X199480000Y-80880000D03*
X199480000Y-78850000D03*
X199480000Y-76820000D03*
X201260000Y-81890000D03*
X201260000Y-79860000D03*
X201260000Y-77830000D03*
X201260000Y-75800000D03*
D13*
X200370000Y-71220000D03*
X200370000Y-87480000D03*
D14*
X174000000Y-126750000D03*
D15*
X174000000Y-124210000D03*
D14*
X142800000Y-80500000D03*
D15*
X140260000Y-80500000D03*
X137720000Y-80500000D03*
X135180000Y-80500000D03*
D14*
X108600000Y-102300000D03*
D15*
X108600000Y-104840000D03*
X108600000Y-107380000D03*
X108600000Y-109920000D03*
D14*
X108600000Y-90400000D03*
D15*
X108600000Y-92940000D03*
X108600000Y-95480000D03*
X108600000Y-98020000D03*
D14*
X135200000Y-75600000D03*
D15*
X137740000Y-75600000D03*
X140280000Y-75600000D03*
X142820000Y-75600000D03*
D14*
X179600000Y-125000000D03*
D15*
X179600000Y-122460000D03*
X179600000Y-119920000D03*
X179600000Y-117380000D03*
X179600000Y-114840000D03*
X179600000Y-112300000D03*
D14*
X122220000Y-70880000D03*
D15*
X124760000Y-70880000D03*
X127300000Y-70880000D03*
X129840000Y-70880000D03*
X132380000Y-70880000D03*
X134920000Y-70880000D03*
X137460000Y-70880000D03*
X140000000Y-70880000D03*
X142540000Y-70880000D03*
X145080000Y-70880000D03*
D14*
X149150000Y-70860000D03*
D15*
X151690000Y-70860000D03*
X154230000Y-70860000D03*
X156770000Y-70860000D03*
X159310000Y-70860000D03*
X161850000Y-70860000D03*
X164390000Y-70860000D03*
X166930000Y-70860000D03*
D14*
X171960000Y-70840000D03*
D15*
X174500000Y-70840000D03*
X177040000Y-70840000D03*
X179580000Y-70840000D03*
X182120000Y-70840000D03*
X184660000Y-70840000D03*
X187200000Y-70840000D03*
X189740000Y-70840000D03*
D14*
X131300000Y-119130000D03*
D15*
X133840000Y-119130000D03*
X136380000Y-119130000D03*
X138920000Y-119130000D03*
X141460000Y-119130000D03*
X144000000Y-119130000D03*
X146540000Y-119130000D03*
X149080000Y-119130000D03*
D14*
X154170000Y-119150000D03*
D15*
X156710000Y-119150000D03*
X159250000Y-119150000D03*
X161790000Y-119150000D03*
X164330000Y-119150000D03*
X166870000Y-119150000D03*
X169410000Y-119150000D03*
X171950000Y-119150000D03*
D14*
X169540000Y-91190000D03*
D15*
X167000000Y-91190000D03*
X169540000Y-93730000D03*
X167000000Y-93730000D03*
X169540000Y-96270000D03*
X167000000Y-96270000D03*
D14*
X137600000Y-105600000D03*
D15*
X135060000Y-105600000D03*
X132520000Y-105600000D03*
D14*
X137600000Y-110100000D03*
D15*
X135060000Y-110100000D03*
X132520000Y-110100000D03*
D14*
X137600000Y-114700000D03*
D15*
X135060000Y-114700000D03*
X132520000Y-114700000D03*
D14*
X133000000Y-123000000D03*
D15*
X133000000Y-125540000D03*
X133000000Y-128080000D03*
D14*
X138750000Y-123000000D03*
D15*
X138750000Y-125540000D03*
X138750000Y-128080000D03*
D14*
X144500000Y-123000000D03*
D15*
X144500000Y-125540000D03*
X144500000Y-128080000D03*
D16*
X113750000Y-99000000D03*
D17*
X116250000Y-99000000D03*
X118750000Y-99000000D03*
X121250000Y-99000000D03*
X123750000Y-99000000D03*
X126250000Y-99000000D03*
X128750000Y-99000000D03*
X131250000Y-99000000D03*
X133750000Y-99000000D03*
X136250000Y-99000000D03*
X138750000Y-99000000D03*
X141250000Y-99000000D03*
X143750000Y-99000000D03*
X146250000Y-99000000D03*
X148750000Y-99000000D03*
X151250000Y-99000000D03*
X153750000Y-99000000D03*
X156250000Y-99000000D03*
X158750000Y-99000000D03*
X161250000Y-99000000D03*
D18*
X186250000Y-117800000D03*
X186250000Y-119700000D03*
X184250000Y-118750000D03*
X188750000Y-119700000D03*
X188750000Y-117800000D03*
X190750000Y-118750000D03*
X188750000Y-124700000D03*
X188750000Y-122800000D03*
X190750000Y-123750000D03*
X186250000Y-122800000D03*
X186250000Y-124700000D03*
X184250000Y-123750000D03*
X192750000Y-122200000D03*
X192750000Y-120300000D03*
X194750000Y-121250000D03*
D19*
X193250000Y-127500000D03*
X197250000Y-127500000D03*
X197250000Y-124500000D03*
X193250000Y-124500000D03*
X183500000Y-113000000D03*
X187500000Y-113000000D03*
X183500000Y-115500000D03*
X187500000Y-115500000D03*
X194500000Y-115500000D03*
X190500000Y-115500000D03*
X190500000Y-113000000D03*
X194500000Y-113000000D03*
X203500000Y-118000000D03*
X199500000Y-118000000D03*
X203500000Y-115250000D03*
X199500000Y-115250000D03*
D20*
X205000000Y-108500000D03*
X202460000Y-108500000D03*
X199920000Y-108500000D03*
X197380000Y-108500000D03*
X205000000Y-93500000D03*
X202460000Y-93500000D03*
X199920000Y-93500000D03*
X197380000Y-93500000D03*
D19*
X201200000Y-121400000D03*
X197200000Y-121400000D03*
M02*
