G04 #@! TF.FileFunction,Copper,L2,Bot,Signal*
%FSLAX46Y46*%
G04 Gerber Fmt 4.6, Leading zero omitted, Abs format (unit mm)*
G04 Created by KiCad (PCBNEW 4.0.5) date 03/19/18 20:55:46*
%MOMM*%
%LPD*%
G01*
G04 APERTURE LIST*
%ADD10C,0.100000*%
%ADD11C,3.250000*%
%ADD12C,1.000000*%
%ADD13C,1.600000*%
%ADD14R,1.700000X1.700000*%
%ADD15O,1.700000X1.700000*%
%ADD16R,1.750000X1.750000*%
%ADD17C,1.750000*%
%ADD18R,0.900000X0.800000*%
%ADD19R,2.000000X1.700000*%
%ADD20C,1.524000*%
%ADD21C,0.600000*%
%ADD22C,0.400000*%
%ADD23C,0.250000*%
%ADD24C,0.254000*%
G04 APERTURE END LIST*
D10*
D11*
X203800000Y-85700000D03*
X203800000Y-71980000D03*
D12*
X194660000Y-86210000D03*
X194660000Y-83920000D03*
X194660000Y-72490000D03*
X194660000Y-74780000D03*
X199480000Y-82910000D03*
X199480000Y-80880000D03*
X199480000Y-78850000D03*
X199480000Y-76820000D03*
X201260000Y-81890000D03*
X201260000Y-79860000D03*
X201260000Y-77830000D03*
X201260000Y-75800000D03*
D13*
X200370000Y-71220000D03*
X200370000Y-87480000D03*
D14*
X174000000Y-126750000D03*
D15*
X174000000Y-124210000D03*
D14*
X142800000Y-80500000D03*
D15*
X140260000Y-80500000D03*
X137720000Y-80500000D03*
X135180000Y-80500000D03*
D14*
X108600000Y-102300000D03*
D15*
X108600000Y-104840000D03*
X108600000Y-107380000D03*
X108600000Y-109920000D03*
D14*
X108600000Y-90400000D03*
D15*
X108600000Y-92940000D03*
X108600000Y-95480000D03*
X108600000Y-98020000D03*
D14*
X135200000Y-75600000D03*
D15*
X137740000Y-75600000D03*
X140280000Y-75600000D03*
X142820000Y-75600000D03*
D14*
X179600000Y-125000000D03*
D15*
X179600000Y-122460000D03*
X179600000Y-119920000D03*
X179600000Y-117380000D03*
X179600000Y-114840000D03*
X179600000Y-112300000D03*
D14*
X122220000Y-70880000D03*
D15*
X124760000Y-70880000D03*
X127300000Y-70880000D03*
X129840000Y-70880000D03*
X132380000Y-70880000D03*
X134920000Y-70880000D03*
X137460000Y-70880000D03*
X140000000Y-70880000D03*
X142540000Y-70880000D03*
X145080000Y-70880000D03*
D14*
X149150000Y-70860000D03*
D15*
X151690000Y-70860000D03*
X154230000Y-70860000D03*
X156770000Y-70860000D03*
X159310000Y-70860000D03*
X161850000Y-70860000D03*
X164390000Y-70860000D03*
X166930000Y-70860000D03*
D14*
X171960000Y-70840000D03*
D15*
X174500000Y-70840000D03*
X177040000Y-70840000D03*
X179580000Y-70840000D03*
X182120000Y-70840000D03*
X184660000Y-70840000D03*
X187200000Y-70840000D03*
X189740000Y-70840000D03*
D14*
X131300000Y-119130000D03*
D15*
X133840000Y-119130000D03*
X136380000Y-119130000D03*
X138920000Y-119130000D03*
X141460000Y-119130000D03*
X144000000Y-119130000D03*
X146540000Y-119130000D03*
X149080000Y-119130000D03*
D14*
X154170000Y-119150000D03*
D15*
X156710000Y-119150000D03*
X159250000Y-119150000D03*
X161790000Y-119150000D03*
X164330000Y-119150000D03*
X166870000Y-119150000D03*
X169410000Y-119150000D03*
X171950000Y-119150000D03*
D14*
X169540000Y-91190000D03*
D15*
X167000000Y-91190000D03*
X169540000Y-93730000D03*
X167000000Y-93730000D03*
X169540000Y-96270000D03*
X167000000Y-96270000D03*
D14*
X137600000Y-105600000D03*
D15*
X135060000Y-105600000D03*
X132520000Y-105600000D03*
D14*
X137600000Y-110100000D03*
D15*
X135060000Y-110100000D03*
X132520000Y-110100000D03*
D14*
X137600000Y-114700000D03*
D15*
X135060000Y-114700000D03*
X132520000Y-114700000D03*
D14*
X133000000Y-123000000D03*
D15*
X133000000Y-125540000D03*
X133000000Y-128080000D03*
D14*
X138750000Y-123000000D03*
D15*
X138750000Y-125540000D03*
X138750000Y-128080000D03*
D14*
X144500000Y-123000000D03*
D15*
X144500000Y-125540000D03*
X144500000Y-128080000D03*
D16*
X113750000Y-99000000D03*
D17*
X116250000Y-99000000D03*
X118750000Y-99000000D03*
X121250000Y-99000000D03*
X123750000Y-99000000D03*
X126250000Y-99000000D03*
X128750000Y-99000000D03*
X131250000Y-99000000D03*
X133750000Y-99000000D03*
X136250000Y-99000000D03*
X138750000Y-99000000D03*
X141250000Y-99000000D03*
X143750000Y-99000000D03*
X146250000Y-99000000D03*
X148750000Y-99000000D03*
X151250000Y-99000000D03*
X153750000Y-99000000D03*
X156250000Y-99000000D03*
X158750000Y-99000000D03*
X161250000Y-99000000D03*
D18*
X186250000Y-117800000D03*
X186250000Y-119700000D03*
X184250000Y-118750000D03*
X188750000Y-119700000D03*
X188750000Y-117800000D03*
X190750000Y-118750000D03*
X188750000Y-124700000D03*
X188750000Y-122800000D03*
X190750000Y-123750000D03*
X186250000Y-122800000D03*
X186250000Y-124700000D03*
X184250000Y-123750000D03*
X192750000Y-122200000D03*
X192750000Y-120300000D03*
X194750000Y-121250000D03*
D19*
X193250000Y-127500000D03*
X197250000Y-127500000D03*
X197250000Y-124500000D03*
X193250000Y-124500000D03*
X183500000Y-113000000D03*
X187500000Y-113000000D03*
X183500000Y-115500000D03*
X187500000Y-115500000D03*
X194500000Y-115500000D03*
X190500000Y-115500000D03*
X190500000Y-113000000D03*
X194500000Y-113000000D03*
X203500000Y-118000000D03*
X199500000Y-118000000D03*
X203500000Y-115250000D03*
X199500000Y-115250000D03*
D20*
X205000000Y-108500000D03*
X202460000Y-108500000D03*
X199920000Y-108500000D03*
X197380000Y-108500000D03*
X205000000Y-93500000D03*
X202460000Y-93500000D03*
X199920000Y-93500000D03*
X197380000Y-93500000D03*
D19*
X201200000Y-121400000D03*
X197200000Y-121400000D03*
D21*
X162700000Y-110200000D03*
X155100000Y-108600000D03*
X163100000Y-101300000D03*
X170800000Y-103900000D03*
X165400000Y-109300000D03*
X159800000Y-106200000D03*
X158800000Y-101300000D03*
X155000000Y-111700000D03*
X155000000Y-114700000D03*
X181600000Y-107900000D03*
X196700000Y-100700000D03*
X179200000Y-92800000D03*
X175700000Y-89900000D03*
X173155100Y-114232700D03*
X175600000Y-117159000D03*
X110400000Y-70400000D03*
X147400000Y-79100000D03*
X152700000Y-82800000D03*
X156900000Y-78200000D03*
X167200000Y-83600000D03*
X115642800Y-115405900D03*
X109706500Y-126493100D03*
X181514300Y-101294000D03*
X117041800Y-109366500D03*
X118616800Y-78866500D03*
X199171600Y-90749500D03*
X161912900Y-89156300D03*
X149600000Y-92766400D03*
X145874100Y-94151600D03*
X157759900Y-126837700D03*
X124416200Y-84466500D03*
X128514200Y-79224500D03*
X128200000Y-90888900D03*
X131723900Y-85773600D03*
X161500000Y-93805300D03*
X193500000Y-96782400D03*
X117025400Y-112549900D03*
X118874900Y-73966100D03*
X154819600Y-81398500D03*
X164089300Y-77328400D03*
X168153700Y-76421800D03*
X175814400Y-86933700D03*
X175494600Y-78305100D03*
X112898900Y-88286500D03*
X115739800Y-88286500D03*
X171781700Y-88068600D03*
X128579900Y-111830000D03*
X128621600Y-105854900D03*
X107363500Y-114074600D03*
X164426800Y-85377100D03*
X170737400Y-125637100D03*
X118794400Y-90833000D03*
X205500000Y-113791600D03*
X160000000Y-113400000D03*
X177800000Y-94700000D03*
X177700000Y-98300000D03*
X130873200Y-79029500D03*
X157892000Y-113823800D03*
X157988800Y-121399600D03*
X141921400Y-83024500D03*
X158200500Y-81533900D03*
X164093000Y-81533900D03*
X172125100Y-78491800D03*
X172125100Y-75547800D03*
X201824000Y-117516600D03*
X131535200Y-126685200D03*
X183634600Y-111646200D03*
X189768500Y-111647400D03*
X184250000Y-117818600D03*
X168208300Y-79799400D03*
X164135700Y-73638900D03*
X169434700Y-83441200D03*
X158247800Y-78242500D03*
X169631300Y-81849400D03*
X157797500Y-77259900D03*
X160354700Y-82877400D03*
X157498500Y-82877400D03*
X185279200Y-124612500D03*
X185280200Y-119690100D03*
X178211600Y-71885200D03*
X158206600Y-74640500D03*
X151490500Y-108172900D03*
X150573400Y-103140100D03*
X131944300Y-80692100D03*
X133128500Y-77819700D03*
X150341300Y-109511300D03*
X142515500Y-98249500D03*
X138944700Y-87740700D03*
X139272400Y-79273900D03*
X133320900Y-82093100D03*
X141279300Y-92903100D03*
X141941300Y-79149500D03*
X151073800Y-91260700D03*
X151073800Y-87658300D03*
X151375000Y-76731100D03*
X136416400Y-120845100D03*
X136900100Y-123412500D03*
X140828100Y-103633900D03*
X143717500Y-101725200D03*
X155000000Y-116200000D03*
X158700000Y-116300000D03*
X155739600Y-105486400D03*
X163109300Y-116820700D03*
X154466000Y-106306400D03*
X161758100Y-113678000D03*
X186195300Y-123707500D03*
X191517700Y-125732100D03*
X199009100Y-125740900D03*
X199339200Y-113878600D03*
X170600000Y-107500000D03*
X172000000Y-110100000D03*
X171300000Y-111900000D03*
X191800000Y-105100000D03*
X184900000Y-107400000D03*
X183953400Y-110682200D03*
X184883400Y-106503500D03*
X203359200Y-113871900D03*
D22*
X135180000Y-80500000D02*
X135180000Y-80320000D01*
X135180000Y-80320000D02*
X137750000Y-77750000D01*
X137750000Y-77750000D02*
X142250000Y-77750000D01*
X142250000Y-77750000D02*
X142820000Y-77180000D01*
X142820000Y-77180000D02*
X142820000Y-75600000D01*
X193750000Y-121250000D02*
X191250000Y-121250000D01*
X190750000Y-121750000D02*
X190750000Y-123750000D01*
X191250000Y-121250000D02*
X190750000Y-121750000D01*
D23*
X159576200Y-113823800D02*
X157892000Y-113823800D01*
X160000000Y-113400000D02*
X159576200Y-113823800D01*
X177800000Y-98200000D02*
X177800000Y-94700000D01*
X177700000Y-98300000D02*
X177800000Y-98200000D01*
X157892000Y-113823800D02*
X157988800Y-113920600D01*
X157988800Y-113920600D02*
X157988800Y-121399600D01*
X135200000Y-75600000D02*
X134024700Y-75600000D01*
X134024700Y-75878000D02*
X130873200Y-79029500D01*
X134024700Y-75600000D02*
X134024700Y-75878000D01*
D22*
X142800000Y-82145900D02*
X142800000Y-80500000D01*
X141921400Y-83024500D02*
X142800000Y-82145900D01*
X172125100Y-78491800D02*
X172125100Y-75547800D01*
X203500000Y-118000000D02*
X202099700Y-118000000D01*
X164093000Y-81533900D02*
X158200500Y-81533900D01*
X202099700Y-117792300D02*
X202099700Y-118000000D01*
X201824000Y-117516600D02*
X202099700Y-117792300D01*
X131749700Y-126899700D02*
X131749700Y-128080000D01*
X131535200Y-126685200D02*
X131749700Y-126899700D01*
X133000000Y-128080000D02*
X131749700Y-128080000D01*
X183500000Y-113000000D02*
X183500000Y-111749700D01*
X183531100Y-111749700D02*
X183500000Y-111749700D01*
X183634600Y-111646200D02*
X183531100Y-111749700D01*
X189870800Y-111749700D02*
X190500000Y-111749700D01*
X189768500Y-111647400D02*
X189870800Y-111749700D01*
X190500000Y-113000000D02*
X190500000Y-111749700D01*
X184250000Y-117818600D02*
X184250000Y-118750000D01*
X184250000Y-123750000D02*
X184250000Y-118750000D01*
D23*
X168208300Y-77711500D02*
X168208300Y-79799400D01*
X164135700Y-73638900D02*
X168208300Y-77711500D01*
X160665300Y-80660000D02*
X158247800Y-78242500D01*
X165437000Y-80660000D02*
X160665300Y-80660000D01*
X168218200Y-83441200D02*
X165437000Y-80660000D01*
X169434700Y-83441200D02*
X168218200Y-83441200D01*
X158781900Y-77259900D02*
X157797500Y-77259900D01*
X161173300Y-79651300D02*
X158781900Y-77259900D01*
X165754600Y-79651300D02*
X161173300Y-79651300D01*
X167952700Y-81849400D02*
X165754600Y-79651300D01*
X169631300Y-81849400D02*
X167952700Y-81849400D01*
X160354700Y-82877400D02*
X157498500Y-82877400D01*
X185366700Y-124700000D02*
X186250000Y-124700000D01*
X185279200Y-124612500D02*
X185366700Y-124700000D01*
X188200000Y-123525300D02*
X188750000Y-123525300D01*
X187025300Y-124700000D02*
X188200000Y-123525300D01*
X186250000Y-124700000D02*
X187025300Y-124700000D01*
X188750000Y-122800000D02*
X188750000Y-123525300D01*
X187974700Y-117863000D02*
X186250000Y-119587700D01*
X187974700Y-117800000D02*
X187974700Y-117863000D01*
X188750000Y-117800000D02*
X187974700Y-117800000D01*
X186250000Y-119700000D02*
X186250000Y-119643800D01*
X186250000Y-119643800D02*
X186250000Y-119587700D01*
X185326500Y-119643800D02*
X185280200Y-119690100D01*
X186250000Y-119643800D02*
X185326500Y-119643800D01*
X160171000Y-72676100D02*
X158206600Y-74640500D01*
X177420700Y-72676100D02*
X160171000Y-72676100D01*
X178211600Y-71885200D02*
X177420700Y-72676100D01*
X131944300Y-79003900D02*
X133128500Y-77819700D01*
X131944300Y-80692100D02*
X131944300Y-79003900D01*
X151490500Y-104057200D02*
X150573400Y-103140100D01*
X151490500Y-108172900D02*
X151490500Y-104057200D01*
X142515500Y-101685500D02*
X142515500Y-98249500D01*
X150341300Y-109511300D02*
X142515500Y-101685500D01*
X138944700Y-79601600D02*
X138944700Y-87740700D01*
X139272400Y-79273900D02*
X138944700Y-79601600D01*
X137460000Y-70880000D02*
X137460000Y-72055300D01*
X136375400Y-73139900D02*
X137460000Y-72055300D01*
X136375400Y-76882800D02*
X136375400Y-73139900D01*
X133320900Y-79937300D02*
X136375400Y-76882800D01*
X133320900Y-82093100D02*
X133320900Y-79937300D01*
X143995400Y-73510700D02*
X142540000Y-72055300D01*
X143995400Y-98754600D02*
X143995400Y-73510700D01*
X143750000Y-99000000D02*
X143995400Y-98754600D01*
X142540000Y-70880000D02*
X142540000Y-72055300D01*
X141455400Y-79635400D02*
X141941300Y-79149500D01*
X141455400Y-82379100D02*
X141455400Y-79635400D01*
X141279300Y-82555200D02*
X141455400Y-82379100D01*
X141279300Y-92903100D02*
X141279300Y-82555200D01*
X149150000Y-80566800D02*
X149150000Y-70860000D01*
X148750000Y-80966800D02*
X149150000Y-80566800D01*
X148750000Y-99000000D02*
X148750000Y-80966800D01*
X151375000Y-72350300D02*
X151690000Y-72035300D01*
X151375000Y-76731100D02*
X151375000Y-72350300D01*
X151690000Y-70860000D02*
X151690000Y-72035300D01*
X151073800Y-91260700D02*
X151073800Y-87658300D01*
X136416400Y-122928800D02*
X136900100Y-123412500D01*
X136416400Y-120845100D02*
X136416400Y-122928800D01*
X156710000Y-119150000D02*
X155534700Y-119150000D01*
X155534700Y-118340500D02*
X155534700Y-119150000D01*
X140828100Y-103633900D02*
X155534700Y-118340500D01*
X159250000Y-116951300D02*
X159250000Y-116850000D01*
X159250000Y-119150000D02*
X159250000Y-116951300D01*
X155000000Y-116200000D02*
X152691200Y-113891200D01*
X152691200Y-113891200D02*
X152691200Y-111991200D01*
X152691200Y-110698900D02*
X152691200Y-111991200D01*
X143717500Y-101725200D02*
X152691200Y-110698900D01*
X159250000Y-116850000D02*
X158700000Y-116300000D01*
X163109300Y-112856100D02*
X155739600Y-105486400D01*
X163109300Y-116820700D02*
X163109300Y-112856100D01*
X154466000Y-106385900D02*
X161758100Y-113678000D01*
X154466000Y-106306400D02*
X154466000Y-106385900D01*
X186250000Y-117800000D02*
X186250000Y-117074700D01*
X183500000Y-115500000D02*
X183500000Y-116675300D01*
X183899400Y-117074700D02*
X183500000Y-116675300D01*
X186250000Y-117074700D02*
X183899400Y-117074700D01*
X190500000Y-117406000D02*
X190500000Y-115500000D01*
X188931300Y-118974700D02*
X190500000Y-117406000D01*
X188750000Y-118974700D02*
X188931300Y-118974700D01*
X188750000Y-119700000D02*
X188750000Y-118974700D01*
X191724700Y-124700000D02*
X191924700Y-124500000D01*
X188750000Y-124700000D02*
X191724700Y-124700000D01*
X193250000Y-124500000D02*
X191924700Y-124500000D01*
X193250000Y-127500000D02*
X193250000Y-126324700D01*
X186250000Y-122800000D02*
X186250000Y-123525300D01*
X186195300Y-123580000D02*
X186195300Y-123707500D01*
X186250000Y-123525300D02*
X186195300Y-123580000D01*
X192110300Y-126324700D02*
X193250000Y-126324700D01*
X191517700Y-125732100D02*
X192110300Y-126324700D01*
X197250000Y-124500000D02*
X198100000Y-124500000D01*
X198100000Y-124500000D02*
X201200000Y-121400000D01*
X197250000Y-127500000D02*
X197250000Y-126324700D01*
X198425300Y-126324700D02*
X197250000Y-126324700D01*
X199009100Y-125740900D02*
X198425300Y-126324700D01*
X197250000Y-124500000D02*
X197250000Y-126324700D01*
X192750000Y-120300000D02*
X192750000Y-119574700D01*
X187500000Y-115500000D02*
X187500000Y-114324700D01*
X187500000Y-113000000D02*
X187500000Y-114175300D01*
X194500000Y-117824700D02*
X194500000Y-115500000D01*
X192750000Y-119574700D02*
X194500000Y-117824700D01*
X194500000Y-115500000D02*
X194500000Y-114250000D01*
X194500000Y-114250000D02*
X194500000Y-113000000D01*
X194500000Y-114250000D02*
X187500000Y-114250000D01*
X187500000Y-114324700D02*
X187500000Y-114250000D01*
X187500000Y-114250000D02*
X187500000Y-114175300D01*
X199339200Y-113878600D02*
X199500000Y-114039400D01*
X199500000Y-115250000D02*
X199500000Y-118000000D01*
X199500000Y-114039400D02*
X199500000Y-115250000D01*
X171300000Y-110500000D02*
X171300000Y-110200000D01*
X170600000Y-109500000D02*
X170600000Y-107500000D01*
X171300000Y-110200000D02*
X170600000Y-109500000D01*
X171700000Y-110100000D02*
X172000000Y-110100000D01*
X171300000Y-110500000D02*
X171700000Y-110100000D01*
X171300000Y-111900000D02*
X171300000Y-110500000D01*
X187200000Y-105100000D02*
X191800000Y-105100000D01*
X184900000Y-107400000D02*
X187200000Y-105100000D01*
X184883400Y-106503500D02*
X183953400Y-107433500D01*
X183953400Y-107433500D02*
X183953400Y-110682200D01*
X203500000Y-114012700D02*
X203500000Y-115250000D01*
X203359200Y-113871900D02*
X203500000Y-114012700D01*
X192750000Y-122200000D02*
X195500000Y-122200000D01*
X195700000Y-122000000D02*
X196600000Y-122000000D01*
X195500000Y-122200000D02*
X195700000Y-122000000D01*
X196600000Y-122000000D02*
X197200000Y-121400000D01*
D24*
G36*
X205790000Y-70878033D02*
X205717052Y-70701485D01*
X205081859Y-70065182D01*
X204251514Y-69720393D01*
X203352430Y-69719609D01*
X202521485Y-70062948D01*
X201885182Y-70698141D01*
X201795893Y-70913173D01*
X201587243Y-70408200D01*
X201183923Y-70004176D01*
X200656691Y-69785250D01*
X200085813Y-69784752D01*
X199558200Y-70002757D01*
X199154176Y-70406077D01*
X198935250Y-70933309D01*
X198934752Y-71504187D01*
X199152757Y-72031800D01*
X199556077Y-72435824D01*
X200083309Y-72654750D01*
X200654187Y-72655248D01*
X201181800Y-72437243D01*
X201539912Y-72079755D01*
X201539609Y-72427570D01*
X201882948Y-73258515D01*
X202518141Y-73894818D01*
X203348486Y-74239607D01*
X204247570Y-74240391D01*
X205078515Y-73897052D01*
X205714818Y-73261859D01*
X205790000Y-73080800D01*
X205790000Y-84598033D01*
X205717052Y-84421485D01*
X205081859Y-83785182D01*
X204251514Y-83440393D01*
X203352430Y-83439609D01*
X202521485Y-83782948D01*
X201885182Y-84418141D01*
X201540393Y-85248486D01*
X201539609Y-86147570D01*
X201882948Y-86978515D01*
X202518141Y-87614818D01*
X203348486Y-87959607D01*
X204247570Y-87960391D01*
X205078515Y-87617052D01*
X205714818Y-86981859D01*
X205790000Y-86800800D01*
X205790000Y-92315387D01*
X205279100Y-92103243D01*
X204723339Y-92102758D01*
X204209697Y-92314990D01*
X203816371Y-92707630D01*
X203730051Y-92915512D01*
X203645010Y-92709697D01*
X203252370Y-92316371D01*
X202739100Y-92103243D01*
X202183339Y-92102758D01*
X201669697Y-92314990D01*
X201276371Y-92707630D01*
X201190051Y-92915512D01*
X201105010Y-92709697D01*
X200712370Y-92316371D01*
X200199100Y-92103243D01*
X199643339Y-92102758D01*
X199129697Y-92314990D01*
X198736371Y-92707630D01*
X198650051Y-92915512D01*
X198565010Y-92709697D01*
X198172370Y-92316371D01*
X197659100Y-92103243D01*
X197103339Y-92102758D01*
X196589697Y-92314990D01*
X196196371Y-92707630D01*
X195983243Y-93220900D01*
X195982758Y-93776661D01*
X196194990Y-94290303D01*
X196587630Y-94683629D01*
X197100900Y-94896757D01*
X197656661Y-94897242D01*
X198170303Y-94685010D01*
X198563629Y-94292370D01*
X198649949Y-94084488D01*
X198734990Y-94290303D01*
X199127630Y-94683629D01*
X199640900Y-94896757D01*
X200196661Y-94897242D01*
X200710303Y-94685010D01*
X201103629Y-94292370D01*
X201189949Y-94084488D01*
X201274990Y-94290303D01*
X201667630Y-94683629D01*
X202180900Y-94896757D01*
X202736661Y-94897242D01*
X203250303Y-94685010D01*
X203643629Y-94292370D01*
X203729949Y-94084488D01*
X203814990Y-94290303D01*
X204207630Y-94683629D01*
X204720900Y-94896757D01*
X205276661Y-94897242D01*
X205790000Y-94685135D01*
X205790000Y-107315387D01*
X205279100Y-107103243D01*
X204723339Y-107102758D01*
X204209697Y-107314990D01*
X203816371Y-107707630D01*
X203730051Y-107915512D01*
X203645010Y-107709697D01*
X203252370Y-107316371D01*
X202739100Y-107103243D01*
X202183339Y-107102758D01*
X201669697Y-107314990D01*
X201276371Y-107707630D01*
X201190051Y-107915512D01*
X201105010Y-107709697D01*
X200712370Y-107316371D01*
X200199100Y-107103243D01*
X199643339Y-107102758D01*
X199129697Y-107314990D01*
X198736371Y-107707630D01*
X198656605Y-107899727D01*
X198602397Y-107768857D01*
X198360213Y-107699392D01*
X197559605Y-108500000D01*
X198360213Y-109300608D01*
X198602397Y-109231143D01*
X198652509Y-109090682D01*
X198734990Y-109290303D01*
X199127630Y-109683629D01*
X199640900Y-109896757D01*
X200196661Y-109897242D01*
X200710303Y-109685010D01*
X201103629Y-109292370D01*
X201189949Y-109084488D01*
X201274990Y-109290303D01*
X201667630Y-109683629D01*
X202180900Y-109896757D01*
X202736661Y-109897242D01*
X203250303Y-109685010D01*
X203643629Y-109292370D01*
X203729949Y-109084488D01*
X203814990Y-109290303D01*
X204207630Y-109683629D01*
X204720900Y-109896757D01*
X205276661Y-109897242D01*
X205790000Y-109685135D01*
X205790000Y-129990000D01*
X107210000Y-129990000D01*
X107210000Y-126870367D01*
X130600038Y-126870367D01*
X130742083Y-127214143D01*
X130914700Y-127387062D01*
X130914700Y-128080000D01*
X130978261Y-128399541D01*
X131159266Y-128670434D01*
X131430159Y-128851439D01*
X131749700Y-128915000D01*
X131777159Y-128915000D01*
X131920853Y-129130054D01*
X132402622Y-129451961D01*
X132970907Y-129565000D01*
X133029093Y-129565000D01*
X133597378Y-129451961D01*
X134079147Y-129130054D01*
X134401054Y-128648285D01*
X134514093Y-128080000D01*
X134401054Y-127511715D01*
X134079147Y-127029946D01*
X133749974Y-126810000D01*
X134079147Y-126590054D01*
X134401054Y-126108285D01*
X134514093Y-125540000D01*
X134401054Y-124971715D01*
X134079147Y-124489946D01*
X134035223Y-124460597D01*
X134209698Y-124388327D01*
X134388327Y-124209699D01*
X134485000Y-123976310D01*
X134485000Y-123285750D01*
X134326250Y-123127000D01*
X133127000Y-123127000D01*
X133127000Y-123147000D01*
X132873000Y-123147000D01*
X132873000Y-123127000D01*
X131673750Y-123127000D01*
X131515000Y-123285750D01*
X131515000Y-123976310D01*
X131611673Y-124209699D01*
X131790302Y-124388327D01*
X131964777Y-124460597D01*
X131920853Y-124489946D01*
X131598946Y-124971715D01*
X131485907Y-125540000D01*
X131527717Y-125750193D01*
X131350033Y-125750038D01*
X131006257Y-125892083D01*
X130743008Y-126154873D01*
X130600362Y-126498401D01*
X130600038Y-126870367D01*
X107210000Y-126870367D01*
X107210000Y-122023690D01*
X131515000Y-122023690D01*
X131515000Y-122714250D01*
X131673750Y-122873000D01*
X132873000Y-122873000D01*
X132873000Y-121673750D01*
X133127000Y-121673750D01*
X133127000Y-122873000D01*
X134326250Y-122873000D01*
X134485000Y-122714250D01*
X134485000Y-122023690D01*
X134388327Y-121790301D01*
X134209698Y-121611673D01*
X133976309Y-121515000D01*
X133285750Y-121515000D01*
X133127000Y-121673750D01*
X132873000Y-121673750D01*
X132714250Y-121515000D01*
X132023691Y-121515000D01*
X131790302Y-121611673D01*
X131611673Y-121790301D01*
X131515000Y-122023690D01*
X107210000Y-122023690D01*
X107210000Y-118280000D01*
X129802560Y-118280000D01*
X129802560Y-119980000D01*
X129846838Y-120215317D01*
X129985910Y-120431441D01*
X130198110Y-120576431D01*
X130450000Y-120627440D01*
X132150000Y-120627440D01*
X132385317Y-120583162D01*
X132601441Y-120444090D01*
X132746431Y-120231890D01*
X132760086Y-120164459D01*
X132789946Y-120209147D01*
X133271715Y-120531054D01*
X133840000Y-120644093D01*
X134408285Y-120531054D01*
X134890054Y-120209147D01*
X135110000Y-119879974D01*
X135329946Y-120209147D01*
X135594631Y-120386003D01*
X135481562Y-120658301D01*
X135481238Y-121030267D01*
X135623283Y-121374043D01*
X135656400Y-121407218D01*
X135656400Y-122928800D01*
X135714252Y-123219639D01*
X135878999Y-123466201D01*
X135964978Y-123552180D01*
X135964938Y-123597667D01*
X136106983Y-123941443D01*
X136369773Y-124204692D01*
X136713301Y-124347338D01*
X137085267Y-124347662D01*
X137378482Y-124226508D01*
X137540302Y-124388327D01*
X137714777Y-124460597D01*
X137670853Y-124489946D01*
X137348946Y-124971715D01*
X137235907Y-125540000D01*
X137348946Y-126108285D01*
X137670853Y-126590054D01*
X138000026Y-126810000D01*
X137670853Y-127029946D01*
X137348946Y-127511715D01*
X137235907Y-128080000D01*
X137348946Y-128648285D01*
X137670853Y-129130054D01*
X138152622Y-129451961D01*
X138720907Y-129565000D01*
X138779093Y-129565000D01*
X139347378Y-129451961D01*
X139829147Y-129130054D01*
X140151054Y-128648285D01*
X140264093Y-128080000D01*
X140151054Y-127511715D01*
X139829147Y-127029946D01*
X139499974Y-126810000D01*
X139829147Y-126590054D01*
X140151054Y-126108285D01*
X140264093Y-125540000D01*
X142985907Y-125540000D01*
X143098946Y-126108285D01*
X143420853Y-126590054D01*
X143750026Y-126810000D01*
X143420853Y-127029946D01*
X143098946Y-127511715D01*
X142985907Y-128080000D01*
X143098946Y-128648285D01*
X143420853Y-129130054D01*
X143902622Y-129451961D01*
X144470907Y-129565000D01*
X144529093Y-129565000D01*
X145097378Y-129451961D01*
X145579147Y-129130054D01*
X145901054Y-128648285D01*
X146014093Y-128080000D01*
X145901054Y-127511715D01*
X145579147Y-127029946D01*
X145249974Y-126810000D01*
X145579147Y-126590054D01*
X145901054Y-126108285D01*
X146014093Y-125540000D01*
X145901054Y-124971715D01*
X145579147Y-124489946D01*
X145535223Y-124460597D01*
X145709698Y-124388327D01*
X145888025Y-124210000D01*
X172485907Y-124210000D01*
X172598946Y-124778285D01*
X172920853Y-125260054D01*
X172962452Y-125287850D01*
X172914683Y-125296838D01*
X172698559Y-125435910D01*
X172553569Y-125648110D01*
X172502560Y-125900000D01*
X172502560Y-127600000D01*
X172546838Y-127835317D01*
X172685910Y-128051441D01*
X172898110Y-128196431D01*
X173150000Y-128247440D01*
X174850000Y-128247440D01*
X175085317Y-128203162D01*
X175301441Y-128064090D01*
X175446431Y-127851890D01*
X175497440Y-127600000D01*
X175497440Y-125900000D01*
X175453162Y-125664683D01*
X175314090Y-125448559D01*
X175101890Y-125303569D01*
X175034459Y-125289914D01*
X175079147Y-125260054D01*
X175401054Y-124778285D01*
X175514093Y-124210000D01*
X175401054Y-123641715D01*
X175079147Y-123159946D01*
X174597378Y-122838039D01*
X174029093Y-122725000D01*
X173970907Y-122725000D01*
X173402622Y-122838039D01*
X172920853Y-123159946D01*
X172598946Y-123641715D01*
X172485907Y-124210000D01*
X145888025Y-124210000D01*
X145888327Y-124209699D01*
X145985000Y-123976310D01*
X145985000Y-123285750D01*
X145826250Y-123127000D01*
X144627000Y-123127000D01*
X144627000Y-123147000D01*
X144373000Y-123147000D01*
X144373000Y-123127000D01*
X143173750Y-123127000D01*
X143015000Y-123285750D01*
X143015000Y-123976310D01*
X143111673Y-124209699D01*
X143290302Y-124388327D01*
X143464777Y-124460597D01*
X143420853Y-124489946D01*
X143098946Y-124971715D01*
X142985907Y-125540000D01*
X140264093Y-125540000D01*
X140151054Y-124971715D01*
X139829147Y-124489946D01*
X139785223Y-124460597D01*
X139959698Y-124388327D01*
X140138327Y-124209699D01*
X140235000Y-123976310D01*
X140235000Y-123285750D01*
X140076250Y-123127000D01*
X138877000Y-123127000D01*
X138877000Y-123147000D01*
X138623000Y-123147000D01*
X138623000Y-123127000D01*
X138603000Y-123127000D01*
X138603000Y-122873000D01*
X138623000Y-122873000D01*
X138623000Y-121673750D01*
X138877000Y-121673750D01*
X138877000Y-122873000D01*
X140076250Y-122873000D01*
X140235000Y-122714250D01*
X140235000Y-122023690D01*
X143015000Y-122023690D01*
X143015000Y-122714250D01*
X143173750Y-122873000D01*
X144373000Y-122873000D01*
X144373000Y-121673750D01*
X144627000Y-121673750D01*
X144627000Y-122873000D01*
X145826250Y-122873000D01*
X145985000Y-122714250D01*
X145985000Y-122023690D01*
X145888327Y-121790301D01*
X145709698Y-121611673D01*
X145476309Y-121515000D01*
X144785750Y-121515000D01*
X144627000Y-121673750D01*
X144373000Y-121673750D01*
X144214250Y-121515000D01*
X143523691Y-121515000D01*
X143290302Y-121611673D01*
X143111673Y-121790301D01*
X143015000Y-122023690D01*
X140235000Y-122023690D01*
X140138327Y-121790301D01*
X139959698Y-121611673D01*
X139726309Y-121515000D01*
X139035750Y-121515000D01*
X138877000Y-121673750D01*
X138623000Y-121673750D01*
X138464250Y-121515000D01*
X137773691Y-121515000D01*
X137540302Y-121611673D01*
X137361673Y-121790301D01*
X137265000Y-122023690D01*
X137265000Y-122551616D01*
X137176400Y-122514826D01*
X137176400Y-121407563D01*
X137208592Y-121375427D01*
X137351238Y-121031899D01*
X137351562Y-120659933D01*
X137222581Y-120347775D01*
X137430054Y-120209147D01*
X137650000Y-119879974D01*
X137869946Y-120209147D01*
X138351715Y-120531054D01*
X138920000Y-120644093D01*
X139488285Y-120531054D01*
X139970054Y-120209147D01*
X140190000Y-119879974D01*
X140409946Y-120209147D01*
X140891715Y-120531054D01*
X141460000Y-120644093D01*
X142028285Y-120531054D01*
X142510054Y-120209147D01*
X142737702Y-119868447D01*
X142804817Y-120011358D01*
X143233076Y-120401645D01*
X143643110Y-120571476D01*
X143873000Y-120450155D01*
X143873000Y-119257000D01*
X144127000Y-119257000D01*
X144127000Y-120450155D01*
X144356890Y-120571476D01*
X144766924Y-120401645D01*
X145195183Y-120011358D01*
X145270000Y-119852046D01*
X145344817Y-120011358D01*
X145773076Y-120401645D01*
X146183110Y-120571476D01*
X146413000Y-120450155D01*
X146413000Y-119257000D01*
X144127000Y-119257000D01*
X143873000Y-119257000D01*
X143853000Y-119257000D01*
X143853000Y-119003000D01*
X143873000Y-119003000D01*
X143873000Y-117809845D01*
X144127000Y-117809845D01*
X144127000Y-119003000D01*
X146413000Y-119003000D01*
X146413000Y-117809845D01*
X146667000Y-117809845D01*
X146667000Y-119003000D01*
X146687000Y-119003000D01*
X146687000Y-119257000D01*
X146667000Y-119257000D01*
X146667000Y-120450155D01*
X146896890Y-120571476D01*
X147306924Y-120401645D01*
X147735183Y-120011358D01*
X147802298Y-119868447D01*
X148029946Y-120209147D01*
X148511715Y-120531054D01*
X149080000Y-120644093D01*
X149648285Y-120531054D01*
X150130054Y-120209147D01*
X150451961Y-119727378D01*
X150565000Y-119159093D01*
X150565000Y-119100907D01*
X150451961Y-118532622D01*
X150130054Y-118050853D01*
X149648285Y-117728946D01*
X149080000Y-117615907D01*
X148511715Y-117728946D01*
X148029946Y-118050853D01*
X147802298Y-118391553D01*
X147735183Y-118248642D01*
X147306924Y-117858355D01*
X146896890Y-117688524D01*
X146667000Y-117809845D01*
X146413000Y-117809845D01*
X146183110Y-117688524D01*
X145773076Y-117858355D01*
X145344817Y-118248642D01*
X145270000Y-118407954D01*
X145195183Y-118248642D01*
X144766924Y-117858355D01*
X144356890Y-117688524D01*
X144127000Y-117809845D01*
X143873000Y-117809845D01*
X143643110Y-117688524D01*
X143233076Y-117858355D01*
X142804817Y-118248642D01*
X142737702Y-118391553D01*
X142510054Y-118050853D01*
X142028285Y-117728946D01*
X141460000Y-117615907D01*
X140891715Y-117728946D01*
X140409946Y-118050853D01*
X140190000Y-118380026D01*
X139970054Y-118050853D01*
X139488285Y-117728946D01*
X138920000Y-117615907D01*
X138351715Y-117728946D01*
X137869946Y-118050853D01*
X137650000Y-118380026D01*
X137430054Y-118050853D01*
X136948285Y-117728946D01*
X136380000Y-117615907D01*
X135811715Y-117728946D01*
X135329946Y-118050853D01*
X135110000Y-118380026D01*
X134890054Y-118050853D01*
X134408285Y-117728946D01*
X133840000Y-117615907D01*
X133271715Y-117728946D01*
X132789946Y-118050853D01*
X132762150Y-118092452D01*
X132753162Y-118044683D01*
X132614090Y-117828559D01*
X132401890Y-117683569D01*
X132150000Y-117632560D01*
X130450000Y-117632560D01*
X130214683Y-117676838D01*
X129998559Y-117815910D01*
X129853569Y-118028110D01*
X129802560Y-118280000D01*
X107210000Y-118280000D01*
X107210000Y-114670907D01*
X131035000Y-114670907D01*
X131035000Y-114729093D01*
X131148039Y-115297378D01*
X131469946Y-115779147D01*
X131951715Y-116101054D01*
X132520000Y-116214093D01*
X133088285Y-116101054D01*
X133570054Y-115779147D01*
X133790000Y-115449974D01*
X134009946Y-115779147D01*
X134491715Y-116101054D01*
X135060000Y-116214093D01*
X135628285Y-116101054D01*
X136110054Y-115779147D01*
X136139403Y-115735223D01*
X136211673Y-115909698D01*
X136390301Y-116088327D01*
X136623690Y-116185000D01*
X137314250Y-116185000D01*
X137473000Y-116026250D01*
X137473000Y-114827000D01*
X137727000Y-114827000D01*
X137727000Y-116026250D01*
X137885750Y-116185000D01*
X138576310Y-116185000D01*
X138809699Y-116088327D01*
X138988327Y-115909698D01*
X139085000Y-115676309D01*
X139085000Y-114985750D01*
X138926250Y-114827000D01*
X137727000Y-114827000D01*
X137473000Y-114827000D01*
X137453000Y-114827000D01*
X137453000Y-114573000D01*
X137473000Y-114573000D01*
X137473000Y-113373750D01*
X137727000Y-113373750D01*
X137727000Y-114573000D01*
X138926250Y-114573000D01*
X139085000Y-114414250D01*
X139085000Y-113723691D01*
X138988327Y-113490302D01*
X138809699Y-113311673D01*
X138576310Y-113215000D01*
X137885750Y-113215000D01*
X137727000Y-113373750D01*
X137473000Y-113373750D01*
X137314250Y-113215000D01*
X136623690Y-113215000D01*
X136390301Y-113311673D01*
X136211673Y-113490302D01*
X136139403Y-113664777D01*
X136110054Y-113620853D01*
X135628285Y-113298946D01*
X135060000Y-113185907D01*
X134491715Y-113298946D01*
X134009946Y-113620853D01*
X133790000Y-113950026D01*
X133570054Y-113620853D01*
X133088285Y-113298946D01*
X132520000Y-113185907D01*
X131951715Y-113298946D01*
X131469946Y-113620853D01*
X131148039Y-114102622D01*
X131035000Y-114670907D01*
X107210000Y-114670907D01*
X107210000Y-110401172D01*
X107328355Y-110686924D01*
X107718642Y-111115183D01*
X108243108Y-111361486D01*
X108473000Y-111240819D01*
X108473000Y-110047000D01*
X108727000Y-110047000D01*
X108727000Y-111240819D01*
X108956892Y-111361486D01*
X109481358Y-111115183D01*
X109871645Y-110686924D01*
X110041476Y-110276890D01*
X109932772Y-110070907D01*
X131035000Y-110070907D01*
X131035000Y-110129093D01*
X131148039Y-110697378D01*
X131469946Y-111179147D01*
X131951715Y-111501054D01*
X132520000Y-111614093D01*
X133088285Y-111501054D01*
X133570054Y-111179147D01*
X133790000Y-110849974D01*
X134009946Y-111179147D01*
X134491715Y-111501054D01*
X135060000Y-111614093D01*
X135628285Y-111501054D01*
X136110054Y-111179147D01*
X136139403Y-111135223D01*
X136211673Y-111309698D01*
X136390301Y-111488327D01*
X136623690Y-111585000D01*
X137314250Y-111585000D01*
X137473000Y-111426250D01*
X137473000Y-110227000D01*
X137727000Y-110227000D01*
X137727000Y-111426250D01*
X137885750Y-111585000D01*
X138576310Y-111585000D01*
X138809699Y-111488327D01*
X138988327Y-111309698D01*
X139085000Y-111076309D01*
X139085000Y-110385750D01*
X138926250Y-110227000D01*
X137727000Y-110227000D01*
X137473000Y-110227000D01*
X137453000Y-110227000D01*
X137453000Y-109973000D01*
X137473000Y-109973000D01*
X137473000Y-108773750D01*
X137727000Y-108773750D01*
X137727000Y-109973000D01*
X138926250Y-109973000D01*
X139085000Y-109814250D01*
X139085000Y-109123691D01*
X138988327Y-108890302D01*
X138809699Y-108711673D01*
X138576310Y-108615000D01*
X137885750Y-108615000D01*
X137727000Y-108773750D01*
X137473000Y-108773750D01*
X137314250Y-108615000D01*
X136623690Y-108615000D01*
X136390301Y-108711673D01*
X136211673Y-108890302D01*
X136139403Y-109064777D01*
X136110054Y-109020853D01*
X135628285Y-108698946D01*
X135060000Y-108585907D01*
X134491715Y-108698946D01*
X134009946Y-109020853D01*
X133790000Y-109350026D01*
X133570054Y-109020853D01*
X133088285Y-108698946D01*
X132520000Y-108585907D01*
X131951715Y-108698946D01*
X131469946Y-109020853D01*
X131148039Y-109502622D01*
X131035000Y-110070907D01*
X109932772Y-110070907D01*
X109920155Y-110047000D01*
X108727000Y-110047000D01*
X108473000Y-110047000D01*
X108453000Y-110047000D01*
X108453000Y-109793000D01*
X108473000Y-109793000D01*
X108473000Y-107507000D01*
X108727000Y-107507000D01*
X108727000Y-109793000D01*
X109920155Y-109793000D01*
X110041476Y-109563110D01*
X109871645Y-109153076D01*
X109481358Y-108724817D01*
X109322046Y-108650000D01*
X109481358Y-108575183D01*
X109871645Y-108146924D01*
X110041476Y-107736890D01*
X109920155Y-107507000D01*
X108727000Y-107507000D01*
X108473000Y-107507000D01*
X108453000Y-107507000D01*
X108453000Y-107253000D01*
X108473000Y-107253000D01*
X108473000Y-107233000D01*
X108727000Y-107233000D01*
X108727000Y-107253000D01*
X109920155Y-107253000D01*
X110041476Y-107023110D01*
X109871645Y-106613076D01*
X109481358Y-106184817D01*
X109338447Y-106117702D01*
X109679147Y-105890054D01*
X109892393Y-105570907D01*
X131035000Y-105570907D01*
X131035000Y-105629093D01*
X131148039Y-106197378D01*
X131469946Y-106679147D01*
X131951715Y-107001054D01*
X132520000Y-107114093D01*
X133088285Y-107001054D01*
X133570054Y-106679147D01*
X133790000Y-106349974D01*
X134009946Y-106679147D01*
X134491715Y-107001054D01*
X135060000Y-107114093D01*
X135628285Y-107001054D01*
X136110054Y-106679147D01*
X136139403Y-106635223D01*
X136211673Y-106809698D01*
X136390301Y-106988327D01*
X136623690Y-107085000D01*
X137314250Y-107085000D01*
X137473000Y-106926250D01*
X137473000Y-105727000D01*
X137727000Y-105727000D01*
X137727000Y-106926250D01*
X137885750Y-107085000D01*
X138576310Y-107085000D01*
X138809699Y-106988327D01*
X138988327Y-106809698D01*
X139085000Y-106576309D01*
X139085000Y-105885750D01*
X138926250Y-105727000D01*
X137727000Y-105727000D01*
X137473000Y-105727000D01*
X137453000Y-105727000D01*
X137453000Y-105473000D01*
X137473000Y-105473000D01*
X137473000Y-104273750D01*
X137727000Y-104273750D01*
X137727000Y-105473000D01*
X138926250Y-105473000D01*
X139085000Y-105314250D01*
X139085000Y-104623691D01*
X138988327Y-104390302D01*
X138809699Y-104211673D01*
X138576310Y-104115000D01*
X137885750Y-104115000D01*
X137727000Y-104273750D01*
X137473000Y-104273750D01*
X137314250Y-104115000D01*
X136623690Y-104115000D01*
X136390301Y-104211673D01*
X136211673Y-104390302D01*
X136139403Y-104564777D01*
X136110054Y-104520853D01*
X135628285Y-104198946D01*
X135060000Y-104085907D01*
X134491715Y-104198946D01*
X134009946Y-104520853D01*
X133790000Y-104850026D01*
X133570054Y-104520853D01*
X133088285Y-104198946D01*
X132520000Y-104085907D01*
X131951715Y-104198946D01*
X131469946Y-104520853D01*
X131148039Y-105002622D01*
X131035000Y-105570907D01*
X109892393Y-105570907D01*
X110001054Y-105408285D01*
X110114093Y-104840000D01*
X110001054Y-104271715D01*
X109679147Y-103789946D01*
X109637548Y-103762150D01*
X109685317Y-103753162D01*
X109901441Y-103614090D01*
X110046431Y-103401890D01*
X110097440Y-103150000D01*
X110097440Y-101450000D01*
X110053162Y-101214683D01*
X109914090Y-100998559D01*
X109701890Y-100853569D01*
X109450000Y-100802560D01*
X107750000Y-100802560D01*
X107514683Y-100846838D01*
X107298559Y-100985910D01*
X107210000Y-101115520D01*
X107210000Y-98604829D01*
X107520853Y-99070054D01*
X108002622Y-99391961D01*
X108570907Y-99505000D01*
X108629093Y-99505000D01*
X109197378Y-99391961D01*
X109679147Y-99070054D01*
X110001054Y-98588285D01*
X110093207Y-98125000D01*
X112227560Y-98125000D01*
X112227560Y-99875000D01*
X112271838Y-100110317D01*
X112410910Y-100326441D01*
X112623110Y-100471431D01*
X112875000Y-100522440D01*
X114625000Y-100522440D01*
X114860317Y-100478162D01*
X115076441Y-100339090D01*
X115221431Y-100126890D01*
X115224786Y-100110324D01*
X115393537Y-100279370D01*
X115948325Y-100509738D01*
X116549040Y-100510262D01*
X117104229Y-100280862D01*
X117323413Y-100062060D01*
X117867545Y-100062060D01*
X117950884Y-100315953D01*
X118515306Y-100521590D01*
X119115458Y-100495579D01*
X119549116Y-100315953D01*
X119632455Y-100062060D01*
X120367545Y-100062060D01*
X120450884Y-100315953D01*
X121015306Y-100521590D01*
X121615458Y-100495579D01*
X122049116Y-100315953D01*
X122132455Y-100062060D01*
X122867545Y-100062060D01*
X122950884Y-100315953D01*
X123515306Y-100521590D01*
X124115458Y-100495579D01*
X124549116Y-100315953D01*
X124632455Y-100062060D01*
X123750000Y-99179605D01*
X122867545Y-100062060D01*
X122132455Y-100062060D01*
X121250000Y-99179605D01*
X120367545Y-100062060D01*
X119632455Y-100062060D01*
X118750000Y-99179605D01*
X117867545Y-100062060D01*
X117323413Y-100062060D01*
X117529370Y-99856463D01*
X117538892Y-99833531D01*
X117687940Y-99882455D01*
X118570395Y-99000000D01*
X118929605Y-99000000D01*
X119812060Y-99882455D01*
X120000000Y-99820765D01*
X120187940Y-99882455D01*
X121070395Y-99000000D01*
X121429605Y-99000000D01*
X122312060Y-99882455D01*
X122500000Y-99820765D01*
X122687940Y-99882455D01*
X123570395Y-99000000D01*
X122687940Y-98117545D01*
X122500000Y-98179235D01*
X122312060Y-98117545D01*
X121429605Y-99000000D01*
X121070395Y-99000000D01*
X120187940Y-98117545D01*
X120000000Y-98179235D01*
X119812060Y-98117545D01*
X118929605Y-99000000D01*
X118570395Y-99000000D01*
X117687940Y-98117545D01*
X117539352Y-98166318D01*
X117530862Y-98145771D01*
X117323394Y-97937940D01*
X117867545Y-97937940D01*
X118750000Y-98820395D01*
X119632455Y-97937940D01*
X120367545Y-97937940D01*
X121250000Y-98820395D01*
X122132455Y-97937940D01*
X122867545Y-97937940D01*
X123750000Y-98820395D01*
X124632455Y-97937940D01*
X124549116Y-97684047D01*
X123984694Y-97478410D01*
X123384542Y-97504421D01*
X122950884Y-97684047D01*
X122867545Y-97937940D01*
X122132455Y-97937940D01*
X122049116Y-97684047D01*
X121484694Y-97478410D01*
X120884542Y-97504421D01*
X120450884Y-97684047D01*
X120367545Y-97937940D01*
X119632455Y-97937940D01*
X119549116Y-97684047D01*
X118984694Y-97478410D01*
X118384542Y-97504421D01*
X117950884Y-97684047D01*
X117867545Y-97937940D01*
X117323394Y-97937940D01*
X117106463Y-97720630D01*
X116551675Y-97490262D01*
X115950960Y-97489738D01*
X115395771Y-97719138D01*
X115226897Y-97887717D01*
X115089090Y-97673559D01*
X114876890Y-97528569D01*
X114625000Y-97477560D01*
X112875000Y-97477560D01*
X112639683Y-97521838D01*
X112423559Y-97660910D01*
X112278569Y-97873110D01*
X112227560Y-98125000D01*
X110093207Y-98125000D01*
X110114093Y-98020000D01*
X110001054Y-97451715D01*
X109679147Y-96969946D01*
X109349974Y-96750000D01*
X109679147Y-96530054D01*
X110001054Y-96048285D01*
X110114093Y-95480000D01*
X110001054Y-94911715D01*
X109679147Y-94429946D01*
X109349974Y-94210000D01*
X109679147Y-93990054D01*
X110001054Y-93508285D01*
X110114093Y-92940000D01*
X110001054Y-92371715D01*
X109679147Y-91889946D01*
X109637548Y-91862150D01*
X109685317Y-91853162D01*
X109901441Y-91714090D01*
X110046431Y-91501890D01*
X110097440Y-91250000D01*
X110097440Y-89550000D01*
X110053162Y-89314683D01*
X109914090Y-89098559D01*
X109701890Y-88953569D01*
X109450000Y-88902560D01*
X107750000Y-88902560D01*
X107514683Y-88946838D01*
X107298559Y-89085910D01*
X107210000Y-89215520D01*
X107210000Y-70030000D01*
X120722560Y-70030000D01*
X120722560Y-71730000D01*
X120766838Y-71965317D01*
X120905910Y-72181441D01*
X121118110Y-72326431D01*
X121370000Y-72377440D01*
X123070000Y-72377440D01*
X123305317Y-72333162D01*
X123521441Y-72194090D01*
X123666431Y-71981890D01*
X123680086Y-71914459D01*
X123709946Y-71959147D01*
X124191715Y-72281054D01*
X124760000Y-72394093D01*
X125328285Y-72281054D01*
X125810054Y-71959147D01*
X126030000Y-71629974D01*
X126249946Y-71959147D01*
X126731715Y-72281054D01*
X127300000Y-72394093D01*
X127868285Y-72281054D01*
X128350054Y-71959147D01*
X128570000Y-71629974D01*
X128789946Y-71959147D01*
X129271715Y-72281054D01*
X129840000Y-72394093D01*
X130408285Y-72281054D01*
X130890054Y-71959147D01*
X131110000Y-71629974D01*
X131329946Y-71959147D01*
X131811715Y-72281054D01*
X132380000Y-72394093D01*
X132948285Y-72281054D01*
X133430054Y-71959147D01*
X133650000Y-71629974D01*
X133869946Y-71959147D01*
X134351715Y-72281054D01*
X134920000Y-72394093D01*
X135488285Y-72281054D01*
X135970054Y-71959147D01*
X136190000Y-71629974D01*
X136409946Y-71959147D01*
X136452750Y-71987748D01*
X135837999Y-72602499D01*
X135673252Y-72849061D01*
X135615400Y-73139900D01*
X135615400Y-74102560D01*
X134350000Y-74102560D01*
X134114683Y-74146838D01*
X133898559Y-74285910D01*
X133753569Y-74498110D01*
X133702560Y-74750000D01*
X133702560Y-74918767D01*
X133487299Y-75062599D01*
X133322552Y-75309161D01*
X133273838Y-75554060D01*
X130733520Y-78094378D01*
X130688033Y-78094338D01*
X130344257Y-78236383D01*
X130081008Y-78499173D01*
X129938362Y-78842701D01*
X129938038Y-79214667D01*
X130080083Y-79558443D01*
X130342873Y-79821692D01*
X130686401Y-79964338D01*
X131058367Y-79964662D01*
X131184300Y-79912628D01*
X131184300Y-80129637D01*
X131152108Y-80161773D01*
X131009462Y-80505301D01*
X131009138Y-80877267D01*
X131151183Y-81221043D01*
X131413973Y-81484292D01*
X131757501Y-81626938D01*
X132129467Y-81627262D01*
X132473243Y-81485217D01*
X132560900Y-81397713D01*
X132560900Y-81530637D01*
X132528708Y-81562773D01*
X132386062Y-81906301D01*
X132385738Y-82278267D01*
X132527783Y-82622043D01*
X132790573Y-82885292D01*
X133134101Y-83027938D01*
X133506067Y-83028262D01*
X133849843Y-82886217D01*
X134113092Y-82623427D01*
X134255738Y-82279899D01*
X134256062Y-81907933D01*
X134114017Y-81564157D01*
X134080900Y-81530982D01*
X134080900Y-81468922D01*
X134413076Y-81771645D01*
X134823110Y-81941476D01*
X135053000Y-81820155D01*
X135053000Y-80627000D01*
X135033000Y-80627000D01*
X135033000Y-80373000D01*
X135053000Y-80373000D01*
X135053000Y-80353000D01*
X135307000Y-80353000D01*
X135307000Y-80373000D01*
X135327000Y-80373000D01*
X135327000Y-80627000D01*
X135307000Y-80627000D01*
X135307000Y-81820155D01*
X135536890Y-81941476D01*
X135946924Y-81771645D01*
X136375183Y-81381358D01*
X136442298Y-81238447D01*
X136669946Y-81579147D01*
X137151715Y-81901054D01*
X137720000Y-82014093D01*
X138184700Y-81921658D01*
X138184700Y-87178237D01*
X138152508Y-87210373D01*
X138009862Y-87553901D01*
X138009538Y-87925867D01*
X138151583Y-88269643D01*
X138414373Y-88532892D01*
X138757901Y-88675538D01*
X139129867Y-88675862D01*
X139473643Y-88533817D01*
X139736892Y-88271027D01*
X139879538Y-87927499D01*
X139879862Y-87555533D01*
X139737817Y-87211757D01*
X139704700Y-87178582D01*
X139704700Y-81903637D01*
X140260000Y-82014093D01*
X140695400Y-81927486D01*
X140695400Y-82087390D01*
X140577152Y-82264361D01*
X140519300Y-82555200D01*
X140519300Y-92340637D01*
X140487108Y-92372773D01*
X140344462Y-92716301D01*
X140344138Y-93088267D01*
X140486183Y-93432043D01*
X140748973Y-93695292D01*
X141092501Y-93837938D01*
X141464467Y-93838262D01*
X141808243Y-93696217D01*
X142071492Y-93433427D01*
X142214138Y-93089899D01*
X142214462Y-92717933D01*
X142072417Y-92374157D01*
X142039300Y-92340982D01*
X142039300Y-83959603D01*
X142106567Y-83959662D01*
X142450343Y-83817617D01*
X142713592Y-83554827D01*
X142814178Y-83312590D01*
X143235400Y-82891368D01*
X143235400Y-97578806D01*
X143187054Y-97598782D01*
X143045827Y-97457308D01*
X142702299Y-97314662D01*
X142330333Y-97314338D01*
X141986557Y-97456383D01*
X141834835Y-97607840D01*
X141551675Y-97490262D01*
X140950960Y-97489738D01*
X140395771Y-97719138D01*
X139999682Y-98114536D01*
X139606463Y-97720630D01*
X139051675Y-97490262D01*
X138450960Y-97489738D01*
X137895771Y-97719138D01*
X137499682Y-98114536D01*
X137106463Y-97720630D01*
X136551675Y-97490262D01*
X135950960Y-97489738D01*
X135395771Y-97719138D01*
X134999682Y-98114536D01*
X134606463Y-97720630D01*
X134051675Y-97490262D01*
X133450960Y-97489738D01*
X132895771Y-97719138D01*
X132499682Y-98114536D01*
X132106463Y-97720630D01*
X131551675Y-97490262D01*
X130950960Y-97489738D01*
X130395771Y-97719138D01*
X129999682Y-98114536D01*
X129606463Y-97720630D01*
X129051675Y-97490262D01*
X128450960Y-97489738D01*
X127895771Y-97719138D01*
X127499682Y-98114536D01*
X127106463Y-97720630D01*
X126551675Y-97490262D01*
X125950960Y-97489738D01*
X125395771Y-97719138D01*
X124970630Y-98143537D01*
X124961108Y-98166469D01*
X124812060Y-98117545D01*
X123929605Y-99000000D01*
X124812060Y-99882455D01*
X124960648Y-99833682D01*
X124969138Y-99854229D01*
X125393537Y-100279370D01*
X125948325Y-100509738D01*
X126549040Y-100510262D01*
X127104229Y-100280862D01*
X127500318Y-99885464D01*
X127893537Y-100279370D01*
X128448325Y-100509738D01*
X129049040Y-100510262D01*
X129604229Y-100280862D01*
X130000318Y-99885464D01*
X130393537Y-100279370D01*
X130948325Y-100509738D01*
X131549040Y-100510262D01*
X132104229Y-100280862D01*
X132500318Y-99885464D01*
X132893537Y-100279370D01*
X133448325Y-100509738D01*
X134049040Y-100510262D01*
X134604229Y-100280862D01*
X135000318Y-99885464D01*
X135393537Y-100279370D01*
X135948325Y-100509738D01*
X136549040Y-100510262D01*
X137104229Y-100280862D01*
X137500318Y-99885464D01*
X137893537Y-100279370D01*
X138448325Y-100509738D01*
X139049040Y-100510262D01*
X139604229Y-100280862D01*
X140000318Y-99885464D01*
X140393537Y-100279370D01*
X140948325Y-100509738D01*
X141549040Y-100510262D01*
X141755500Y-100424954D01*
X141755500Y-101685500D01*
X141813352Y-101976339D01*
X141978099Y-102222901D01*
X149406178Y-109650981D01*
X149406138Y-109696467D01*
X149548183Y-110040243D01*
X149810973Y-110303492D01*
X150154501Y-110446138D01*
X150526467Y-110446462D01*
X150870243Y-110304417D01*
X151046232Y-110128734D01*
X151931200Y-111013702D01*
X151931200Y-113662198D01*
X141763222Y-103494220D01*
X141763262Y-103448733D01*
X141621217Y-103104957D01*
X141358427Y-102841708D01*
X141014899Y-102699062D01*
X140642933Y-102698738D01*
X140299157Y-102840783D01*
X140035908Y-103103573D01*
X139893262Y-103447101D01*
X139892938Y-103819067D01*
X140034983Y-104162843D01*
X140297773Y-104426092D01*
X140641301Y-104568738D01*
X140688177Y-104568779D01*
X153771958Y-117652560D01*
X153320000Y-117652560D01*
X153084683Y-117696838D01*
X152868559Y-117835910D01*
X152723569Y-118048110D01*
X152672560Y-118300000D01*
X152672560Y-120000000D01*
X152716838Y-120235317D01*
X152855910Y-120451441D01*
X153068110Y-120596431D01*
X153320000Y-120647440D01*
X155020000Y-120647440D01*
X155255317Y-120603162D01*
X155471441Y-120464090D01*
X155616431Y-120251890D01*
X155630086Y-120184459D01*
X155659946Y-120229147D01*
X156141715Y-120551054D01*
X156710000Y-120664093D01*
X157228800Y-120560897D01*
X157228800Y-120837137D01*
X157196608Y-120869273D01*
X157053962Y-121212801D01*
X157053638Y-121584767D01*
X157195683Y-121928543D01*
X157458473Y-122191792D01*
X157802001Y-122334438D01*
X158173967Y-122334762D01*
X158517743Y-122192717D01*
X158780992Y-121929927D01*
X158923638Y-121586399D01*
X158923962Y-121214433D01*
X158781917Y-120870657D01*
X158748800Y-120837482D01*
X158748800Y-120564398D01*
X159250000Y-120664093D01*
X159818285Y-120551054D01*
X160300054Y-120229147D01*
X160520000Y-119899974D01*
X160739946Y-120229147D01*
X161221715Y-120551054D01*
X161790000Y-120664093D01*
X162358285Y-120551054D01*
X162840054Y-120229147D01*
X163060000Y-119899974D01*
X163279946Y-120229147D01*
X163761715Y-120551054D01*
X164330000Y-120664093D01*
X164898285Y-120551054D01*
X165380054Y-120229147D01*
X165600000Y-119899974D01*
X165819946Y-120229147D01*
X166301715Y-120551054D01*
X166870000Y-120664093D01*
X167438285Y-120551054D01*
X167920054Y-120229147D01*
X168140000Y-119899974D01*
X168359946Y-120229147D01*
X168841715Y-120551054D01*
X169410000Y-120664093D01*
X169978285Y-120551054D01*
X170460054Y-120229147D01*
X170680000Y-119899974D01*
X170899946Y-120229147D01*
X171381715Y-120551054D01*
X171950000Y-120664093D01*
X172518285Y-120551054D01*
X173000054Y-120229147D01*
X173321961Y-119747378D01*
X173435000Y-119179093D01*
X173435000Y-119120907D01*
X173321961Y-118552622D01*
X173000054Y-118070853D01*
X172518285Y-117748946D01*
X171950000Y-117635907D01*
X171381715Y-117748946D01*
X170899946Y-118070853D01*
X170680000Y-118400026D01*
X170460054Y-118070853D01*
X169978285Y-117748946D01*
X169410000Y-117635907D01*
X168841715Y-117748946D01*
X168359946Y-118070853D01*
X168140000Y-118400026D01*
X167920054Y-118070853D01*
X167438285Y-117748946D01*
X166870000Y-117635907D01*
X166301715Y-117748946D01*
X165819946Y-118070853D01*
X165600000Y-118400026D01*
X165380054Y-118070853D01*
X164898285Y-117748946D01*
X164330000Y-117635907D01*
X163761715Y-117748946D01*
X163279946Y-118070853D01*
X163060000Y-118400026D01*
X162840054Y-118070853D01*
X162358285Y-117748946D01*
X161790000Y-117635907D01*
X161221715Y-117748946D01*
X160739946Y-118070853D01*
X160520000Y-118400026D01*
X160300054Y-118070853D01*
X160010000Y-117877046D01*
X160010000Y-116850000D01*
X159956579Y-116581438D01*
X159952148Y-116559160D01*
X159787401Y-116312599D01*
X159635122Y-116160320D01*
X159635162Y-116114833D01*
X159493117Y-115771057D01*
X159230327Y-115507808D01*
X158886799Y-115365162D01*
X158748800Y-115365042D01*
X158748800Y-114583800D01*
X159576200Y-114583800D01*
X159867039Y-114525948D01*
X160113601Y-114361201D01*
X160139680Y-114335122D01*
X160185167Y-114335162D01*
X160528943Y-114193117D01*
X160792192Y-113930327D01*
X160822944Y-113856268D01*
X160822938Y-113863167D01*
X160964983Y-114206943D01*
X161227773Y-114470192D01*
X161571301Y-114612838D01*
X161943267Y-114613162D01*
X162287043Y-114471117D01*
X162349300Y-114408969D01*
X162349300Y-116258237D01*
X162317108Y-116290373D01*
X162174462Y-116633901D01*
X162174138Y-117005867D01*
X162316183Y-117349643D01*
X162578973Y-117612892D01*
X162922501Y-117755538D01*
X163294467Y-117755862D01*
X163638243Y-117613817D01*
X163901492Y-117351027D01*
X164044138Y-117007499D01*
X164044462Y-116635533D01*
X163902417Y-116291757D01*
X163869300Y-116258582D01*
X163869300Y-114840000D01*
X178085907Y-114840000D01*
X178198946Y-115408285D01*
X178520853Y-115890054D01*
X178850026Y-116110000D01*
X178520853Y-116329946D01*
X178198946Y-116811715D01*
X178085907Y-117380000D01*
X178198946Y-117948285D01*
X178520853Y-118430054D01*
X178850026Y-118650000D01*
X178520853Y-118869946D01*
X178198946Y-119351715D01*
X178085907Y-119920000D01*
X178198946Y-120488285D01*
X178520853Y-120970054D01*
X178850026Y-121190000D01*
X178520853Y-121409946D01*
X178198946Y-121891715D01*
X178085907Y-122460000D01*
X178198946Y-123028285D01*
X178520853Y-123510054D01*
X178562452Y-123537850D01*
X178514683Y-123546838D01*
X178298559Y-123685910D01*
X178153569Y-123898110D01*
X178102560Y-124150000D01*
X178102560Y-125850000D01*
X178146838Y-126085317D01*
X178285910Y-126301441D01*
X178498110Y-126446431D01*
X178750000Y-126497440D01*
X180450000Y-126497440D01*
X180685317Y-126453162D01*
X180901441Y-126314090D01*
X181046431Y-126101890D01*
X181097440Y-125850000D01*
X181097440Y-124150000D01*
X181053162Y-123914683D01*
X180914090Y-123698559D01*
X180701890Y-123553569D01*
X180634459Y-123539914D01*
X180679147Y-123510054D01*
X181001054Y-123028285D01*
X181114093Y-122460000D01*
X181001054Y-121891715D01*
X180679147Y-121409946D01*
X180349974Y-121190000D01*
X180679147Y-120970054D01*
X181001054Y-120488285D01*
X181114093Y-119920000D01*
X181001054Y-119351715D01*
X180679147Y-118869946D01*
X180349974Y-118650000D01*
X180679147Y-118430054D01*
X181001054Y-117948285D01*
X181114093Y-117380000D01*
X181001054Y-116811715D01*
X180679147Y-116329946D01*
X180349974Y-116110000D01*
X180679147Y-115890054D01*
X181001054Y-115408285D01*
X181114093Y-114840000D01*
X181001054Y-114271715D01*
X180679147Y-113789946D01*
X180338447Y-113562298D01*
X180481358Y-113495183D01*
X180871645Y-113066924D01*
X181041476Y-112656890D01*
X180920155Y-112427000D01*
X179727000Y-112427000D01*
X179727000Y-112447000D01*
X179473000Y-112447000D01*
X179473000Y-112427000D01*
X178279845Y-112427000D01*
X178158524Y-112656890D01*
X178328355Y-113066924D01*
X178718642Y-113495183D01*
X178861553Y-113562298D01*
X178520853Y-113789946D01*
X178198946Y-114271715D01*
X178085907Y-114840000D01*
X163869300Y-114840000D01*
X163869300Y-112856100D01*
X163811448Y-112565261D01*
X163646701Y-112318699D01*
X159013169Y-107685167D01*
X169664838Y-107685167D01*
X169806883Y-108028943D01*
X169840000Y-108062118D01*
X169840000Y-109500000D01*
X169897852Y-109790839D01*
X170062599Y-110037401D01*
X170540000Y-110514803D01*
X170540000Y-111337537D01*
X170507808Y-111369673D01*
X170365162Y-111713201D01*
X170364838Y-112085167D01*
X170506883Y-112428943D01*
X170769673Y-112692192D01*
X171113201Y-112834838D01*
X171485167Y-112835162D01*
X171828943Y-112693117D01*
X172092192Y-112430327D01*
X172234838Y-112086799D01*
X172234963Y-111943110D01*
X178158524Y-111943110D01*
X178279845Y-112173000D01*
X179473000Y-112173000D01*
X179473000Y-110979181D01*
X179727000Y-110979181D01*
X179727000Y-112173000D01*
X180920155Y-112173000D01*
X180932292Y-112150000D01*
X181852560Y-112150000D01*
X181852560Y-113850000D01*
X181896838Y-114085317D01*
X182003759Y-114251477D01*
X181903569Y-114398110D01*
X181852560Y-114650000D01*
X181852560Y-116350000D01*
X181896838Y-116585317D01*
X182035910Y-116801441D01*
X182248110Y-116946431D01*
X182500000Y-116997440D01*
X182818767Y-116997440D01*
X182962599Y-117212701D01*
X183334684Y-117584786D01*
X183315162Y-117631801D01*
X183314898Y-117935175D01*
X183203569Y-118098110D01*
X183152560Y-118350000D01*
X183152560Y-119150000D01*
X183196838Y-119385317D01*
X183335910Y-119601441D01*
X183415000Y-119655481D01*
X183415000Y-122843156D01*
X183348559Y-122885910D01*
X183203569Y-123098110D01*
X183152560Y-123350000D01*
X183152560Y-124150000D01*
X183196838Y-124385317D01*
X183335910Y-124601441D01*
X183548110Y-124746431D01*
X183800000Y-124797440D01*
X184344038Y-124797440D01*
X184344038Y-124797667D01*
X184486083Y-125141443D01*
X184748873Y-125404692D01*
X185092401Y-125547338D01*
X185333405Y-125547548D01*
X185335910Y-125551441D01*
X185548110Y-125696431D01*
X185800000Y-125747440D01*
X186700000Y-125747440D01*
X186935317Y-125703162D01*
X187151441Y-125564090D01*
X187253590Y-125414590D01*
X187316139Y-125402148D01*
X187562701Y-125237401D01*
X187660089Y-125140013D01*
X187696838Y-125335317D01*
X187835910Y-125551441D01*
X188048110Y-125696431D01*
X188300000Y-125747440D01*
X189200000Y-125747440D01*
X189435317Y-125703162D01*
X189651441Y-125564090D01*
X189722563Y-125460000D01*
X190618282Y-125460000D01*
X190582862Y-125545301D01*
X190582538Y-125917267D01*
X190724583Y-126261043D01*
X190987373Y-126524292D01*
X191330901Y-126666938D01*
X191377777Y-126666979D01*
X191572899Y-126862101D01*
X191602560Y-126881920D01*
X191602560Y-128350000D01*
X191646838Y-128585317D01*
X191785910Y-128801441D01*
X191998110Y-128946431D01*
X192250000Y-128997440D01*
X194250000Y-128997440D01*
X194485317Y-128953162D01*
X194701441Y-128814090D01*
X194846431Y-128601890D01*
X194897440Y-128350000D01*
X194897440Y-126650000D01*
X194853162Y-126414683D01*
X194714090Y-126198559D01*
X194501890Y-126053569D01*
X194250000Y-126002560D01*
X193931233Y-126002560D01*
X193927812Y-125997440D01*
X194250000Y-125997440D01*
X194485317Y-125953162D01*
X194701441Y-125814090D01*
X194846431Y-125601890D01*
X194897440Y-125350000D01*
X194897440Y-123650000D01*
X195602560Y-123650000D01*
X195602560Y-125350000D01*
X195646838Y-125585317D01*
X195785910Y-125801441D01*
X195998110Y-125946431D01*
X196250000Y-125997440D01*
X196490000Y-125997440D01*
X196490000Y-126002560D01*
X196250000Y-126002560D01*
X196014683Y-126046838D01*
X195798559Y-126185910D01*
X195653569Y-126398110D01*
X195602560Y-126650000D01*
X195602560Y-128350000D01*
X195646838Y-128585317D01*
X195785910Y-128801441D01*
X195998110Y-128946431D01*
X196250000Y-128997440D01*
X198250000Y-128997440D01*
X198485317Y-128953162D01*
X198701441Y-128814090D01*
X198846431Y-128601890D01*
X198897440Y-128350000D01*
X198897440Y-126905707D01*
X198962701Y-126862101D01*
X199148780Y-126676022D01*
X199194267Y-126676062D01*
X199538043Y-126534017D01*
X199801292Y-126271227D01*
X199943938Y-125927699D01*
X199944262Y-125555733D01*
X199802217Y-125211957D01*
X199539427Y-124948708D01*
X199195899Y-124806062D01*
X198897440Y-124805802D01*
X198897440Y-124777362D01*
X200777362Y-122897440D01*
X202200000Y-122897440D01*
X202435317Y-122853162D01*
X202651441Y-122714090D01*
X202796431Y-122501890D01*
X202847440Y-122250000D01*
X202847440Y-120550000D01*
X202803162Y-120314683D01*
X202664090Y-120098559D01*
X202451890Y-119953569D01*
X202200000Y-119902560D01*
X200200000Y-119902560D01*
X199964683Y-119946838D01*
X199748559Y-120085910D01*
X199603569Y-120298110D01*
X199552560Y-120550000D01*
X199552560Y-121972638D01*
X198476725Y-123048473D01*
X198250000Y-123002560D01*
X196250000Y-123002560D01*
X196014683Y-123046838D01*
X195798559Y-123185910D01*
X195653569Y-123398110D01*
X195602560Y-123650000D01*
X194897440Y-123650000D01*
X194853162Y-123414683D01*
X194714090Y-123198559D01*
X194501890Y-123053569D01*
X194250000Y-123002560D01*
X193693483Y-123002560D01*
X193722563Y-122960000D01*
X195500000Y-122960000D01*
X195790839Y-122902148D01*
X195911580Y-122821471D01*
X195948110Y-122846431D01*
X196200000Y-122897440D01*
X198200000Y-122897440D01*
X198435317Y-122853162D01*
X198651441Y-122714090D01*
X198796431Y-122501890D01*
X198847440Y-122250000D01*
X198847440Y-120550000D01*
X198803162Y-120314683D01*
X198664090Y-120098559D01*
X198451890Y-119953569D01*
X198200000Y-119902560D01*
X196200000Y-119902560D01*
X195964683Y-119946838D01*
X195748559Y-120085910D01*
X195603569Y-120298110D01*
X195593897Y-120345872D01*
X195559698Y-120311673D01*
X195326309Y-120215000D01*
X195035750Y-120215000D01*
X194877000Y-120373750D01*
X194877000Y-121123000D01*
X194897000Y-121123000D01*
X194897000Y-121377000D01*
X194877000Y-121377000D01*
X194877000Y-121397000D01*
X194623000Y-121397000D01*
X194623000Y-121377000D01*
X193823750Y-121377000D01*
X193760750Y-121440000D01*
X193722931Y-121440000D01*
X193664090Y-121348559D01*
X193518917Y-121249367D01*
X193651441Y-121164090D01*
X193738064Y-121037314D01*
X193823750Y-121123000D01*
X194623000Y-121123000D01*
X194623000Y-120373750D01*
X194464250Y-120215000D01*
X194173691Y-120215000D01*
X193940302Y-120311673D01*
X193847440Y-120404534D01*
X193847440Y-119900000D01*
X193803162Y-119664683D01*
X193776403Y-119623099D01*
X195037401Y-118362101D01*
X195202148Y-118115539D01*
X195260000Y-117824700D01*
X195260000Y-116997440D01*
X195500000Y-116997440D01*
X195735317Y-116953162D01*
X195951441Y-116814090D01*
X196096431Y-116601890D01*
X196147440Y-116350000D01*
X196147440Y-114650000D01*
X196103162Y-114414683D01*
X196093714Y-114400000D01*
X197852560Y-114400000D01*
X197852560Y-116100000D01*
X197896838Y-116335317D01*
X198035910Y-116551441D01*
X198143397Y-116624884D01*
X198048559Y-116685910D01*
X197903569Y-116898110D01*
X197852560Y-117150000D01*
X197852560Y-118850000D01*
X197896838Y-119085317D01*
X198035910Y-119301441D01*
X198248110Y-119446431D01*
X198500000Y-119497440D01*
X200500000Y-119497440D01*
X200735317Y-119453162D01*
X200951441Y-119314090D01*
X201096431Y-119101890D01*
X201147440Y-118850000D01*
X201147440Y-118162304D01*
X201293673Y-118308792D01*
X201331602Y-118324542D01*
X201509266Y-118590434D01*
X201780159Y-118771439D01*
X201852560Y-118785841D01*
X201852560Y-118850000D01*
X201896838Y-119085317D01*
X202035910Y-119301441D01*
X202248110Y-119446431D01*
X202500000Y-119497440D01*
X204500000Y-119497440D01*
X204735317Y-119453162D01*
X204951441Y-119314090D01*
X205096431Y-119101890D01*
X205147440Y-118850000D01*
X205147440Y-117150000D01*
X205103162Y-116914683D01*
X204964090Y-116698559D01*
X204856603Y-116625116D01*
X204951441Y-116564090D01*
X205096431Y-116351890D01*
X205147440Y-116100000D01*
X205147440Y-114400000D01*
X205103162Y-114164683D01*
X204964090Y-113948559D01*
X204751890Y-113803569D01*
X204500000Y-113752560D01*
X204294305Y-113752560D01*
X204294362Y-113686733D01*
X204152317Y-113342957D01*
X203889527Y-113079708D01*
X203545999Y-112937062D01*
X203174033Y-112936738D01*
X202830257Y-113078783D01*
X202567008Y-113341573D01*
X202424362Y-113685101D01*
X202424291Y-113766806D01*
X202264683Y-113796838D01*
X202048559Y-113935910D01*
X201903569Y-114148110D01*
X201852560Y-114400000D01*
X201852560Y-116100000D01*
X201896838Y-116335317D01*
X202035910Y-116551441D01*
X202143397Y-116624884D01*
X202132121Y-116632139D01*
X202010799Y-116581762D01*
X201638833Y-116581438D01*
X201295057Y-116723483D01*
X201103219Y-116914986D01*
X201103162Y-116914683D01*
X200964090Y-116698559D01*
X200856603Y-116625116D01*
X200951441Y-116564090D01*
X201096431Y-116351890D01*
X201147440Y-116100000D01*
X201147440Y-114400000D01*
X201103162Y-114164683D01*
X200964090Y-113948559D01*
X200751890Y-113803569D01*
X200500000Y-113752560D01*
X200274310Y-113752560D01*
X200274362Y-113693433D01*
X200132317Y-113349657D01*
X199869527Y-113086408D01*
X199525999Y-112943762D01*
X199154033Y-112943438D01*
X198810257Y-113085483D01*
X198547008Y-113348273D01*
X198404362Y-113691801D01*
X198404293Y-113770568D01*
X198264683Y-113796838D01*
X198048559Y-113935910D01*
X197903569Y-114148110D01*
X197852560Y-114400000D01*
X196093714Y-114400000D01*
X195996241Y-114248523D01*
X196096431Y-114101890D01*
X196147440Y-113850000D01*
X196147440Y-112150000D01*
X196103162Y-111914683D01*
X195964090Y-111698559D01*
X195751890Y-111553569D01*
X195500000Y-111502560D01*
X193500000Y-111502560D01*
X193264683Y-111546838D01*
X193048559Y-111685910D01*
X192903569Y-111898110D01*
X192852560Y-112150000D01*
X192852560Y-113490000D01*
X192147440Y-113490000D01*
X192147440Y-112150000D01*
X192103162Y-111914683D01*
X191964090Y-111698559D01*
X191751890Y-111553569D01*
X191500000Y-111502560D01*
X191285841Y-111502560D01*
X191271439Y-111430159D01*
X191090434Y-111159266D01*
X190819541Y-110978261D01*
X190500000Y-110914700D01*
X190358215Y-110914700D01*
X190298827Y-110855208D01*
X189955299Y-110712562D01*
X189583333Y-110712238D01*
X189239557Y-110854283D01*
X188976308Y-111117073D01*
X188833662Y-111460601D01*
X188833532Y-111609353D01*
X188751890Y-111553569D01*
X188500000Y-111502560D01*
X186500000Y-111502560D01*
X186264683Y-111546838D01*
X186048559Y-111685910D01*
X185903569Y-111898110D01*
X185852560Y-112150000D01*
X185852560Y-113850000D01*
X185896838Y-114085317D01*
X186003759Y-114251477D01*
X185903569Y-114398110D01*
X185852560Y-114650000D01*
X185852560Y-116314700D01*
X185147440Y-116314700D01*
X185147440Y-114650000D01*
X185103162Y-114414683D01*
X184996241Y-114248523D01*
X185096431Y-114101890D01*
X185147440Y-113850000D01*
X185147440Y-112150000D01*
X185103162Y-111914683D01*
X184964090Y-111698559D01*
X184751890Y-111553569D01*
X184569714Y-111516677D01*
X184569762Y-111461033D01*
X184548412Y-111409363D01*
X184745592Y-111212527D01*
X184888238Y-110868999D01*
X184888562Y-110497033D01*
X184746517Y-110153257D01*
X184713400Y-110120082D01*
X184713400Y-109480213D01*
X196579392Y-109480213D01*
X196648857Y-109722397D01*
X197172302Y-109909144D01*
X197727368Y-109881362D01*
X198111143Y-109722397D01*
X198180608Y-109480213D01*
X197380000Y-108679605D01*
X196579392Y-109480213D01*
X184713400Y-109480213D01*
X184713400Y-108334838D01*
X185085167Y-108335162D01*
X185188896Y-108292302D01*
X195970856Y-108292302D01*
X195998638Y-108847368D01*
X196157603Y-109231143D01*
X196399787Y-109300608D01*
X197200395Y-108500000D01*
X196399787Y-107699392D01*
X196157603Y-107768857D01*
X195970856Y-108292302D01*
X185188896Y-108292302D01*
X185428943Y-108193117D01*
X185692192Y-107930327D01*
X185834838Y-107586799D01*
X185834879Y-107539923D01*
X185855015Y-107519787D01*
X196579392Y-107519787D01*
X197380000Y-108320395D01*
X198180608Y-107519787D01*
X198111143Y-107277603D01*
X197587698Y-107090856D01*
X197032632Y-107118638D01*
X196648857Y-107277603D01*
X196579392Y-107519787D01*
X185855015Y-107519787D01*
X187514802Y-105860000D01*
X191237537Y-105860000D01*
X191269673Y-105892192D01*
X191613201Y-106034838D01*
X191985167Y-106035162D01*
X192328943Y-105893117D01*
X192592192Y-105630327D01*
X192734838Y-105286799D01*
X192735162Y-104914833D01*
X192593117Y-104571057D01*
X192330327Y-104307808D01*
X191986799Y-104165162D01*
X191614833Y-104164838D01*
X191271057Y-104306883D01*
X191237882Y-104340000D01*
X187200000Y-104340000D01*
X186909160Y-104397852D01*
X186662599Y-104562599D01*
X185463765Y-105761433D01*
X185413727Y-105711308D01*
X185070199Y-105568662D01*
X184698233Y-105568338D01*
X184354457Y-105710383D01*
X184091208Y-105973173D01*
X183948562Y-106316701D01*
X183948521Y-106363577D01*
X183415999Y-106896099D01*
X183251252Y-107142661D01*
X183193400Y-107433500D01*
X183193400Y-110119737D01*
X183161208Y-110151873D01*
X183018562Y-110495401D01*
X183018238Y-110867367D01*
X183039588Y-110919037D01*
X182842408Y-111115873D01*
X182699762Y-111459401D01*
X182699724Y-111502560D01*
X182500000Y-111502560D01*
X182264683Y-111546838D01*
X182048559Y-111685910D01*
X181903569Y-111898110D01*
X181852560Y-112150000D01*
X180932292Y-112150000D01*
X181041476Y-111943110D01*
X180871645Y-111533076D01*
X180481358Y-111104817D01*
X179956892Y-110858514D01*
X179727000Y-110979181D01*
X179473000Y-110979181D01*
X179243108Y-110858514D01*
X178718642Y-111104817D01*
X178328355Y-111533076D01*
X178158524Y-111943110D01*
X172234963Y-111943110D01*
X172235162Y-111714833D01*
X172093117Y-111371057D01*
X172060000Y-111337882D01*
X172060000Y-111035053D01*
X172185167Y-111035162D01*
X172528943Y-110893117D01*
X172792192Y-110630327D01*
X172934838Y-110286799D01*
X172935162Y-109914833D01*
X172793117Y-109571057D01*
X172530327Y-109307808D01*
X172186799Y-109165162D01*
X171814833Y-109164838D01*
X171478578Y-109303775D01*
X171360000Y-109185198D01*
X171360000Y-108062463D01*
X171392192Y-108030327D01*
X171534838Y-107686799D01*
X171535162Y-107314833D01*
X171393117Y-106971057D01*
X171130327Y-106707808D01*
X170786799Y-106565162D01*
X170414833Y-106564838D01*
X170071057Y-106706883D01*
X169807808Y-106969673D01*
X169665162Y-107313201D01*
X169664838Y-107685167D01*
X159013169Y-107685167D01*
X156674722Y-105346720D01*
X156674762Y-105301233D01*
X156532717Y-104957457D01*
X156269927Y-104694208D01*
X155926399Y-104551562D01*
X155554433Y-104551238D01*
X155210657Y-104693283D01*
X154947408Y-104956073D01*
X154804762Y-105299601D01*
X154804644Y-105434614D01*
X154652799Y-105371562D01*
X154280833Y-105371238D01*
X153937057Y-105513283D01*
X153673808Y-105776073D01*
X153531162Y-106119601D01*
X153530838Y-106491567D01*
X153672883Y-106835343D01*
X153935673Y-107098592D01*
X154223341Y-107218043D01*
X159570919Y-112565621D01*
X159471057Y-112606883D01*
X159207808Y-112869673D01*
X159127199Y-113063800D01*
X158454463Y-113063800D01*
X158422327Y-113031608D01*
X158078799Y-112888962D01*
X157706833Y-112888638D01*
X157363057Y-113030683D01*
X157099808Y-113293473D01*
X156957162Y-113637001D01*
X156956838Y-114008967D01*
X157098883Y-114352743D01*
X157228800Y-114482887D01*
X157228800Y-117739103D01*
X156710000Y-117635907D01*
X156141715Y-117748946D01*
X156067522Y-117798520D01*
X155340133Y-117071131D01*
X155528943Y-116993117D01*
X155792192Y-116730327D01*
X155934838Y-116386799D01*
X155935162Y-116014833D01*
X155793117Y-115671057D01*
X155530327Y-115407808D01*
X155186799Y-115265162D01*
X155139923Y-115265121D01*
X153451200Y-113576398D01*
X153451200Y-110698900D01*
X153393348Y-110408061D01*
X153393348Y-110408060D01*
X153228601Y-110161499D01*
X152026287Y-108959185D01*
X152282692Y-108703227D01*
X152425338Y-108359699D01*
X152425662Y-107987733D01*
X152283617Y-107643957D01*
X152250500Y-107610782D01*
X152250500Y-104057200D01*
X152198830Y-103797440D01*
X152192648Y-103766360D01*
X152027901Y-103519799D01*
X151508522Y-103000420D01*
X151508562Y-102954933D01*
X151366517Y-102611157D01*
X151103727Y-102347908D01*
X150760199Y-102205262D01*
X150388233Y-102204938D01*
X150044457Y-102346983D01*
X149781208Y-102609773D01*
X149638562Y-102953301D01*
X149638238Y-103325267D01*
X149780283Y-103669043D01*
X150043073Y-103932292D01*
X150386601Y-104074938D01*
X150433477Y-104074979D01*
X150730500Y-104372002D01*
X150730500Y-107610437D01*
X150703996Y-107636894D01*
X144652622Y-101585520D01*
X144652662Y-101540033D01*
X144510617Y-101196257D01*
X144247827Y-100933008D01*
X143904299Y-100790362D01*
X143532333Y-100790038D01*
X143275500Y-100896159D01*
X143275500Y-100437975D01*
X143448325Y-100509738D01*
X144049040Y-100510262D01*
X144604229Y-100280862D01*
X145000318Y-99885464D01*
X145393537Y-100279370D01*
X145948325Y-100509738D01*
X146549040Y-100510262D01*
X147104229Y-100280862D01*
X147500318Y-99885464D01*
X147893537Y-100279370D01*
X148448325Y-100509738D01*
X149049040Y-100510262D01*
X149604229Y-100280862D01*
X150000318Y-99885464D01*
X150393537Y-100279370D01*
X150948325Y-100509738D01*
X151549040Y-100510262D01*
X152104229Y-100280862D01*
X152500318Y-99885464D01*
X152893537Y-100279370D01*
X153448325Y-100509738D01*
X154049040Y-100510262D01*
X154604229Y-100280862D01*
X155000318Y-99885464D01*
X155393537Y-100279370D01*
X155948325Y-100509738D01*
X156549040Y-100510262D01*
X157104229Y-100280862D01*
X157500318Y-99885464D01*
X157893537Y-100279370D01*
X158448325Y-100509738D01*
X159049040Y-100510262D01*
X159604229Y-100280862D01*
X160000318Y-99885464D01*
X160393537Y-100279370D01*
X160948325Y-100509738D01*
X161549040Y-100510262D01*
X162104229Y-100280862D01*
X162529370Y-99856463D01*
X162759738Y-99301675D01*
X162760262Y-98700960D01*
X162671098Y-98485167D01*
X176764838Y-98485167D01*
X176906883Y-98828943D01*
X177169673Y-99092192D01*
X177513201Y-99234838D01*
X177885167Y-99235162D01*
X178228943Y-99093117D01*
X178492192Y-98830327D01*
X178634838Y-98486799D01*
X178635162Y-98114833D01*
X178560000Y-97932927D01*
X178560000Y-95262463D01*
X178592192Y-95230327D01*
X178734838Y-94886799D01*
X178735162Y-94514833D01*
X178593117Y-94171057D01*
X178330327Y-93907808D01*
X177986799Y-93765162D01*
X177614833Y-93764838D01*
X177271057Y-93906883D01*
X177007808Y-94169673D01*
X176865162Y-94513201D01*
X176864838Y-94885167D01*
X177006883Y-95228943D01*
X177040000Y-95262118D01*
X177040000Y-97637711D01*
X176907808Y-97769673D01*
X176765162Y-98113201D01*
X176764838Y-98485167D01*
X162671098Y-98485167D01*
X162530862Y-98145771D01*
X162106463Y-97720630D01*
X161551675Y-97490262D01*
X160950960Y-97489738D01*
X160395771Y-97719138D01*
X159999682Y-98114536D01*
X159606463Y-97720630D01*
X159051675Y-97490262D01*
X158450960Y-97489738D01*
X157895771Y-97719138D01*
X157499682Y-98114536D01*
X157106463Y-97720630D01*
X156551675Y-97490262D01*
X155950960Y-97489738D01*
X155395771Y-97719138D01*
X154999682Y-98114536D01*
X154606463Y-97720630D01*
X154051675Y-97490262D01*
X153450960Y-97489738D01*
X152895771Y-97719138D01*
X152499682Y-98114536D01*
X152106463Y-97720630D01*
X151551675Y-97490262D01*
X150950960Y-97489738D01*
X150395771Y-97719138D01*
X149999682Y-98114536D01*
X149606463Y-97720630D01*
X149510000Y-97680575D01*
X149510000Y-87843467D01*
X150138638Y-87843467D01*
X150280683Y-88187243D01*
X150313800Y-88220418D01*
X150313800Y-90698237D01*
X150281608Y-90730373D01*
X150138962Y-91073901D01*
X150138638Y-91445867D01*
X150280683Y-91789643D01*
X150543473Y-92052892D01*
X150887001Y-92195538D01*
X151258967Y-92195862D01*
X151602743Y-92053817D01*
X151865992Y-91791027D01*
X152008638Y-91447499D01*
X152008862Y-91190000D01*
X165485907Y-91190000D01*
X165598946Y-91758285D01*
X165920853Y-92240054D01*
X166250026Y-92460000D01*
X165920853Y-92679946D01*
X165598946Y-93161715D01*
X165485907Y-93730000D01*
X165598946Y-94298285D01*
X165920853Y-94780054D01*
X166250026Y-95000000D01*
X165920853Y-95219946D01*
X165598946Y-95701715D01*
X165485907Y-96270000D01*
X165598946Y-96838285D01*
X165920853Y-97320054D01*
X166402622Y-97641961D01*
X166970907Y-97755000D01*
X167029093Y-97755000D01*
X167597378Y-97641961D01*
X168079147Y-97320054D01*
X168270000Y-97034422D01*
X168460853Y-97320054D01*
X168942622Y-97641961D01*
X169510907Y-97755000D01*
X169569093Y-97755000D01*
X170137378Y-97641961D01*
X170619147Y-97320054D01*
X170941054Y-96838285D01*
X171054093Y-96270000D01*
X170941054Y-95701715D01*
X170619147Y-95219946D01*
X170289974Y-95000000D01*
X170619147Y-94780054D01*
X170941054Y-94298285D01*
X171054093Y-93730000D01*
X170941054Y-93161715D01*
X170619147Y-92679946D01*
X170577548Y-92652150D01*
X170625317Y-92643162D01*
X170841441Y-92504090D01*
X170986431Y-92291890D01*
X171037440Y-92040000D01*
X171037440Y-90340000D01*
X170993162Y-90104683D01*
X170854090Y-89888559D01*
X170641890Y-89743569D01*
X170390000Y-89692560D01*
X168690000Y-89692560D01*
X168454683Y-89736838D01*
X168238559Y-89875910D01*
X168093569Y-90088110D01*
X168082159Y-90144454D01*
X168079147Y-90139946D01*
X167597378Y-89818039D01*
X167029093Y-89705000D01*
X166970907Y-89705000D01*
X166402622Y-89818039D01*
X165920853Y-90139946D01*
X165598946Y-90621715D01*
X165485907Y-91190000D01*
X152008862Y-91190000D01*
X152008962Y-91075533D01*
X151866917Y-90731757D01*
X151833800Y-90698582D01*
X151833800Y-88220763D01*
X151865992Y-88188627D01*
X152008638Y-87845099D01*
X152008708Y-87764187D01*
X198934752Y-87764187D01*
X199152757Y-88291800D01*
X199556077Y-88695824D01*
X200083309Y-88914750D01*
X200654187Y-88915248D01*
X201181800Y-88697243D01*
X201585824Y-88293923D01*
X201804750Y-87766691D01*
X201805248Y-87195813D01*
X201587243Y-86668200D01*
X201183923Y-86264176D01*
X200656691Y-86045250D01*
X200085813Y-86044752D01*
X199558200Y-86262757D01*
X199154176Y-86666077D01*
X198935250Y-87193309D01*
X198934752Y-87764187D01*
X152008708Y-87764187D01*
X152008962Y-87473133D01*
X151866917Y-87129357D01*
X151604127Y-86866108D01*
X151260599Y-86723462D01*
X150888633Y-86723138D01*
X150544857Y-86865183D01*
X150281608Y-87127973D01*
X150138962Y-87471501D01*
X150138638Y-87843467D01*
X149510000Y-87843467D01*
X149510000Y-86434775D01*
X193524803Y-86434775D01*
X193697233Y-86852086D01*
X194016235Y-87171645D01*
X194433244Y-87344803D01*
X194884775Y-87345197D01*
X195302086Y-87172767D01*
X195621645Y-86853765D01*
X195794803Y-86436756D01*
X195795197Y-85985225D01*
X195622767Y-85567914D01*
X195303765Y-85248355D01*
X194886756Y-85075197D01*
X194435225Y-85074803D01*
X194017914Y-85247233D01*
X193698355Y-85566235D01*
X193525197Y-85983244D01*
X193524803Y-86434775D01*
X149510000Y-86434775D01*
X149510000Y-81281602D01*
X149687401Y-81104201D01*
X149852148Y-80857640D01*
X149872525Y-80755197D01*
X149910000Y-80566800D01*
X149910000Y-72357440D01*
X150000000Y-72357440D01*
X150235317Y-72313162D01*
X150451441Y-72174090D01*
X150596431Y-71961890D01*
X150610086Y-71894459D01*
X150639946Y-71939147D01*
X150718273Y-71991483D01*
X150672852Y-72059461D01*
X150615000Y-72350300D01*
X150615000Y-76168637D01*
X150582808Y-76200773D01*
X150440162Y-76544301D01*
X150439838Y-76916267D01*
X150581883Y-77260043D01*
X150844673Y-77523292D01*
X151188201Y-77665938D01*
X151560167Y-77666262D01*
X151903943Y-77524217D01*
X152167192Y-77261427D01*
X152309838Y-76917899D01*
X152310162Y-76545933D01*
X152168117Y-76202157D01*
X152135000Y-76168982D01*
X152135000Y-72665102D01*
X152227401Y-72572701D01*
X152392148Y-72326140D01*
X152427598Y-72147923D01*
X152740054Y-71939147D01*
X152960000Y-71609974D01*
X153179946Y-71939147D01*
X153661715Y-72261054D01*
X154230000Y-72374093D01*
X154798285Y-72261054D01*
X155280054Y-71939147D01*
X155500000Y-71609974D01*
X155719946Y-71939147D01*
X156201715Y-72261054D01*
X156770000Y-72374093D01*
X157338285Y-72261054D01*
X157820054Y-71939147D01*
X158040000Y-71609974D01*
X158259946Y-71939147D01*
X158741715Y-72261054D01*
X159310000Y-72374093D01*
X159420107Y-72352191D01*
X158066920Y-73705378D01*
X158021433Y-73705338D01*
X157677657Y-73847383D01*
X157414408Y-74110173D01*
X157271762Y-74453701D01*
X157271438Y-74825667D01*
X157413483Y-75169443D01*
X157676273Y-75432692D01*
X158019801Y-75575338D01*
X158391767Y-75575662D01*
X158735543Y-75433617D01*
X158998792Y-75170827D01*
X159141438Y-74827299D01*
X159141479Y-74780423D01*
X160485802Y-73436100D01*
X163207506Y-73436100D01*
X163200862Y-73452101D01*
X163200538Y-73824067D01*
X163342583Y-74167843D01*
X163605373Y-74431092D01*
X163948901Y-74573738D01*
X163995777Y-74573779D01*
X167448300Y-78026302D01*
X167448300Y-79236937D01*
X167416108Y-79269073D01*
X167273462Y-79612601D01*
X167273138Y-79984567D01*
X167350923Y-80172821D01*
X166292001Y-79113899D01*
X166045439Y-78949152D01*
X165754600Y-78891300D01*
X161488102Y-78891300D01*
X159319301Y-76722499D01*
X159072739Y-76557752D01*
X158781900Y-76499900D01*
X158359963Y-76499900D01*
X158327827Y-76467708D01*
X157984299Y-76325062D01*
X157612333Y-76324738D01*
X157268557Y-76466783D01*
X157005308Y-76729573D01*
X156862662Y-77073101D01*
X156862338Y-77445067D01*
X157004383Y-77788843D01*
X157267173Y-78052092D01*
X157312949Y-78071100D01*
X157312638Y-78427667D01*
X157454683Y-78771443D01*
X157717473Y-79034692D01*
X158061001Y-79177338D01*
X158107877Y-79177379D01*
X159629398Y-80698900D01*
X158627734Y-80698900D01*
X158387299Y-80599062D01*
X158015333Y-80598738D01*
X157671557Y-80740783D01*
X157408308Y-81003573D01*
X157265662Y-81347101D01*
X157265338Y-81719067D01*
X157357566Y-81942277D01*
X157313333Y-81942238D01*
X156969557Y-82084283D01*
X156706308Y-82347073D01*
X156563662Y-82690601D01*
X156563338Y-83062567D01*
X156705383Y-83406343D01*
X156968173Y-83669592D01*
X157311701Y-83812238D01*
X157683667Y-83812562D01*
X158027443Y-83670517D01*
X158060618Y-83637400D01*
X159792237Y-83637400D01*
X159824373Y-83669592D01*
X160167901Y-83812238D01*
X160539867Y-83812562D01*
X160883643Y-83670517D01*
X161146892Y-83407727D01*
X161289538Y-83064199D01*
X161289862Y-82692233D01*
X161156264Y-82368900D01*
X163665766Y-82368900D01*
X163906201Y-82468738D01*
X164278167Y-82469062D01*
X164621943Y-82327017D01*
X164885192Y-82064227D01*
X165027838Y-81720699D01*
X165028100Y-81420000D01*
X165122198Y-81420000D01*
X167680799Y-83978601D01*
X167927361Y-84143348D01*
X168218200Y-84201200D01*
X168872237Y-84201200D01*
X168904373Y-84233392D01*
X169247901Y-84376038D01*
X169619867Y-84376362D01*
X169963643Y-84234317D01*
X170053341Y-84144775D01*
X193524803Y-84144775D01*
X193697233Y-84562086D01*
X194016235Y-84881645D01*
X194433244Y-85054803D01*
X194884775Y-85055197D01*
X195302086Y-84882767D01*
X195621645Y-84563765D01*
X195794803Y-84146756D01*
X195795197Y-83695225D01*
X195622767Y-83277914D01*
X195303765Y-82958355D01*
X194886756Y-82785197D01*
X194435225Y-82784803D01*
X194017914Y-82957233D01*
X193698355Y-83276235D01*
X193525197Y-83693244D01*
X193524803Y-84144775D01*
X170053341Y-84144775D01*
X170226892Y-83971527D01*
X170369538Y-83627999D01*
X170369862Y-83256033D01*
X170227817Y-82912257D01*
X170017447Y-82701519D01*
X170160243Y-82642517D01*
X170423492Y-82379727D01*
X170566138Y-82036199D01*
X170566462Y-81664233D01*
X170424417Y-81320457D01*
X170161627Y-81057208D01*
X169818099Y-80914562D01*
X169446133Y-80914238D01*
X169102357Y-81056283D01*
X169069182Y-81089400D01*
X168267502Y-81089400D01*
X167834825Y-80656723D01*
X168021501Y-80734238D01*
X168393467Y-80734562D01*
X168737243Y-80592517D01*
X169000492Y-80329727D01*
X169143138Y-79986199D01*
X169143462Y-79614233D01*
X169001417Y-79270457D01*
X168968300Y-79237282D01*
X168968300Y-77711500D01*
X168910448Y-77420661D01*
X168745701Y-77174099D01*
X167304569Y-75732967D01*
X171189938Y-75732967D01*
X171290100Y-75975378D01*
X171290100Y-78064566D01*
X171190262Y-78305001D01*
X171189938Y-78676967D01*
X171331983Y-79020743D01*
X171594773Y-79283992D01*
X171938301Y-79426638D01*
X172310267Y-79426962D01*
X172654043Y-79284917D01*
X172917292Y-79022127D01*
X173059938Y-78678599D01*
X173060262Y-78306633D01*
X172960100Y-78064222D01*
X172960100Y-77044775D01*
X198344803Y-77044775D01*
X198517233Y-77462086D01*
X198836235Y-77781645D01*
X198964528Y-77834917D01*
X198837914Y-77887233D01*
X198518355Y-78206235D01*
X198345197Y-78623244D01*
X198344803Y-79074775D01*
X198517233Y-79492086D01*
X198836235Y-79811645D01*
X198964528Y-79864917D01*
X198837914Y-79917233D01*
X198518355Y-80236235D01*
X198345197Y-80653244D01*
X198344803Y-81104775D01*
X198517233Y-81522086D01*
X198836235Y-81841645D01*
X198964528Y-81894917D01*
X198837914Y-81947233D01*
X198518355Y-82266235D01*
X198345197Y-82683244D01*
X198344803Y-83134775D01*
X198517233Y-83552086D01*
X198836235Y-83871645D01*
X199253244Y-84044803D01*
X199704775Y-84045197D01*
X200122086Y-83872767D01*
X200441645Y-83553765D01*
X200614803Y-83136756D01*
X200615053Y-82850461D01*
X200616235Y-82851645D01*
X201033244Y-83024803D01*
X201484775Y-83025197D01*
X201902086Y-82852767D01*
X202221645Y-82533765D01*
X202394803Y-82116756D01*
X202395197Y-81665225D01*
X202222767Y-81247914D01*
X201903765Y-80928355D01*
X201775472Y-80875083D01*
X201902086Y-80822767D01*
X202221645Y-80503765D01*
X202394803Y-80086756D01*
X202395197Y-79635225D01*
X202222767Y-79217914D01*
X201903765Y-78898355D01*
X201775472Y-78845083D01*
X201902086Y-78792767D01*
X202221645Y-78473765D01*
X202394803Y-78056756D01*
X202395197Y-77605225D01*
X202222767Y-77187914D01*
X201903765Y-76868355D01*
X201775472Y-76815083D01*
X201902086Y-76762767D01*
X202221645Y-76443765D01*
X202394803Y-76026756D01*
X202395197Y-75575225D01*
X202222767Y-75157914D01*
X201903765Y-74838355D01*
X201486756Y-74665197D01*
X201035225Y-74664803D01*
X200617914Y-74837233D01*
X200298355Y-75156235D01*
X200125197Y-75573244D01*
X200124947Y-75859539D01*
X200123765Y-75858355D01*
X199706756Y-75685197D01*
X199255225Y-75684803D01*
X198837914Y-75857233D01*
X198518355Y-76176235D01*
X198345197Y-76593244D01*
X198344803Y-77044775D01*
X172960100Y-77044775D01*
X172960100Y-75975034D01*
X173059938Y-75734599D01*
X173060262Y-75362633D01*
X172918217Y-75018857D01*
X172904160Y-75004775D01*
X193524803Y-75004775D01*
X193697233Y-75422086D01*
X194016235Y-75741645D01*
X194433244Y-75914803D01*
X194884775Y-75915197D01*
X195302086Y-75742767D01*
X195621645Y-75423765D01*
X195794803Y-75006756D01*
X195795197Y-74555225D01*
X195622767Y-74137914D01*
X195303765Y-73818355D01*
X194886756Y-73645197D01*
X194435225Y-73644803D01*
X194017914Y-73817233D01*
X193698355Y-74136235D01*
X193525197Y-74553244D01*
X193524803Y-75004775D01*
X172904160Y-75004775D01*
X172655427Y-74755608D01*
X172311899Y-74612962D01*
X171939933Y-74612638D01*
X171596157Y-74754683D01*
X171332908Y-75017473D01*
X171190262Y-75361001D01*
X171189938Y-75732967D01*
X167304569Y-75732967D01*
X165070822Y-73499220D01*
X165070862Y-73453733D01*
X165063576Y-73436100D01*
X177420700Y-73436100D01*
X177711539Y-73378248D01*
X177958101Y-73213501D01*
X178351280Y-72820322D01*
X178396767Y-72820362D01*
X178652307Y-72714775D01*
X193524803Y-72714775D01*
X193697233Y-73132086D01*
X194016235Y-73451645D01*
X194433244Y-73624803D01*
X194884775Y-73625197D01*
X195302086Y-73452767D01*
X195621645Y-73133765D01*
X195794803Y-72716756D01*
X195795197Y-72265225D01*
X195622767Y-71847914D01*
X195303765Y-71528355D01*
X194886756Y-71355197D01*
X194435225Y-71354803D01*
X194017914Y-71527233D01*
X193698355Y-71846235D01*
X193525197Y-72263244D01*
X193524803Y-72714775D01*
X178652307Y-72714775D01*
X178740543Y-72678317D01*
X179003792Y-72415527D01*
X179071317Y-72252910D01*
X179580000Y-72354093D01*
X180148285Y-72241054D01*
X180630054Y-71919147D01*
X180850000Y-71589974D01*
X181069946Y-71919147D01*
X181551715Y-72241054D01*
X182120000Y-72354093D01*
X182688285Y-72241054D01*
X183170054Y-71919147D01*
X183390000Y-71589974D01*
X183609946Y-71919147D01*
X184091715Y-72241054D01*
X184660000Y-72354093D01*
X185228285Y-72241054D01*
X185710054Y-71919147D01*
X185930000Y-71589974D01*
X186149946Y-71919147D01*
X186631715Y-72241054D01*
X187200000Y-72354093D01*
X187768285Y-72241054D01*
X188250054Y-71919147D01*
X188470000Y-71589974D01*
X188689946Y-71919147D01*
X189171715Y-72241054D01*
X189740000Y-72354093D01*
X190308285Y-72241054D01*
X190790054Y-71919147D01*
X191111961Y-71437378D01*
X191225000Y-70869093D01*
X191225000Y-70810907D01*
X191111961Y-70242622D01*
X190790054Y-69760853D01*
X190308285Y-69438946D01*
X189740000Y-69325907D01*
X189171715Y-69438946D01*
X188689946Y-69760853D01*
X188470000Y-70090026D01*
X188250054Y-69760853D01*
X187768285Y-69438946D01*
X187200000Y-69325907D01*
X186631715Y-69438946D01*
X186149946Y-69760853D01*
X185930000Y-70090026D01*
X185710054Y-69760853D01*
X185228285Y-69438946D01*
X184660000Y-69325907D01*
X184091715Y-69438946D01*
X183609946Y-69760853D01*
X183390000Y-70090026D01*
X183170054Y-69760853D01*
X182688285Y-69438946D01*
X182120000Y-69325907D01*
X181551715Y-69438946D01*
X181069946Y-69760853D01*
X180850000Y-70090026D01*
X180630054Y-69760853D01*
X180148285Y-69438946D01*
X179580000Y-69325907D01*
X179011715Y-69438946D01*
X178529946Y-69760853D01*
X178310000Y-70090026D01*
X178090054Y-69760853D01*
X177608285Y-69438946D01*
X177040000Y-69325907D01*
X176471715Y-69438946D01*
X175989946Y-69760853D01*
X175770000Y-70090026D01*
X175550054Y-69760853D01*
X175068285Y-69438946D01*
X174500000Y-69325907D01*
X173931715Y-69438946D01*
X173449946Y-69760853D01*
X173422150Y-69802452D01*
X173413162Y-69754683D01*
X173274090Y-69538559D01*
X173061890Y-69393569D01*
X172810000Y-69342560D01*
X171110000Y-69342560D01*
X170874683Y-69386838D01*
X170658559Y-69525910D01*
X170513569Y-69738110D01*
X170462560Y-69990000D01*
X170462560Y-71690000D01*
X170505104Y-71916100D01*
X167995453Y-71916100D01*
X168301961Y-71457378D01*
X168415000Y-70889093D01*
X168415000Y-70830907D01*
X168301961Y-70262622D01*
X167980054Y-69780853D01*
X167498285Y-69458946D01*
X166930000Y-69345907D01*
X166361715Y-69458946D01*
X165879946Y-69780853D01*
X165660000Y-70110026D01*
X165440054Y-69780853D01*
X164958285Y-69458946D01*
X164390000Y-69345907D01*
X163821715Y-69458946D01*
X163339946Y-69780853D01*
X163120000Y-70110026D01*
X162900054Y-69780853D01*
X162418285Y-69458946D01*
X161850000Y-69345907D01*
X161281715Y-69458946D01*
X160799946Y-69780853D01*
X160580000Y-70110026D01*
X160360054Y-69780853D01*
X159878285Y-69458946D01*
X159310000Y-69345907D01*
X158741715Y-69458946D01*
X158259946Y-69780853D01*
X158040000Y-70110026D01*
X157820054Y-69780853D01*
X157338285Y-69458946D01*
X156770000Y-69345907D01*
X156201715Y-69458946D01*
X155719946Y-69780853D01*
X155500000Y-70110026D01*
X155280054Y-69780853D01*
X154798285Y-69458946D01*
X154230000Y-69345907D01*
X153661715Y-69458946D01*
X153179946Y-69780853D01*
X152960000Y-70110026D01*
X152740054Y-69780853D01*
X152258285Y-69458946D01*
X151690000Y-69345907D01*
X151121715Y-69458946D01*
X150639946Y-69780853D01*
X150612150Y-69822452D01*
X150603162Y-69774683D01*
X150464090Y-69558559D01*
X150251890Y-69413569D01*
X150000000Y-69362560D01*
X148300000Y-69362560D01*
X148064683Y-69406838D01*
X147848559Y-69545910D01*
X147703569Y-69758110D01*
X147652560Y-70010000D01*
X147652560Y-71710000D01*
X147696838Y-71945317D01*
X147835910Y-72161441D01*
X148048110Y-72306431D01*
X148300000Y-72357440D01*
X148390000Y-72357440D01*
X148390000Y-80251998D01*
X148212599Y-80429399D01*
X148047852Y-80675961D01*
X147990000Y-80966800D01*
X147990000Y-97680203D01*
X147895771Y-97719138D01*
X147499682Y-98114536D01*
X147106463Y-97720630D01*
X146551675Y-97490262D01*
X145950960Y-97489738D01*
X145395771Y-97719138D01*
X144999682Y-98114536D01*
X144755400Y-97869827D01*
X144755400Y-73510700D01*
X144697548Y-73219861D01*
X144697548Y-73219860D01*
X144532801Y-72973299D01*
X143547250Y-71987748D01*
X143590054Y-71959147D01*
X143810000Y-71629974D01*
X144029946Y-71959147D01*
X144511715Y-72281054D01*
X145080000Y-72394093D01*
X145648285Y-72281054D01*
X146130054Y-71959147D01*
X146451961Y-71477378D01*
X146565000Y-70909093D01*
X146565000Y-70850907D01*
X146451961Y-70282622D01*
X146130054Y-69800853D01*
X145648285Y-69478946D01*
X145080000Y-69365907D01*
X144511715Y-69478946D01*
X144029946Y-69800853D01*
X143810000Y-70130026D01*
X143590054Y-69800853D01*
X143108285Y-69478946D01*
X142540000Y-69365907D01*
X141971715Y-69478946D01*
X141489946Y-69800853D01*
X141270000Y-70130026D01*
X141050054Y-69800853D01*
X140568285Y-69478946D01*
X140000000Y-69365907D01*
X139431715Y-69478946D01*
X138949946Y-69800853D01*
X138730000Y-70130026D01*
X138510054Y-69800853D01*
X138028285Y-69478946D01*
X137460000Y-69365907D01*
X136891715Y-69478946D01*
X136409946Y-69800853D01*
X136190000Y-70130026D01*
X135970054Y-69800853D01*
X135488285Y-69478946D01*
X134920000Y-69365907D01*
X134351715Y-69478946D01*
X133869946Y-69800853D01*
X133650000Y-70130026D01*
X133430054Y-69800853D01*
X132948285Y-69478946D01*
X132380000Y-69365907D01*
X131811715Y-69478946D01*
X131329946Y-69800853D01*
X131110000Y-70130026D01*
X130890054Y-69800853D01*
X130408285Y-69478946D01*
X129840000Y-69365907D01*
X129271715Y-69478946D01*
X128789946Y-69800853D01*
X128570000Y-70130026D01*
X128350054Y-69800853D01*
X127868285Y-69478946D01*
X127300000Y-69365907D01*
X126731715Y-69478946D01*
X126249946Y-69800853D01*
X126030000Y-70130026D01*
X125810054Y-69800853D01*
X125328285Y-69478946D01*
X124760000Y-69365907D01*
X124191715Y-69478946D01*
X123709946Y-69800853D01*
X123682150Y-69842452D01*
X123673162Y-69794683D01*
X123534090Y-69578559D01*
X123321890Y-69433569D01*
X123070000Y-69382560D01*
X121370000Y-69382560D01*
X121134683Y-69426838D01*
X120918559Y-69565910D01*
X120773569Y-69778110D01*
X120722560Y-70030000D01*
X107210000Y-70030000D01*
X107210000Y-69310000D01*
X205790000Y-69310000D01*
X205790000Y-70878033D01*
X205790000Y-70878033D01*
G37*
X205790000Y-70878033D02*
X205717052Y-70701485D01*
X205081859Y-70065182D01*
X204251514Y-69720393D01*
X203352430Y-69719609D01*
X202521485Y-70062948D01*
X201885182Y-70698141D01*
X201795893Y-70913173D01*
X201587243Y-70408200D01*
X201183923Y-70004176D01*
X200656691Y-69785250D01*
X200085813Y-69784752D01*
X199558200Y-70002757D01*
X199154176Y-70406077D01*
X198935250Y-70933309D01*
X198934752Y-71504187D01*
X199152757Y-72031800D01*
X199556077Y-72435824D01*
X200083309Y-72654750D01*
X200654187Y-72655248D01*
X201181800Y-72437243D01*
X201539912Y-72079755D01*
X201539609Y-72427570D01*
X201882948Y-73258515D01*
X202518141Y-73894818D01*
X203348486Y-74239607D01*
X204247570Y-74240391D01*
X205078515Y-73897052D01*
X205714818Y-73261859D01*
X205790000Y-73080800D01*
X205790000Y-84598033D01*
X205717052Y-84421485D01*
X205081859Y-83785182D01*
X204251514Y-83440393D01*
X203352430Y-83439609D01*
X202521485Y-83782948D01*
X201885182Y-84418141D01*
X201540393Y-85248486D01*
X201539609Y-86147570D01*
X201882948Y-86978515D01*
X202518141Y-87614818D01*
X203348486Y-87959607D01*
X204247570Y-87960391D01*
X205078515Y-87617052D01*
X205714818Y-86981859D01*
X205790000Y-86800800D01*
X205790000Y-92315387D01*
X205279100Y-92103243D01*
X204723339Y-92102758D01*
X204209697Y-92314990D01*
X203816371Y-92707630D01*
X203730051Y-92915512D01*
X203645010Y-92709697D01*
X203252370Y-92316371D01*
X202739100Y-92103243D01*
X202183339Y-92102758D01*
X201669697Y-92314990D01*
X201276371Y-92707630D01*
X201190051Y-92915512D01*
X201105010Y-92709697D01*
X200712370Y-92316371D01*
X200199100Y-92103243D01*
X199643339Y-92102758D01*
X199129697Y-92314990D01*
X198736371Y-92707630D01*
X198650051Y-92915512D01*
X198565010Y-92709697D01*
X198172370Y-92316371D01*
X197659100Y-92103243D01*
X197103339Y-92102758D01*
X196589697Y-92314990D01*
X196196371Y-92707630D01*
X195983243Y-93220900D01*
X195982758Y-93776661D01*
X196194990Y-94290303D01*
X196587630Y-94683629D01*
X197100900Y-94896757D01*
X197656661Y-94897242D01*
X198170303Y-94685010D01*
X198563629Y-94292370D01*
X198649949Y-94084488D01*
X198734990Y-94290303D01*
X199127630Y-94683629D01*
X199640900Y-94896757D01*
X200196661Y-94897242D01*
X200710303Y-94685010D01*
X201103629Y-94292370D01*
X201189949Y-94084488D01*
X201274990Y-94290303D01*
X201667630Y-94683629D01*
X202180900Y-94896757D01*
X202736661Y-94897242D01*
X203250303Y-94685010D01*
X203643629Y-94292370D01*
X203729949Y-94084488D01*
X203814990Y-94290303D01*
X204207630Y-94683629D01*
X204720900Y-94896757D01*
X205276661Y-94897242D01*
X205790000Y-94685135D01*
X205790000Y-107315387D01*
X205279100Y-107103243D01*
X204723339Y-107102758D01*
X204209697Y-107314990D01*
X203816371Y-107707630D01*
X203730051Y-107915512D01*
X203645010Y-107709697D01*
X203252370Y-107316371D01*
X202739100Y-107103243D01*
X202183339Y-107102758D01*
X201669697Y-107314990D01*
X201276371Y-107707630D01*
X201190051Y-107915512D01*
X201105010Y-107709697D01*
X200712370Y-107316371D01*
X200199100Y-107103243D01*
X199643339Y-107102758D01*
X199129697Y-107314990D01*
X198736371Y-107707630D01*
X198656605Y-107899727D01*
X198602397Y-107768857D01*
X198360213Y-107699392D01*
X197559605Y-108500000D01*
X198360213Y-109300608D01*
X198602397Y-109231143D01*
X198652509Y-109090682D01*
X198734990Y-109290303D01*
X199127630Y-109683629D01*
X199640900Y-109896757D01*
X200196661Y-109897242D01*
X200710303Y-109685010D01*
X201103629Y-109292370D01*
X201189949Y-109084488D01*
X201274990Y-109290303D01*
X201667630Y-109683629D01*
X202180900Y-109896757D01*
X202736661Y-109897242D01*
X203250303Y-109685010D01*
X203643629Y-109292370D01*
X203729949Y-109084488D01*
X203814990Y-109290303D01*
X204207630Y-109683629D01*
X204720900Y-109896757D01*
X205276661Y-109897242D01*
X205790000Y-109685135D01*
X205790000Y-129990000D01*
X107210000Y-129990000D01*
X107210000Y-126870367D01*
X130600038Y-126870367D01*
X130742083Y-127214143D01*
X130914700Y-127387062D01*
X130914700Y-128080000D01*
X130978261Y-128399541D01*
X131159266Y-128670434D01*
X131430159Y-128851439D01*
X131749700Y-128915000D01*
X131777159Y-128915000D01*
X131920853Y-129130054D01*
X132402622Y-129451961D01*
X132970907Y-129565000D01*
X133029093Y-129565000D01*
X133597378Y-129451961D01*
X134079147Y-129130054D01*
X134401054Y-128648285D01*
X134514093Y-128080000D01*
X134401054Y-127511715D01*
X134079147Y-127029946D01*
X133749974Y-126810000D01*
X134079147Y-126590054D01*
X134401054Y-126108285D01*
X134514093Y-125540000D01*
X134401054Y-124971715D01*
X134079147Y-124489946D01*
X134035223Y-124460597D01*
X134209698Y-124388327D01*
X134388327Y-124209699D01*
X134485000Y-123976310D01*
X134485000Y-123285750D01*
X134326250Y-123127000D01*
X133127000Y-123127000D01*
X133127000Y-123147000D01*
X132873000Y-123147000D01*
X132873000Y-123127000D01*
X131673750Y-123127000D01*
X131515000Y-123285750D01*
X131515000Y-123976310D01*
X131611673Y-124209699D01*
X131790302Y-124388327D01*
X131964777Y-124460597D01*
X131920853Y-124489946D01*
X131598946Y-124971715D01*
X131485907Y-125540000D01*
X131527717Y-125750193D01*
X131350033Y-125750038D01*
X131006257Y-125892083D01*
X130743008Y-126154873D01*
X130600362Y-126498401D01*
X130600038Y-126870367D01*
X107210000Y-126870367D01*
X107210000Y-122023690D01*
X131515000Y-122023690D01*
X131515000Y-122714250D01*
X131673750Y-122873000D01*
X132873000Y-122873000D01*
X132873000Y-121673750D01*
X133127000Y-121673750D01*
X133127000Y-122873000D01*
X134326250Y-122873000D01*
X134485000Y-122714250D01*
X134485000Y-122023690D01*
X134388327Y-121790301D01*
X134209698Y-121611673D01*
X133976309Y-121515000D01*
X133285750Y-121515000D01*
X133127000Y-121673750D01*
X132873000Y-121673750D01*
X132714250Y-121515000D01*
X132023691Y-121515000D01*
X131790302Y-121611673D01*
X131611673Y-121790301D01*
X131515000Y-122023690D01*
X107210000Y-122023690D01*
X107210000Y-118280000D01*
X129802560Y-118280000D01*
X129802560Y-119980000D01*
X129846838Y-120215317D01*
X129985910Y-120431441D01*
X130198110Y-120576431D01*
X130450000Y-120627440D01*
X132150000Y-120627440D01*
X132385317Y-120583162D01*
X132601441Y-120444090D01*
X132746431Y-120231890D01*
X132760086Y-120164459D01*
X132789946Y-120209147D01*
X133271715Y-120531054D01*
X133840000Y-120644093D01*
X134408285Y-120531054D01*
X134890054Y-120209147D01*
X135110000Y-119879974D01*
X135329946Y-120209147D01*
X135594631Y-120386003D01*
X135481562Y-120658301D01*
X135481238Y-121030267D01*
X135623283Y-121374043D01*
X135656400Y-121407218D01*
X135656400Y-122928800D01*
X135714252Y-123219639D01*
X135878999Y-123466201D01*
X135964978Y-123552180D01*
X135964938Y-123597667D01*
X136106983Y-123941443D01*
X136369773Y-124204692D01*
X136713301Y-124347338D01*
X137085267Y-124347662D01*
X137378482Y-124226508D01*
X137540302Y-124388327D01*
X137714777Y-124460597D01*
X137670853Y-124489946D01*
X137348946Y-124971715D01*
X137235907Y-125540000D01*
X137348946Y-126108285D01*
X137670853Y-126590054D01*
X138000026Y-126810000D01*
X137670853Y-127029946D01*
X137348946Y-127511715D01*
X137235907Y-128080000D01*
X137348946Y-128648285D01*
X137670853Y-129130054D01*
X138152622Y-129451961D01*
X138720907Y-129565000D01*
X138779093Y-129565000D01*
X139347378Y-129451961D01*
X139829147Y-129130054D01*
X140151054Y-128648285D01*
X140264093Y-128080000D01*
X140151054Y-127511715D01*
X139829147Y-127029946D01*
X139499974Y-126810000D01*
X139829147Y-126590054D01*
X140151054Y-126108285D01*
X140264093Y-125540000D01*
X142985907Y-125540000D01*
X143098946Y-126108285D01*
X143420853Y-126590054D01*
X143750026Y-126810000D01*
X143420853Y-127029946D01*
X143098946Y-127511715D01*
X142985907Y-128080000D01*
X143098946Y-128648285D01*
X143420853Y-129130054D01*
X143902622Y-129451961D01*
X144470907Y-129565000D01*
X144529093Y-129565000D01*
X145097378Y-129451961D01*
X145579147Y-129130054D01*
X145901054Y-128648285D01*
X146014093Y-128080000D01*
X145901054Y-127511715D01*
X145579147Y-127029946D01*
X145249974Y-126810000D01*
X145579147Y-126590054D01*
X145901054Y-126108285D01*
X146014093Y-125540000D01*
X145901054Y-124971715D01*
X145579147Y-124489946D01*
X145535223Y-124460597D01*
X145709698Y-124388327D01*
X145888025Y-124210000D01*
X172485907Y-124210000D01*
X172598946Y-124778285D01*
X172920853Y-125260054D01*
X172962452Y-125287850D01*
X172914683Y-125296838D01*
X172698559Y-125435910D01*
X172553569Y-125648110D01*
X172502560Y-125900000D01*
X172502560Y-127600000D01*
X172546838Y-127835317D01*
X172685910Y-128051441D01*
X172898110Y-128196431D01*
X173150000Y-128247440D01*
X174850000Y-128247440D01*
X175085317Y-128203162D01*
X175301441Y-128064090D01*
X175446431Y-127851890D01*
X175497440Y-127600000D01*
X175497440Y-125900000D01*
X175453162Y-125664683D01*
X175314090Y-125448559D01*
X175101890Y-125303569D01*
X175034459Y-125289914D01*
X175079147Y-125260054D01*
X175401054Y-124778285D01*
X175514093Y-124210000D01*
X175401054Y-123641715D01*
X175079147Y-123159946D01*
X174597378Y-122838039D01*
X174029093Y-122725000D01*
X173970907Y-122725000D01*
X173402622Y-122838039D01*
X172920853Y-123159946D01*
X172598946Y-123641715D01*
X172485907Y-124210000D01*
X145888025Y-124210000D01*
X145888327Y-124209699D01*
X145985000Y-123976310D01*
X145985000Y-123285750D01*
X145826250Y-123127000D01*
X144627000Y-123127000D01*
X144627000Y-123147000D01*
X144373000Y-123147000D01*
X144373000Y-123127000D01*
X143173750Y-123127000D01*
X143015000Y-123285750D01*
X143015000Y-123976310D01*
X143111673Y-124209699D01*
X143290302Y-124388327D01*
X143464777Y-124460597D01*
X143420853Y-124489946D01*
X143098946Y-124971715D01*
X142985907Y-125540000D01*
X140264093Y-125540000D01*
X140151054Y-124971715D01*
X139829147Y-124489946D01*
X139785223Y-124460597D01*
X139959698Y-124388327D01*
X140138327Y-124209699D01*
X140235000Y-123976310D01*
X140235000Y-123285750D01*
X140076250Y-123127000D01*
X138877000Y-123127000D01*
X138877000Y-123147000D01*
X138623000Y-123147000D01*
X138623000Y-123127000D01*
X138603000Y-123127000D01*
X138603000Y-122873000D01*
X138623000Y-122873000D01*
X138623000Y-121673750D01*
X138877000Y-121673750D01*
X138877000Y-122873000D01*
X140076250Y-122873000D01*
X140235000Y-122714250D01*
X140235000Y-122023690D01*
X143015000Y-122023690D01*
X143015000Y-122714250D01*
X143173750Y-122873000D01*
X144373000Y-122873000D01*
X144373000Y-121673750D01*
X144627000Y-121673750D01*
X144627000Y-122873000D01*
X145826250Y-122873000D01*
X145985000Y-122714250D01*
X145985000Y-122023690D01*
X145888327Y-121790301D01*
X145709698Y-121611673D01*
X145476309Y-121515000D01*
X144785750Y-121515000D01*
X144627000Y-121673750D01*
X144373000Y-121673750D01*
X144214250Y-121515000D01*
X143523691Y-121515000D01*
X143290302Y-121611673D01*
X143111673Y-121790301D01*
X143015000Y-122023690D01*
X140235000Y-122023690D01*
X140138327Y-121790301D01*
X139959698Y-121611673D01*
X139726309Y-121515000D01*
X139035750Y-121515000D01*
X138877000Y-121673750D01*
X138623000Y-121673750D01*
X138464250Y-121515000D01*
X137773691Y-121515000D01*
X137540302Y-121611673D01*
X137361673Y-121790301D01*
X137265000Y-122023690D01*
X137265000Y-122551616D01*
X137176400Y-122514826D01*
X137176400Y-121407563D01*
X137208592Y-121375427D01*
X137351238Y-121031899D01*
X137351562Y-120659933D01*
X137222581Y-120347775D01*
X137430054Y-120209147D01*
X137650000Y-119879974D01*
X137869946Y-120209147D01*
X138351715Y-120531054D01*
X138920000Y-120644093D01*
X139488285Y-120531054D01*
X139970054Y-120209147D01*
X140190000Y-119879974D01*
X140409946Y-120209147D01*
X140891715Y-120531054D01*
X141460000Y-120644093D01*
X142028285Y-120531054D01*
X142510054Y-120209147D01*
X142737702Y-119868447D01*
X142804817Y-120011358D01*
X143233076Y-120401645D01*
X143643110Y-120571476D01*
X143873000Y-120450155D01*
X143873000Y-119257000D01*
X144127000Y-119257000D01*
X144127000Y-120450155D01*
X144356890Y-120571476D01*
X144766924Y-120401645D01*
X145195183Y-120011358D01*
X145270000Y-119852046D01*
X145344817Y-120011358D01*
X145773076Y-120401645D01*
X146183110Y-120571476D01*
X146413000Y-120450155D01*
X146413000Y-119257000D01*
X144127000Y-119257000D01*
X143873000Y-119257000D01*
X143853000Y-119257000D01*
X143853000Y-119003000D01*
X143873000Y-119003000D01*
X143873000Y-117809845D01*
X144127000Y-117809845D01*
X144127000Y-119003000D01*
X146413000Y-119003000D01*
X146413000Y-117809845D01*
X146667000Y-117809845D01*
X146667000Y-119003000D01*
X146687000Y-119003000D01*
X146687000Y-119257000D01*
X146667000Y-119257000D01*
X146667000Y-120450155D01*
X146896890Y-120571476D01*
X147306924Y-120401645D01*
X147735183Y-120011358D01*
X147802298Y-119868447D01*
X148029946Y-120209147D01*
X148511715Y-120531054D01*
X149080000Y-120644093D01*
X149648285Y-120531054D01*
X150130054Y-120209147D01*
X150451961Y-119727378D01*
X150565000Y-119159093D01*
X150565000Y-119100907D01*
X150451961Y-118532622D01*
X150130054Y-118050853D01*
X149648285Y-117728946D01*
X149080000Y-117615907D01*
X148511715Y-117728946D01*
X148029946Y-118050853D01*
X147802298Y-118391553D01*
X147735183Y-118248642D01*
X147306924Y-117858355D01*
X146896890Y-117688524D01*
X146667000Y-117809845D01*
X146413000Y-117809845D01*
X146183110Y-117688524D01*
X145773076Y-117858355D01*
X145344817Y-118248642D01*
X145270000Y-118407954D01*
X145195183Y-118248642D01*
X144766924Y-117858355D01*
X144356890Y-117688524D01*
X144127000Y-117809845D01*
X143873000Y-117809845D01*
X143643110Y-117688524D01*
X143233076Y-117858355D01*
X142804817Y-118248642D01*
X142737702Y-118391553D01*
X142510054Y-118050853D01*
X142028285Y-117728946D01*
X141460000Y-117615907D01*
X140891715Y-117728946D01*
X140409946Y-118050853D01*
X140190000Y-118380026D01*
X139970054Y-118050853D01*
X139488285Y-117728946D01*
X138920000Y-117615907D01*
X138351715Y-117728946D01*
X137869946Y-118050853D01*
X137650000Y-118380026D01*
X137430054Y-118050853D01*
X136948285Y-117728946D01*
X136380000Y-117615907D01*
X135811715Y-117728946D01*
X135329946Y-118050853D01*
X135110000Y-118380026D01*
X134890054Y-118050853D01*
X134408285Y-117728946D01*
X133840000Y-117615907D01*
X133271715Y-117728946D01*
X132789946Y-118050853D01*
X132762150Y-118092452D01*
X132753162Y-118044683D01*
X132614090Y-117828559D01*
X132401890Y-117683569D01*
X132150000Y-117632560D01*
X130450000Y-117632560D01*
X130214683Y-117676838D01*
X129998559Y-117815910D01*
X129853569Y-118028110D01*
X129802560Y-118280000D01*
X107210000Y-118280000D01*
X107210000Y-114670907D01*
X131035000Y-114670907D01*
X131035000Y-114729093D01*
X131148039Y-115297378D01*
X131469946Y-115779147D01*
X131951715Y-116101054D01*
X132520000Y-116214093D01*
X133088285Y-116101054D01*
X133570054Y-115779147D01*
X133790000Y-115449974D01*
X134009946Y-115779147D01*
X134491715Y-116101054D01*
X135060000Y-116214093D01*
X135628285Y-116101054D01*
X136110054Y-115779147D01*
X136139403Y-115735223D01*
X136211673Y-115909698D01*
X136390301Y-116088327D01*
X136623690Y-116185000D01*
X137314250Y-116185000D01*
X137473000Y-116026250D01*
X137473000Y-114827000D01*
X137727000Y-114827000D01*
X137727000Y-116026250D01*
X137885750Y-116185000D01*
X138576310Y-116185000D01*
X138809699Y-116088327D01*
X138988327Y-115909698D01*
X139085000Y-115676309D01*
X139085000Y-114985750D01*
X138926250Y-114827000D01*
X137727000Y-114827000D01*
X137473000Y-114827000D01*
X137453000Y-114827000D01*
X137453000Y-114573000D01*
X137473000Y-114573000D01*
X137473000Y-113373750D01*
X137727000Y-113373750D01*
X137727000Y-114573000D01*
X138926250Y-114573000D01*
X139085000Y-114414250D01*
X139085000Y-113723691D01*
X138988327Y-113490302D01*
X138809699Y-113311673D01*
X138576310Y-113215000D01*
X137885750Y-113215000D01*
X137727000Y-113373750D01*
X137473000Y-113373750D01*
X137314250Y-113215000D01*
X136623690Y-113215000D01*
X136390301Y-113311673D01*
X136211673Y-113490302D01*
X136139403Y-113664777D01*
X136110054Y-113620853D01*
X135628285Y-113298946D01*
X135060000Y-113185907D01*
X134491715Y-113298946D01*
X134009946Y-113620853D01*
X133790000Y-113950026D01*
X133570054Y-113620853D01*
X133088285Y-113298946D01*
X132520000Y-113185907D01*
X131951715Y-113298946D01*
X131469946Y-113620853D01*
X131148039Y-114102622D01*
X131035000Y-114670907D01*
X107210000Y-114670907D01*
X107210000Y-110401172D01*
X107328355Y-110686924D01*
X107718642Y-111115183D01*
X108243108Y-111361486D01*
X108473000Y-111240819D01*
X108473000Y-110047000D01*
X108727000Y-110047000D01*
X108727000Y-111240819D01*
X108956892Y-111361486D01*
X109481358Y-111115183D01*
X109871645Y-110686924D01*
X110041476Y-110276890D01*
X109932772Y-110070907D01*
X131035000Y-110070907D01*
X131035000Y-110129093D01*
X131148039Y-110697378D01*
X131469946Y-111179147D01*
X131951715Y-111501054D01*
X132520000Y-111614093D01*
X133088285Y-111501054D01*
X133570054Y-111179147D01*
X133790000Y-110849974D01*
X134009946Y-111179147D01*
X134491715Y-111501054D01*
X135060000Y-111614093D01*
X135628285Y-111501054D01*
X136110054Y-111179147D01*
X136139403Y-111135223D01*
X136211673Y-111309698D01*
X136390301Y-111488327D01*
X136623690Y-111585000D01*
X137314250Y-111585000D01*
X137473000Y-111426250D01*
X137473000Y-110227000D01*
X137727000Y-110227000D01*
X137727000Y-111426250D01*
X137885750Y-111585000D01*
X138576310Y-111585000D01*
X138809699Y-111488327D01*
X138988327Y-111309698D01*
X139085000Y-111076309D01*
X139085000Y-110385750D01*
X138926250Y-110227000D01*
X137727000Y-110227000D01*
X137473000Y-110227000D01*
X137453000Y-110227000D01*
X137453000Y-109973000D01*
X137473000Y-109973000D01*
X137473000Y-108773750D01*
X137727000Y-108773750D01*
X137727000Y-109973000D01*
X138926250Y-109973000D01*
X139085000Y-109814250D01*
X139085000Y-109123691D01*
X138988327Y-108890302D01*
X138809699Y-108711673D01*
X138576310Y-108615000D01*
X137885750Y-108615000D01*
X137727000Y-108773750D01*
X137473000Y-108773750D01*
X137314250Y-108615000D01*
X136623690Y-108615000D01*
X136390301Y-108711673D01*
X136211673Y-108890302D01*
X136139403Y-109064777D01*
X136110054Y-109020853D01*
X135628285Y-108698946D01*
X135060000Y-108585907D01*
X134491715Y-108698946D01*
X134009946Y-109020853D01*
X133790000Y-109350026D01*
X133570054Y-109020853D01*
X133088285Y-108698946D01*
X132520000Y-108585907D01*
X131951715Y-108698946D01*
X131469946Y-109020853D01*
X131148039Y-109502622D01*
X131035000Y-110070907D01*
X109932772Y-110070907D01*
X109920155Y-110047000D01*
X108727000Y-110047000D01*
X108473000Y-110047000D01*
X108453000Y-110047000D01*
X108453000Y-109793000D01*
X108473000Y-109793000D01*
X108473000Y-107507000D01*
X108727000Y-107507000D01*
X108727000Y-109793000D01*
X109920155Y-109793000D01*
X110041476Y-109563110D01*
X109871645Y-109153076D01*
X109481358Y-108724817D01*
X109322046Y-108650000D01*
X109481358Y-108575183D01*
X109871645Y-108146924D01*
X110041476Y-107736890D01*
X109920155Y-107507000D01*
X108727000Y-107507000D01*
X108473000Y-107507000D01*
X108453000Y-107507000D01*
X108453000Y-107253000D01*
X108473000Y-107253000D01*
X108473000Y-107233000D01*
X108727000Y-107233000D01*
X108727000Y-107253000D01*
X109920155Y-107253000D01*
X110041476Y-107023110D01*
X109871645Y-106613076D01*
X109481358Y-106184817D01*
X109338447Y-106117702D01*
X109679147Y-105890054D01*
X109892393Y-105570907D01*
X131035000Y-105570907D01*
X131035000Y-105629093D01*
X131148039Y-106197378D01*
X131469946Y-106679147D01*
X131951715Y-107001054D01*
X132520000Y-107114093D01*
X133088285Y-107001054D01*
X133570054Y-106679147D01*
X133790000Y-106349974D01*
X134009946Y-106679147D01*
X134491715Y-107001054D01*
X135060000Y-107114093D01*
X135628285Y-107001054D01*
X136110054Y-106679147D01*
X136139403Y-106635223D01*
X136211673Y-106809698D01*
X136390301Y-106988327D01*
X136623690Y-107085000D01*
X137314250Y-107085000D01*
X137473000Y-106926250D01*
X137473000Y-105727000D01*
X137727000Y-105727000D01*
X137727000Y-106926250D01*
X137885750Y-107085000D01*
X138576310Y-107085000D01*
X138809699Y-106988327D01*
X138988327Y-106809698D01*
X139085000Y-106576309D01*
X139085000Y-105885750D01*
X138926250Y-105727000D01*
X137727000Y-105727000D01*
X137473000Y-105727000D01*
X137453000Y-105727000D01*
X137453000Y-105473000D01*
X137473000Y-105473000D01*
X137473000Y-104273750D01*
X137727000Y-104273750D01*
X137727000Y-105473000D01*
X138926250Y-105473000D01*
X139085000Y-105314250D01*
X139085000Y-104623691D01*
X138988327Y-104390302D01*
X138809699Y-104211673D01*
X138576310Y-104115000D01*
X137885750Y-104115000D01*
X137727000Y-104273750D01*
X137473000Y-104273750D01*
X137314250Y-104115000D01*
X136623690Y-104115000D01*
X136390301Y-104211673D01*
X136211673Y-104390302D01*
X136139403Y-104564777D01*
X136110054Y-104520853D01*
X135628285Y-104198946D01*
X135060000Y-104085907D01*
X134491715Y-104198946D01*
X134009946Y-104520853D01*
X133790000Y-104850026D01*
X133570054Y-104520853D01*
X133088285Y-104198946D01*
X132520000Y-104085907D01*
X131951715Y-104198946D01*
X131469946Y-104520853D01*
X131148039Y-105002622D01*
X131035000Y-105570907D01*
X109892393Y-105570907D01*
X110001054Y-105408285D01*
X110114093Y-104840000D01*
X110001054Y-104271715D01*
X109679147Y-103789946D01*
X109637548Y-103762150D01*
X109685317Y-103753162D01*
X109901441Y-103614090D01*
X110046431Y-103401890D01*
X110097440Y-103150000D01*
X110097440Y-101450000D01*
X110053162Y-101214683D01*
X109914090Y-100998559D01*
X109701890Y-100853569D01*
X109450000Y-100802560D01*
X107750000Y-100802560D01*
X107514683Y-100846838D01*
X107298559Y-100985910D01*
X107210000Y-101115520D01*
X107210000Y-98604829D01*
X107520853Y-99070054D01*
X108002622Y-99391961D01*
X108570907Y-99505000D01*
X108629093Y-99505000D01*
X109197378Y-99391961D01*
X109679147Y-99070054D01*
X110001054Y-98588285D01*
X110093207Y-98125000D01*
X112227560Y-98125000D01*
X112227560Y-99875000D01*
X112271838Y-100110317D01*
X112410910Y-100326441D01*
X112623110Y-100471431D01*
X112875000Y-100522440D01*
X114625000Y-100522440D01*
X114860317Y-100478162D01*
X115076441Y-100339090D01*
X115221431Y-100126890D01*
X115224786Y-100110324D01*
X115393537Y-100279370D01*
X115948325Y-100509738D01*
X116549040Y-100510262D01*
X117104229Y-100280862D01*
X117323413Y-100062060D01*
X117867545Y-100062060D01*
X117950884Y-100315953D01*
X118515306Y-100521590D01*
X119115458Y-100495579D01*
X119549116Y-100315953D01*
X119632455Y-100062060D01*
X120367545Y-100062060D01*
X120450884Y-100315953D01*
X121015306Y-100521590D01*
X121615458Y-100495579D01*
X122049116Y-100315953D01*
X122132455Y-100062060D01*
X122867545Y-100062060D01*
X122950884Y-100315953D01*
X123515306Y-100521590D01*
X124115458Y-100495579D01*
X124549116Y-100315953D01*
X124632455Y-100062060D01*
X123750000Y-99179605D01*
X122867545Y-100062060D01*
X122132455Y-100062060D01*
X121250000Y-99179605D01*
X120367545Y-100062060D01*
X119632455Y-100062060D01*
X118750000Y-99179605D01*
X117867545Y-100062060D01*
X117323413Y-100062060D01*
X117529370Y-99856463D01*
X117538892Y-99833531D01*
X117687940Y-99882455D01*
X118570395Y-99000000D01*
X118929605Y-99000000D01*
X119812060Y-99882455D01*
X120000000Y-99820765D01*
X120187940Y-99882455D01*
X121070395Y-99000000D01*
X121429605Y-99000000D01*
X122312060Y-99882455D01*
X122500000Y-99820765D01*
X122687940Y-99882455D01*
X123570395Y-99000000D01*
X122687940Y-98117545D01*
X122500000Y-98179235D01*
X122312060Y-98117545D01*
X121429605Y-99000000D01*
X121070395Y-99000000D01*
X120187940Y-98117545D01*
X120000000Y-98179235D01*
X119812060Y-98117545D01*
X118929605Y-99000000D01*
X118570395Y-99000000D01*
X117687940Y-98117545D01*
X117539352Y-98166318D01*
X117530862Y-98145771D01*
X117323394Y-97937940D01*
X117867545Y-97937940D01*
X118750000Y-98820395D01*
X119632455Y-97937940D01*
X120367545Y-97937940D01*
X121250000Y-98820395D01*
X122132455Y-97937940D01*
X122867545Y-97937940D01*
X123750000Y-98820395D01*
X124632455Y-97937940D01*
X124549116Y-97684047D01*
X123984694Y-97478410D01*
X123384542Y-97504421D01*
X122950884Y-97684047D01*
X122867545Y-97937940D01*
X122132455Y-97937940D01*
X122049116Y-97684047D01*
X121484694Y-97478410D01*
X120884542Y-97504421D01*
X120450884Y-97684047D01*
X120367545Y-97937940D01*
X119632455Y-97937940D01*
X119549116Y-97684047D01*
X118984694Y-97478410D01*
X118384542Y-97504421D01*
X117950884Y-97684047D01*
X117867545Y-97937940D01*
X117323394Y-97937940D01*
X117106463Y-97720630D01*
X116551675Y-97490262D01*
X115950960Y-97489738D01*
X115395771Y-97719138D01*
X115226897Y-97887717D01*
X115089090Y-97673559D01*
X114876890Y-97528569D01*
X114625000Y-97477560D01*
X112875000Y-97477560D01*
X112639683Y-97521838D01*
X112423559Y-97660910D01*
X112278569Y-97873110D01*
X112227560Y-98125000D01*
X110093207Y-98125000D01*
X110114093Y-98020000D01*
X110001054Y-97451715D01*
X109679147Y-96969946D01*
X109349974Y-96750000D01*
X109679147Y-96530054D01*
X110001054Y-96048285D01*
X110114093Y-95480000D01*
X110001054Y-94911715D01*
X109679147Y-94429946D01*
X109349974Y-94210000D01*
X109679147Y-93990054D01*
X110001054Y-93508285D01*
X110114093Y-92940000D01*
X110001054Y-92371715D01*
X109679147Y-91889946D01*
X109637548Y-91862150D01*
X109685317Y-91853162D01*
X109901441Y-91714090D01*
X110046431Y-91501890D01*
X110097440Y-91250000D01*
X110097440Y-89550000D01*
X110053162Y-89314683D01*
X109914090Y-89098559D01*
X109701890Y-88953569D01*
X109450000Y-88902560D01*
X107750000Y-88902560D01*
X107514683Y-88946838D01*
X107298559Y-89085910D01*
X107210000Y-89215520D01*
X107210000Y-70030000D01*
X120722560Y-70030000D01*
X120722560Y-71730000D01*
X120766838Y-71965317D01*
X120905910Y-72181441D01*
X121118110Y-72326431D01*
X121370000Y-72377440D01*
X123070000Y-72377440D01*
X123305317Y-72333162D01*
X123521441Y-72194090D01*
X123666431Y-71981890D01*
X123680086Y-71914459D01*
X123709946Y-71959147D01*
X124191715Y-72281054D01*
X124760000Y-72394093D01*
X125328285Y-72281054D01*
X125810054Y-71959147D01*
X126030000Y-71629974D01*
X126249946Y-71959147D01*
X126731715Y-72281054D01*
X127300000Y-72394093D01*
X127868285Y-72281054D01*
X128350054Y-71959147D01*
X128570000Y-71629974D01*
X128789946Y-71959147D01*
X129271715Y-72281054D01*
X129840000Y-72394093D01*
X130408285Y-72281054D01*
X130890054Y-71959147D01*
X131110000Y-71629974D01*
X131329946Y-71959147D01*
X131811715Y-72281054D01*
X132380000Y-72394093D01*
X132948285Y-72281054D01*
X133430054Y-71959147D01*
X133650000Y-71629974D01*
X133869946Y-71959147D01*
X134351715Y-72281054D01*
X134920000Y-72394093D01*
X135488285Y-72281054D01*
X135970054Y-71959147D01*
X136190000Y-71629974D01*
X136409946Y-71959147D01*
X136452750Y-71987748D01*
X135837999Y-72602499D01*
X135673252Y-72849061D01*
X135615400Y-73139900D01*
X135615400Y-74102560D01*
X134350000Y-74102560D01*
X134114683Y-74146838D01*
X133898559Y-74285910D01*
X133753569Y-74498110D01*
X133702560Y-74750000D01*
X133702560Y-74918767D01*
X133487299Y-75062599D01*
X133322552Y-75309161D01*
X133273838Y-75554060D01*
X130733520Y-78094378D01*
X130688033Y-78094338D01*
X130344257Y-78236383D01*
X130081008Y-78499173D01*
X129938362Y-78842701D01*
X129938038Y-79214667D01*
X130080083Y-79558443D01*
X130342873Y-79821692D01*
X130686401Y-79964338D01*
X131058367Y-79964662D01*
X131184300Y-79912628D01*
X131184300Y-80129637D01*
X131152108Y-80161773D01*
X131009462Y-80505301D01*
X131009138Y-80877267D01*
X131151183Y-81221043D01*
X131413973Y-81484292D01*
X131757501Y-81626938D01*
X132129467Y-81627262D01*
X132473243Y-81485217D01*
X132560900Y-81397713D01*
X132560900Y-81530637D01*
X132528708Y-81562773D01*
X132386062Y-81906301D01*
X132385738Y-82278267D01*
X132527783Y-82622043D01*
X132790573Y-82885292D01*
X133134101Y-83027938D01*
X133506067Y-83028262D01*
X133849843Y-82886217D01*
X134113092Y-82623427D01*
X134255738Y-82279899D01*
X134256062Y-81907933D01*
X134114017Y-81564157D01*
X134080900Y-81530982D01*
X134080900Y-81468922D01*
X134413076Y-81771645D01*
X134823110Y-81941476D01*
X135053000Y-81820155D01*
X135053000Y-80627000D01*
X135033000Y-80627000D01*
X135033000Y-80373000D01*
X135053000Y-80373000D01*
X135053000Y-80353000D01*
X135307000Y-80353000D01*
X135307000Y-80373000D01*
X135327000Y-80373000D01*
X135327000Y-80627000D01*
X135307000Y-80627000D01*
X135307000Y-81820155D01*
X135536890Y-81941476D01*
X135946924Y-81771645D01*
X136375183Y-81381358D01*
X136442298Y-81238447D01*
X136669946Y-81579147D01*
X137151715Y-81901054D01*
X137720000Y-82014093D01*
X138184700Y-81921658D01*
X138184700Y-87178237D01*
X138152508Y-87210373D01*
X138009862Y-87553901D01*
X138009538Y-87925867D01*
X138151583Y-88269643D01*
X138414373Y-88532892D01*
X138757901Y-88675538D01*
X139129867Y-88675862D01*
X139473643Y-88533817D01*
X139736892Y-88271027D01*
X139879538Y-87927499D01*
X139879862Y-87555533D01*
X139737817Y-87211757D01*
X139704700Y-87178582D01*
X139704700Y-81903637D01*
X140260000Y-82014093D01*
X140695400Y-81927486D01*
X140695400Y-82087390D01*
X140577152Y-82264361D01*
X140519300Y-82555200D01*
X140519300Y-92340637D01*
X140487108Y-92372773D01*
X140344462Y-92716301D01*
X140344138Y-93088267D01*
X140486183Y-93432043D01*
X140748973Y-93695292D01*
X141092501Y-93837938D01*
X141464467Y-93838262D01*
X141808243Y-93696217D01*
X142071492Y-93433427D01*
X142214138Y-93089899D01*
X142214462Y-92717933D01*
X142072417Y-92374157D01*
X142039300Y-92340982D01*
X142039300Y-83959603D01*
X142106567Y-83959662D01*
X142450343Y-83817617D01*
X142713592Y-83554827D01*
X142814178Y-83312590D01*
X143235400Y-82891368D01*
X143235400Y-97578806D01*
X143187054Y-97598782D01*
X143045827Y-97457308D01*
X142702299Y-97314662D01*
X142330333Y-97314338D01*
X141986557Y-97456383D01*
X141834835Y-97607840D01*
X141551675Y-97490262D01*
X140950960Y-97489738D01*
X140395771Y-97719138D01*
X139999682Y-98114536D01*
X139606463Y-97720630D01*
X139051675Y-97490262D01*
X138450960Y-97489738D01*
X137895771Y-97719138D01*
X137499682Y-98114536D01*
X137106463Y-97720630D01*
X136551675Y-97490262D01*
X135950960Y-97489738D01*
X135395771Y-97719138D01*
X134999682Y-98114536D01*
X134606463Y-97720630D01*
X134051675Y-97490262D01*
X133450960Y-97489738D01*
X132895771Y-97719138D01*
X132499682Y-98114536D01*
X132106463Y-97720630D01*
X131551675Y-97490262D01*
X130950960Y-97489738D01*
X130395771Y-97719138D01*
X129999682Y-98114536D01*
X129606463Y-97720630D01*
X129051675Y-97490262D01*
X128450960Y-97489738D01*
X127895771Y-97719138D01*
X127499682Y-98114536D01*
X127106463Y-97720630D01*
X126551675Y-97490262D01*
X125950960Y-97489738D01*
X125395771Y-97719138D01*
X124970630Y-98143537D01*
X124961108Y-98166469D01*
X124812060Y-98117545D01*
X123929605Y-99000000D01*
X124812060Y-99882455D01*
X124960648Y-99833682D01*
X124969138Y-99854229D01*
X125393537Y-100279370D01*
X125948325Y-100509738D01*
X126549040Y-100510262D01*
X127104229Y-100280862D01*
X127500318Y-99885464D01*
X127893537Y-100279370D01*
X128448325Y-100509738D01*
X129049040Y-100510262D01*
X129604229Y-100280862D01*
X130000318Y-99885464D01*
X130393537Y-100279370D01*
X130948325Y-100509738D01*
X131549040Y-100510262D01*
X132104229Y-100280862D01*
X132500318Y-99885464D01*
X132893537Y-100279370D01*
X133448325Y-100509738D01*
X134049040Y-100510262D01*
X134604229Y-100280862D01*
X135000318Y-99885464D01*
X135393537Y-100279370D01*
X135948325Y-100509738D01*
X136549040Y-100510262D01*
X137104229Y-100280862D01*
X137500318Y-99885464D01*
X137893537Y-100279370D01*
X138448325Y-100509738D01*
X139049040Y-100510262D01*
X139604229Y-100280862D01*
X140000318Y-99885464D01*
X140393537Y-100279370D01*
X140948325Y-100509738D01*
X141549040Y-100510262D01*
X141755500Y-100424954D01*
X141755500Y-101685500D01*
X141813352Y-101976339D01*
X141978099Y-102222901D01*
X149406178Y-109650981D01*
X149406138Y-109696467D01*
X149548183Y-110040243D01*
X149810973Y-110303492D01*
X150154501Y-110446138D01*
X150526467Y-110446462D01*
X150870243Y-110304417D01*
X151046232Y-110128734D01*
X151931200Y-111013702D01*
X151931200Y-113662198D01*
X141763222Y-103494220D01*
X141763262Y-103448733D01*
X141621217Y-103104957D01*
X141358427Y-102841708D01*
X141014899Y-102699062D01*
X140642933Y-102698738D01*
X140299157Y-102840783D01*
X140035908Y-103103573D01*
X139893262Y-103447101D01*
X139892938Y-103819067D01*
X140034983Y-104162843D01*
X140297773Y-104426092D01*
X140641301Y-104568738D01*
X140688177Y-104568779D01*
X153771958Y-117652560D01*
X153320000Y-117652560D01*
X153084683Y-117696838D01*
X152868559Y-117835910D01*
X152723569Y-118048110D01*
X152672560Y-118300000D01*
X152672560Y-120000000D01*
X152716838Y-120235317D01*
X152855910Y-120451441D01*
X153068110Y-120596431D01*
X153320000Y-120647440D01*
X155020000Y-120647440D01*
X155255317Y-120603162D01*
X155471441Y-120464090D01*
X155616431Y-120251890D01*
X155630086Y-120184459D01*
X155659946Y-120229147D01*
X156141715Y-120551054D01*
X156710000Y-120664093D01*
X157228800Y-120560897D01*
X157228800Y-120837137D01*
X157196608Y-120869273D01*
X157053962Y-121212801D01*
X157053638Y-121584767D01*
X157195683Y-121928543D01*
X157458473Y-122191792D01*
X157802001Y-122334438D01*
X158173967Y-122334762D01*
X158517743Y-122192717D01*
X158780992Y-121929927D01*
X158923638Y-121586399D01*
X158923962Y-121214433D01*
X158781917Y-120870657D01*
X158748800Y-120837482D01*
X158748800Y-120564398D01*
X159250000Y-120664093D01*
X159818285Y-120551054D01*
X160300054Y-120229147D01*
X160520000Y-119899974D01*
X160739946Y-120229147D01*
X161221715Y-120551054D01*
X161790000Y-120664093D01*
X162358285Y-120551054D01*
X162840054Y-120229147D01*
X163060000Y-119899974D01*
X163279946Y-120229147D01*
X163761715Y-120551054D01*
X164330000Y-120664093D01*
X164898285Y-120551054D01*
X165380054Y-120229147D01*
X165600000Y-119899974D01*
X165819946Y-120229147D01*
X166301715Y-120551054D01*
X166870000Y-120664093D01*
X167438285Y-120551054D01*
X167920054Y-120229147D01*
X168140000Y-119899974D01*
X168359946Y-120229147D01*
X168841715Y-120551054D01*
X169410000Y-120664093D01*
X169978285Y-120551054D01*
X170460054Y-120229147D01*
X170680000Y-119899974D01*
X170899946Y-120229147D01*
X171381715Y-120551054D01*
X171950000Y-120664093D01*
X172518285Y-120551054D01*
X173000054Y-120229147D01*
X173321961Y-119747378D01*
X173435000Y-119179093D01*
X173435000Y-119120907D01*
X173321961Y-118552622D01*
X173000054Y-118070853D01*
X172518285Y-117748946D01*
X171950000Y-117635907D01*
X171381715Y-117748946D01*
X170899946Y-118070853D01*
X170680000Y-118400026D01*
X170460054Y-118070853D01*
X169978285Y-117748946D01*
X169410000Y-117635907D01*
X168841715Y-117748946D01*
X168359946Y-118070853D01*
X168140000Y-118400026D01*
X167920054Y-118070853D01*
X167438285Y-117748946D01*
X166870000Y-117635907D01*
X166301715Y-117748946D01*
X165819946Y-118070853D01*
X165600000Y-118400026D01*
X165380054Y-118070853D01*
X164898285Y-117748946D01*
X164330000Y-117635907D01*
X163761715Y-117748946D01*
X163279946Y-118070853D01*
X163060000Y-118400026D01*
X162840054Y-118070853D01*
X162358285Y-117748946D01*
X161790000Y-117635907D01*
X161221715Y-117748946D01*
X160739946Y-118070853D01*
X160520000Y-118400026D01*
X160300054Y-118070853D01*
X160010000Y-117877046D01*
X160010000Y-116850000D01*
X159956579Y-116581438D01*
X159952148Y-116559160D01*
X159787401Y-116312599D01*
X159635122Y-116160320D01*
X159635162Y-116114833D01*
X159493117Y-115771057D01*
X159230327Y-115507808D01*
X158886799Y-115365162D01*
X158748800Y-115365042D01*
X158748800Y-114583800D01*
X159576200Y-114583800D01*
X159867039Y-114525948D01*
X160113601Y-114361201D01*
X160139680Y-114335122D01*
X160185167Y-114335162D01*
X160528943Y-114193117D01*
X160792192Y-113930327D01*
X160822944Y-113856268D01*
X160822938Y-113863167D01*
X160964983Y-114206943D01*
X161227773Y-114470192D01*
X161571301Y-114612838D01*
X161943267Y-114613162D01*
X162287043Y-114471117D01*
X162349300Y-114408969D01*
X162349300Y-116258237D01*
X162317108Y-116290373D01*
X162174462Y-116633901D01*
X162174138Y-117005867D01*
X162316183Y-117349643D01*
X162578973Y-117612892D01*
X162922501Y-117755538D01*
X163294467Y-117755862D01*
X163638243Y-117613817D01*
X163901492Y-117351027D01*
X164044138Y-117007499D01*
X164044462Y-116635533D01*
X163902417Y-116291757D01*
X163869300Y-116258582D01*
X163869300Y-114840000D01*
X178085907Y-114840000D01*
X178198946Y-115408285D01*
X178520853Y-115890054D01*
X178850026Y-116110000D01*
X178520853Y-116329946D01*
X178198946Y-116811715D01*
X178085907Y-117380000D01*
X178198946Y-117948285D01*
X178520853Y-118430054D01*
X178850026Y-118650000D01*
X178520853Y-118869946D01*
X178198946Y-119351715D01*
X178085907Y-119920000D01*
X178198946Y-120488285D01*
X178520853Y-120970054D01*
X178850026Y-121190000D01*
X178520853Y-121409946D01*
X178198946Y-121891715D01*
X178085907Y-122460000D01*
X178198946Y-123028285D01*
X178520853Y-123510054D01*
X178562452Y-123537850D01*
X178514683Y-123546838D01*
X178298559Y-123685910D01*
X178153569Y-123898110D01*
X178102560Y-124150000D01*
X178102560Y-125850000D01*
X178146838Y-126085317D01*
X178285910Y-126301441D01*
X178498110Y-126446431D01*
X178750000Y-126497440D01*
X180450000Y-126497440D01*
X180685317Y-126453162D01*
X180901441Y-126314090D01*
X181046431Y-126101890D01*
X181097440Y-125850000D01*
X181097440Y-124150000D01*
X181053162Y-123914683D01*
X180914090Y-123698559D01*
X180701890Y-123553569D01*
X180634459Y-123539914D01*
X180679147Y-123510054D01*
X181001054Y-123028285D01*
X181114093Y-122460000D01*
X181001054Y-121891715D01*
X180679147Y-121409946D01*
X180349974Y-121190000D01*
X180679147Y-120970054D01*
X181001054Y-120488285D01*
X181114093Y-119920000D01*
X181001054Y-119351715D01*
X180679147Y-118869946D01*
X180349974Y-118650000D01*
X180679147Y-118430054D01*
X181001054Y-117948285D01*
X181114093Y-117380000D01*
X181001054Y-116811715D01*
X180679147Y-116329946D01*
X180349974Y-116110000D01*
X180679147Y-115890054D01*
X181001054Y-115408285D01*
X181114093Y-114840000D01*
X181001054Y-114271715D01*
X180679147Y-113789946D01*
X180338447Y-113562298D01*
X180481358Y-113495183D01*
X180871645Y-113066924D01*
X181041476Y-112656890D01*
X180920155Y-112427000D01*
X179727000Y-112427000D01*
X179727000Y-112447000D01*
X179473000Y-112447000D01*
X179473000Y-112427000D01*
X178279845Y-112427000D01*
X178158524Y-112656890D01*
X178328355Y-113066924D01*
X178718642Y-113495183D01*
X178861553Y-113562298D01*
X178520853Y-113789946D01*
X178198946Y-114271715D01*
X178085907Y-114840000D01*
X163869300Y-114840000D01*
X163869300Y-112856100D01*
X163811448Y-112565261D01*
X163646701Y-112318699D01*
X159013169Y-107685167D01*
X169664838Y-107685167D01*
X169806883Y-108028943D01*
X169840000Y-108062118D01*
X169840000Y-109500000D01*
X169897852Y-109790839D01*
X170062599Y-110037401D01*
X170540000Y-110514803D01*
X170540000Y-111337537D01*
X170507808Y-111369673D01*
X170365162Y-111713201D01*
X170364838Y-112085167D01*
X170506883Y-112428943D01*
X170769673Y-112692192D01*
X171113201Y-112834838D01*
X171485167Y-112835162D01*
X171828943Y-112693117D01*
X172092192Y-112430327D01*
X172234838Y-112086799D01*
X172234963Y-111943110D01*
X178158524Y-111943110D01*
X178279845Y-112173000D01*
X179473000Y-112173000D01*
X179473000Y-110979181D01*
X179727000Y-110979181D01*
X179727000Y-112173000D01*
X180920155Y-112173000D01*
X180932292Y-112150000D01*
X181852560Y-112150000D01*
X181852560Y-113850000D01*
X181896838Y-114085317D01*
X182003759Y-114251477D01*
X181903569Y-114398110D01*
X181852560Y-114650000D01*
X181852560Y-116350000D01*
X181896838Y-116585317D01*
X182035910Y-116801441D01*
X182248110Y-116946431D01*
X182500000Y-116997440D01*
X182818767Y-116997440D01*
X182962599Y-117212701D01*
X183334684Y-117584786D01*
X183315162Y-117631801D01*
X183314898Y-117935175D01*
X183203569Y-118098110D01*
X183152560Y-118350000D01*
X183152560Y-119150000D01*
X183196838Y-119385317D01*
X183335910Y-119601441D01*
X183415000Y-119655481D01*
X183415000Y-122843156D01*
X183348559Y-122885910D01*
X183203569Y-123098110D01*
X183152560Y-123350000D01*
X183152560Y-124150000D01*
X183196838Y-124385317D01*
X183335910Y-124601441D01*
X183548110Y-124746431D01*
X183800000Y-124797440D01*
X184344038Y-124797440D01*
X184344038Y-124797667D01*
X184486083Y-125141443D01*
X184748873Y-125404692D01*
X185092401Y-125547338D01*
X185333405Y-125547548D01*
X185335910Y-125551441D01*
X185548110Y-125696431D01*
X185800000Y-125747440D01*
X186700000Y-125747440D01*
X186935317Y-125703162D01*
X187151441Y-125564090D01*
X187253590Y-125414590D01*
X187316139Y-125402148D01*
X187562701Y-125237401D01*
X187660089Y-125140013D01*
X187696838Y-125335317D01*
X187835910Y-125551441D01*
X188048110Y-125696431D01*
X188300000Y-125747440D01*
X189200000Y-125747440D01*
X189435317Y-125703162D01*
X189651441Y-125564090D01*
X189722563Y-125460000D01*
X190618282Y-125460000D01*
X190582862Y-125545301D01*
X190582538Y-125917267D01*
X190724583Y-126261043D01*
X190987373Y-126524292D01*
X191330901Y-126666938D01*
X191377777Y-126666979D01*
X191572899Y-126862101D01*
X191602560Y-126881920D01*
X191602560Y-128350000D01*
X191646838Y-128585317D01*
X191785910Y-128801441D01*
X191998110Y-128946431D01*
X192250000Y-128997440D01*
X194250000Y-128997440D01*
X194485317Y-128953162D01*
X194701441Y-128814090D01*
X194846431Y-128601890D01*
X194897440Y-128350000D01*
X194897440Y-126650000D01*
X194853162Y-126414683D01*
X194714090Y-126198559D01*
X194501890Y-126053569D01*
X194250000Y-126002560D01*
X193931233Y-126002560D01*
X193927812Y-125997440D01*
X194250000Y-125997440D01*
X194485317Y-125953162D01*
X194701441Y-125814090D01*
X194846431Y-125601890D01*
X194897440Y-125350000D01*
X194897440Y-123650000D01*
X195602560Y-123650000D01*
X195602560Y-125350000D01*
X195646838Y-125585317D01*
X195785910Y-125801441D01*
X195998110Y-125946431D01*
X196250000Y-125997440D01*
X196490000Y-125997440D01*
X196490000Y-126002560D01*
X196250000Y-126002560D01*
X196014683Y-126046838D01*
X195798559Y-126185910D01*
X195653569Y-126398110D01*
X195602560Y-126650000D01*
X195602560Y-128350000D01*
X195646838Y-128585317D01*
X195785910Y-128801441D01*
X195998110Y-128946431D01*
X196250000Y-128997440D01*
X198250000Y-128997440D01*
X198485317Y-128953162D01*
X198701441Y-128814090D01*
X198846431Y-128601890D01*
X198897440Y-128350000D01*
X198897440Y-126905707D01*
X198962701Y-126862101D01*
X199148780Y-126676022D01*
X199194267Y-126676062D01*
X199538043Y-126534017D01*
X199801292Y-126271227D01*
X199943938Y-125927699D01*
X199944262Y-125555733D01*
X199802217Y-125211957D01*
X199539427Y-124948708D01*
X199195899Y-124806062D01*
X198897440Y-124805802D01*
X198897440Y-124777362D01*
X200777362Y-122897440D01*
X202200000Y-122897440D01*
X202435317Y-122853162D01*
X202651441Y-122714090D01*
X202796431Y-122501890D01*
X202847440Y-122250000D01*
X202847440Y-120550000D01*
X202803162Y-120314683D01*
X202664090Y-120098559D01*
X202451890Y-119953569D01*
X202200000Y-119902560D01*
X200200000Y-119902560D01*
X199964683Y-119946838D01*
X199748559Y-120085910D01*
X199603569Y-120298110D01*
X199552560Y-120550000D01*
X199552560Y-121972638D01*
X198476725Y-123048473D01*
X198250000Y-123002560D01*
X196250000Y-123002560D01*
X196014683Y-123046838D01*
X195798559Y-123185910D01*
X195653569Y-123398110D01*
X195602560Y-123650000D01*
X194897440Y-123650000D01*
X194853162Y-123414683D01*
X194714090Y-123198559D01*
X194501890Y-123053569D01*
X194250000Y-123002560D01*
X193693483Y-123002560D01*
X193722563Y-122960000D01*
X195500000Y-122960000D01*
X195790839Y-122902148D01*
X195911580Y-122821471D01*
X195948110Y-122846431D01*
X196200000Y-122897440D01*
X198200000Y-122897440D01*
X198435317Y-122853162D01*
X198651441Y-122714090D01*
X198796431Y-122501890D01*
X198847440Y-122250000D01*
X198847440Y-120550000D01*
X198803162Y-120314683D01*
X198664090Y-120098559D01*
X198451890Y-119953569D01*
X198200000Y-119902560D01*
X196200000Y-119902560D01*
X195964683Y-119946838D01*
X195748559Y-120085910D01*
X195603569Y-120298110D01*
X195593897Y-120345872D01*
X195559698Y-120311673D01*
X195326309Y-120215000D01*
X195035750Y-120215000D01*
X194877000Y-120373750D01*
X194877000Y-121123000D01*
X194897000Y-121123000D01*
X194897000Y-121377000D01*
X194877000Y-121377000D01*
X194877000Y-121397000D01*
X194623000Y-121397000D01*
X194623000Y-121377000D01*
X193823750Y-121377000D01*
X193760750Y-121440000D01*
X193722931Y-121440000D01*
X193664090Y-121348559D01*
X193518917Y-121249367D01*
X193651441Y-121164090D01*
X193738064Y-121037314D01*
X193823750Y-121123000D01*
X194623000Y-121123000D01*
X194623000Y-120373750D01*
X194464250Y-120215000D01*
X194173691Y-120215000D01*
X193940302Y-120311673D01*
X193847440Y-120404534D01*
X193847440Y-119900000D01*
X193803162Y-119664683D01*
X193776403Y-119623099D01*
X195037401Y-118362101D01*
X195202148Y-118115539D01*
X195260000Y-117824700D01*
X195260000Y-116997440D01*
X195500000Y-116997440D01*
X195735317Y-116953162D01*
X195951441Y-116814090D01*
X196096431Y-116601890D01*
X196147440Y-116350000D01*
X196147440Y-114650000D01*
X196103162Y-114414683D01*
X196093714Y-114400000D01*
X197852560Y-114400000D01*
X197852560Y-116100000D01*
X197896838Y-116335317D01*
X198035910Y-116551441D01*
X198143397Y-116624884D01*
X198048559Y-116685910D01*
X197903569Y-116898110D01*
X197852560Y-117150000D01*
X197852560Y-118850000D01*
X197896838Y-119085317D01*
X198035910Y-119301441D01*
X198248110Y-119446431D01*
X198500000Y-119497440D01*
X200500000Y-119497440D01*
X200735317Y-119453162D01*
X200951441Y-119314090D01*
X201096431Y-119101890D01*
X201147440Y-118850000D01*
X201147440Y-118162304D01*
X201293673Y-118308792D01*
X201331602Y-118324542D01*
X201509266Y-118590434D01*
X201780159Y-118771439D01*
X201852560Y-118785841D01*
X201852560Y-118850000D01*
X201896838Y-119085317D01*
X202035910Y-119301441D01*
X202248110Y-119446431D01*
X202500000Y-119497440D01*
X204500000Y-119497440D01*
X204735317Y-119453162D01*
X204951441Y-119314090D01*
X205096431Y-119101890D01*
X205147440Y-118850000D01*
X205147440Y-117150000D01*
X205103162Y-116914683D01*
X204964090Y-116698559D01*
X204856603Y-116625116D01*
X204951441Y-116564090D01*
X205096431Y-116351890D01*
X205147440Y-116100000D01*
X205147440Y-114400000D01*
X205103162Y-114164683D01*
X204964090Y-113948559D01*
X204751890Y-113803569D01*
X204500000Y-113752560D01*
X204294305Y-113752560D01*
X204294362Y-113686733D01*
X204152317Y-113342957D01*
X203889527Y-113079708D01*
X203545999Y-112937062D01*
X203174033Y-112936738D01*
X202830257Y-113078783D01*
X202567008Y-113341573D01*
X202424362Y-113685101D01*
X202424291Y-113766806D01*
X202264683Y-113796838D01*
X202048559Y-113935910D01*
X201903569Y-114148110D01*
X201852560Y-114400000D01*
X201852560Y-116100000D01*
X201896838Y-116335317D01*
X202035910Y-116551441D01*
X202143397Y-116624884D01*
X202132121Y-116632139D01*
X202010799Y-116581762D01*
X201638833Y-116581438D01*
X201295057Y-116723483D01*
X201103219Y-116914986D01*
X201103162Y-116914683D01*
X200964090Y-116698559D01*
X200856603Y-116625116D01*
X200951441Y-116564090D01*
X201096431Y-116351890D01*
X201147440Y-116100000D01*
X201147440Y-114400000D01*
X201103162Y-114164683D01*
X200964090Y-113948559D01*
X200751890Y-113803569D01*
X200500000Y-113752560D01*
X200274310Y-113752560D01*
X200274362Y-113693433D01*
X200132317Y-113349657D01*
X199869527Y-113086408D01*
X199525999Y-112943762D01*
X199154033Y-112943438D01*
X198810257Y-113085483D01*
X198547008Y-113348273D01*
X198404362Y-113691801D01*
X198404293Y-113770568D01*
X198264683Y-113796838D01*
X198048559Y-113935910D01*
X197903569Y-114148110D01*
X197852560Y-114400000D01*
X196093714Y-114400000D01*
X195996241Y-114248523D01*
X196096431Y-114101890D01*
X196147440Y-113850000D01*
X196147440Y-112150000D01*
X196103162Y-111914683D01*
X195964090Y-111698559D01*
X195751890Y-111553569D01*
X195500000Y-111502560D01*
X193500000Y-111502560D01*
X193264683Y-111546838D01*
X193048559Y-111685910D01*
X192903569Y-111898110D01*
X192852560Y-112150000D01*
X192852560Y-113490000D01*
X192147440Y-113490000D01*
X192147440Y-112150000D01*
X192103162Y-111914683D01*
X191964090Y-111698559D01*
X191751890Y-111553569D01*
X191500000Y-111502560D01*
X191285841Y-111502560D01*
X191271439Y-111430159D01*
X191090434Y-111159266D01*
X190819541Y-110978261D01*
X190500000Y-110914700D01*
X190358215Y-110914700D01*
X190298827Y-110855208D01*
X189955299Y-110712562D01*
X189583333Y-110712238D01*
X189239557Y-110854283D01*
X188976308Y-111117073D01*
X188833662Y-111460601D01*
X188833532Y-111609353D01*
X188751890Y-111553569D01*
X188500000Y-111502560D01*
X186500000Y-111502560D01*
X186264683Y-111546838D01*
X186048559Y-111685910D01*
X185903569Y-111898110D01*
X185852560Y-112150000D01*
X185852560Y-113850000D01*
X185896838Y-114085317D01*
X186003759Y-114251477D01*
X185903569Y-114398110D01*
X185852560Y-114650000D01*
X185852560Y-116314700D01*
X185147440Y-116314700D01*
X185147440Y-114650000D01*
X185103162Y-114414683D01*
X184996241Y-114248523D01*
X185096431Y-114101890D01*
X185147440Y-113850000D01*
X185147440Y-112150000D01*
X185103162Y-111914683D01*
X184964090Y-111698559D01*
X184751890Y-111553569D01*
X184569714Y-111516677D01*
X184569762Y-111461033D01*
X184548412Y-111409363D01*
X184745592Y-111212527D01*
X184888238Y-110868999D01*
X184888562Y-110497033D01*
X184746517Y-110153257D01*
X184713400Y-110120082D01*
X184713400Y-109480213D01*
X196579392Y-109480213D01*
X196648857Y-109722397D01*
X197172302Y-109909144D01*
X197727368Y-109881362D01*
X198111143Y-109722397D01*
X198180608Y-109480213D01*
X197380000Y-108679605D01*
X196579392Y-109480213D01*
X184713400Y-109480213D01*
X184713400Y-108334838D01*
X185085167Y-108335162D01*
X185188896Y-108292302D01*
X195970856Y-108292302D01*
X195998638Y-108847368D01*
X196157603Y-109231143D01*
X196399787Y-109300608D01*
X197200395Y-108500000D01*
X196399787Y-107699392D01*
X196157603Y-107768857D01*
X195970856Y-108292302D01*
X185188896Y-108292302D01*
X185428943Y-108193117D01*
X185692192Y-107930327D01*
X185834838Y-107586799D01*
X185834879Y-107539923D01*
X185855015Y-107519787D01*
X196579392Y-107519787D01*
X197380000Y-108320395D01*
X198180608Y-107519787D01*
X198111143Y-107277603D01*
X197587698Y-107090856D01*
X197032632Y-107118638D01*
X196648857Y-107277603D01*
X196579392Y-107519787D01*
X185855015Y-107519787D01*
X187514802Y-105860000D01*
X191237537Y-105860000D01*
X191269673Y-105892192D01*
X191613201Y-106034838D01*
X191985167Y-106035162D01*
X192328943Y-105893117D01*
X192592192Y-105630327D01*
X192734838Y-105286799D01*
X192735162Y-104914833D01*
X192593117Y-104571057D01*
X192330327Y-104307808D01*
X191986799Y-104165162D01*
X191614833Y-104164838D01*
X191271057Y-104306883D01*
X191237882Y-104340000D01*
X187200000Y-104340000D01*
X186909160Y-104397852D01*
X186662599Y-104562599D01*
X185463765Y-105761433D01*
X185413727Y-105711308D01*
X185070199Y-105568662D01*
X184698233Y-105568338D01*
X184354457Y-105710383D01*
X184091208Y-105973173D01*
X183948562Y-106316701D01*
X183948521Y-106363577D01*
X183415999Y-106896099D01*
X183251252Y-107142661D01*
X183193400Y-107433500D01*
X183193400Y-110119737D01*
X183161208Y-110151873D01*
X183018562Y-110495401D01*
X183018238Y-110867367D01*
X183039588Y-110919037D01*
X182842408Y-111115873D01*
X182699762Y-111459401D01*
X182699724Y-111502560D01*
X182500000Y-111502560D01*
X182264683Y-111546838D01*
X182048559Y-111685910D01*
X181903569Y-111898110D01*
X181852560Y-112150000D01*
X180932292Y-112150000D01*
X181041476Y-111943110D01*
X180871645Y-111533076D01*
X180481358Y-111104817D01*
X179956892Y-110858514D01*
X179727000Y-110979181D01*
X179473000Y-110979181D01*
X179243108Y-110858514D01*
X178718642Y-111104817D01*
X178328355Y-111533076D01*
X178158524Y-111943110D01*
X172234963Y-111943110D01*
X172235162Y-111714833D01*
X172093117Y-111371057D01*
X172060000Y-111337882D01*
X172060000Y-111035053D01*
X172185167Y-111035162D01*
X172528943Y-110893117D01*
X172792192Y-110630327D01*
X172934838Y-110286799D01*
X172935162Y-109914833D01*
X172793117Y-109571057D01*
X172530327Y-109307808D01*
X172186799Y-109165162D01*
X171814833Y-109164838D01*
X171478578Y-109303775D01*
X171360000Y-109185198D01*
X171360000Y-108062463D01*
X171392192Y-108030327D01*
X171534838Y-107686799D01*
X171535162Y-107314833D01*
X171393117Y-106971057D01*
X171130327Y-106707808D01*
X170786799Y-106565162D01*
X170414833Y-106564838D01*
X170071057Y-106706883D01*
X169807808Y-106969673D01*
X169665162Y-107313201D01*
X169664838Y-107685167D01*
X159013169Y-107685167D01*
X156674722Y-105346720D01*
X156674762Y-105301233D01*
X156532717Y-104957457D01*
X156269927Y-104694208D01*
X155926399Y-104551562D01*
X155554433Y-104551238D01*
X155210657Y-104693283D01*
X154947408Y-104956073D01*
X154804762Y-105299601D01*
X154804644Y-105434614D01*
X154652799Y-105371562D01*
X154280833Y-105371238D01*
X153937057Y-105513283D01*
X153673808Y-105776073D01*
X153531162Y-106119601D01*
X153530838Y-106491567D01*
X153672883Y-106835343D01*
X153935673Y-107098592D01*
X154223341Y-107218043D01*
X159570919Y-112565621D01*
X159471057Y-112606883D01*
X159207808Y-112869673D01*
X159127199Y-113063800D01*
X158454463Y-113063800D01*
X158422327Y-113031608D01*
X158078799Y-112888962D01*
X157706833Y-112888638D01*
X157363057Y-113030683D01*
X157099808Y-113293473D01*
X156957162Y-113637001D01*
X156956838Y-114008967D01*
X157098883Y-114352743D01*
X157228800Y-114482887D01*
X157228800Y-117739103D01*
X156710000Y-117635907D01*
X156141715Y-117748946D01*
X156067522Y-117798520D01*
X155340133Y-117071131D01*
X155528943Y-116993117D01*
X155792192Y-116730327D01*
X155934838Y-116386799D01*
X155935162Y-116014833D01*
X155793117Y-115671057D01*
X155530327Y-115407808D01*
X155186799Y-115265162D01*
X155139923Y-115265121D01*
X153451200Y-113576398D01*
X153451200Y-110698900D01*
X153393348Y-110408061D01*
X153393348Y-110408060D01*
X153228601Y-110161499D01*
X152026287Y-108959185D01*
X152282692Y-108703227D01*
X152425338Y-108359699D01*
X152425662Y-107987733D01*
X152283617Y-107643957D01*
X152250500Y-107610782D01*
X152250500Y-104057200D01*
X152198830Y-103797440D01*
X152192648Y-103766360D01*
X152027901Y-103519799D01*
X151508522Y-103000420D01*
X151508562Y-102954933D01*
X151366517Y-102611157D01*
X151103727Y-102347908D01*
X150760199Y-102205262D01*
X150388233Y-102204938D01*
X150044457Y-102346983D01*
X149781208Y-102609773D01*
X149638562Y-102953301D01*
X149638238Y-103325267D01*
X149780283Y-103669043D01*
X150043073Y-103932292D01*
X150386601Y-104074938D01*
X150433477Y-104074979D01*
X150730500Y-104372002D01*
X150730500Y-107610437D01*
X150703996Y-107636894D01*
X144652622Y-101585520D01*
X144652662Y-101540033D01*
X144510617Y-101196257D01*
X144247827Y-100933008D01*
X143904299Y-100790362D01*
X143532333Y-100790038D01*
X143275500Y-100896159D01*
X143275500Y-100437975D01*
X143448325Y-100509738D01*
X144049040Y-100510262D01*
X144604229Y-100280862D01*
X145000318Y-99885464D01*
X145393537Y-100279370D01*
X145948325Y-100509738D01*
X146549040Y-100510262D01*
X147104229Y-100280862D01*
X147500318Y-99885464D01*
X147893537Y-100279370D01*
X148448325Y-100509738D01*
X149049040Y-100510262D01*
X149604229Y-100280862D01*
X150000318Y-99885464D01*
X150393537Y-100279370D01*
X150948325Y-100509738D01*
X151549040Y-100510262D01*
X152104229Y-100280862D01*
X152500318Y-99885464D01*
X152893537Y-100279370D01*
X153448325Y-100509738D01*
X154049040Y-100510262D01*
X154604229Y-100280862D01*
X155000318Y-99885464D01*
X155393537Y-100279370D01*
X155948325Y-100509738D01*
X156549040Y-100510262D01*
X157104229Y-100280862D01*
X157500318Y-99885464D01*
X157893537Y-100279370D01*
X158448325Y-100509738D01*
X159049040Y-100510262D01*
X159604229Y-100280862D01*
X160000318Y-99885464D01*
X160393537Y-100279370D01*
X160948325Y-100509738D01*
X161549040Y-100510262D01*
X162104229Y-100280862D01*
X162529370Y-99856463D01*
X162759738Y-99301675D01*
X162760262Y-98700960D01*
X162671098Y-98485167D01*
X176764838Y-98485167D01*
X176906883Y-98828943D01*
X177169673Y-99092192D01*
X177513201Y-99234838D01*
X177885167Y-99235162D01*
X178228943Y-99093117D01*
X178492192Y-98830327D01*
X178634838Y-98486799D01*
X178635162Y-98114833D01*
X178560000Y-97932927D01*
X178560000Y-95262463D01*
X178592192Y-95230327D01*
X178734838Y-94886799D01*
X178735162Y-94514833D01*
X178593117Y-94171057D01*
X178330327Y-93907808D01*
X177986799Y-93765162D01*
X177614833Y-93764838D01*
X177271057Y-93906883D01*
X177007808Y-94169673D01*
X176865162Y-94513201D01*
X176864838Y-94885167D01*
X177006883Y-95228943D01*
X177040000Y-95262118D01*
X177040000Y-97637711D01*
X176907808Y-97769673D01*
X176765162Y-98113201D01*
X176764838Y-98485167D01*
X162671098Y-98485167D01*
X162530862Y-98145771D01*
X162106463Y-97720630D01*
X161551675Y-97490262D01*
X160950960Y-97489738D01*
X160395771Y-97719138D01*
X159999682Y-98114536D01*
X159606463Y-97720630D01*
X159051675Y-97490262D01*
X158450960Y-97489738D01*
X157895771Y-97719138D01*
X157499682Y-98114536D01*
X157106463Y-97720630D01*
X156551675Y-97490262D01*
X155950960Y-97489738D01*
X155395771Y-97719138D01*
X154999682Y-98114536D01*
X154606463Y-97720630D01*
X154051675Y-97490262D01*
X153450960Y-97489738D01*
X152895771Y-97719138D01*
X152499682Y-98114536D01*
X152106463Y-97720630D01*
X151551675Y-97490262D01*
X150950960Y-97489738D01*
X150395771Y-97719138D01*
X149999682Y-98114536D01*
X149606463Y-97720630D01*
X149510000Y-97680575D01*
X149510000Y-87843467D01*
X150138638Y-87843467D01*
X150280683Y-88187243D01*
X150313800Y-88220418D01*
X150313800Y-90698237D01*
X150281608Y-90730373D01*
X150138962Y-91073901D01*
X150138638Y-91445867D01*
X150280683Y-91789643D01*
X150543473Y-92052892D01*
X150887001Y-92195538D01*
X151258967Y-92195862D01*
X151602743Y-92053817D01*
X151865992Y-91791027D01*
X152008638Y-91447499D01*
X152008862Y-91190000D01*
X165485907Y-91190000D01*
X165598946Y-91758285D01*
X165920853Y-92240054D01*
X166250026Y-92460000D01*
X165920853Y-92679946D01*
X165598946Y-93161715D01*
X165485907Y-93730000D01*
X165598946Y-94298285D01*
X165920853Y-94780054D01*
X166250026Y-95000000D01*
X165920853Y-95219946D01*
X165598946Y-95701715D01*
X165485907Y-96270000D01*
X165598946Y-96838285D01*
X165920853Y-97320054D01*
X166402622Y-97641961D01*
X166970907Y-97755000D01*
X167029093Y-97755000D01*
X167597378Y-97641961D01*
X168079147Y-97320054D01*
X168270000Y-97034422D01*
X168460853Y-97320054D01*
X168942622Y-97641961D01*
X169510907Y-97755000D01*
X169569093Y-97755000D01*
X170137378Y-97641961D01*
X170619147Y-97320054D01*
X170941054Y-96838285D01*
X171054093Y-96270000D01*
X170941054Y-95701715D01*
X170619147Y-95219946D01*
X170289974Y-95000000D01*
X170619147Y-94780054D01*
X170941054Y-94298285D01*
X171054093Y-93730000D01*
X170941054Y-93161715D01*
X170619147Y-92679946D01*
X170577548Y-92652150D01*
X170625317Y-92643162D01*
X170841441Y-92504090D01*
X170986431Y-92291890D01*
X171037440Y-92040000D01*
X171037440Y-90340000D01*
X170993162Y-90104683D01*
X170854090Y-89888559D01*
X170641890Y-89743569D01*
X170390000Y-89692560D01*
X168690000Y-89692560D01*
X168454683Y-89736838D01*
X168238559Y-89875910D01*
X168093569Y-90088110D01*
X168082159Y-90144454D01*
X168079147Y-90139946D01*
X167597378Y-89818039D01*
X167029093Y-89705000D01*
X166970907Y-89705000D01*
X166402622Y-89818039D01*
X165920853Y-90139946D01*
X165598946Y-90621715D01*
X165485907Y-91190000D01*
X152008862Y-91190000D01*
X152008962Y-91075533D01*
X151866917Y-90731757D01*
X151833800Y-90698582D01*
X151833800Y-88220763D01*
X151865992Y-88188627D01*
X152008638Y-87845099D01*
X152008708Y-87764187D01*
X198934752Y-87764187D01*
X199152757Y-88291800D01*
X199556077Y-88695824D01*
X200083309Y-88914750D01*
X200654187Y-88915248D01*
X201181800Y-88697243D01*
X201585824Y-88293923D01*
X201804750Y-87766691D01*
X201805248Y-87195813D01*
X201587243Y-86668200D01*
X201183923Y-86264176D01*
X200656691Y-86045250D01*
X200085813Y-86044752D01*
X199558200Y-86262757D01*
X199154176Y-86666077D01*
X198935250Y-87193309D01*
X198934752Y-87764187D01*
X152008708Y-87764187D01*
X152008962Y-87473133D01*
X151866917Y-87129357D01*
X151604127Y-86866108D01*
X151260599Y-86723462D01*
X150888633Y-86723138D01*
X150544857Y-86865183D01*
X150281608Y-87127973D01*
X150138962Y-87471501D01*
X150138638Y-87843467D01*
X149510000Y-87843467D01*
X149510000Y-86434775D01*
X193524803Y-86434775D01*
X193697233Y-86852086D01*
X194016235Y-87171645D01*
X194433244Y-87344803D01*
X194884775Y-87345197D01*
X195302086Y-87172767D01*
X195621645Y-86853765D01*
X195794803Y-86436756D01*
X195795197Y-85985225D01*
X195622767Y-85567914D01*
X195303765Y-85248355D01*
X194886756Y-85075197D01*
X194435225Y-85074803D01*
X194017914Y-85247233D01*
X193698355Y-85566235D01*
X193525197Y-85983244D01*
X193524803Y-86434775D01*
X149510000Y-86434775D01*
X149510000Y-81281602D01*
X149687401Y-81104201D01*
X149852148Y-80857640D01*
X149872525Y-80755197D01*
X149910000Y-80566800D01*
X149910000Y-72357440D01*
X150000000Y-72357440D01*
X150235317Y-72313162D01*
X150451441Y-72174090D01*
X150596431Y-71961890D01*
X150610086Y-71894459D01*
X150639946Y-71939147D01*
X150718273Y-71991483D01*
X150672852Y-72059461D01*
X150615000Y-72350300D01*
X150615000Y-76168637D01*
X150582808Y-76200773D01*
X150440162Y-76544301D01*
X150439838Y-76916267D01*
X150581883Y-77260043D01*
X150844673Y-77523292D01*
X151188201Y-77665938D01*
X151560167Y-77666262D01*
X151903943Y-77524217D01*
X152167192Y-77261427D01*
X152309838Y-76917899D01*
X152310162Y-76545933D01*
X152168117Y-76202157D01*
X152135000Y-76168982D01*
X152135000Y-72665102D01*
X152227401Y-72572701D01*
X152392148Y-72326140D01*
X152427598Y-72147923D01*
X152740054Y-71939147D01*
X152960000Y-71609974D01*
X153179946Y-71939147D01*
X153661715Y-72261054D01*
X154230000Y-72374093D01*
X154798285Y-72261054D01*
X155280054Y-71939147D01*
X155500000Y-71609974D01*
X155719946Y-71939147D01*
X156201715Y-72261054D01*
X156770000Y-72374093D01*
X157338285Y-72261054D01*
X157820054Y-71939147D01*
X158040000Y-71609974D01*
X158259946Y-71939147D01*
X158741715Y-72261054D01*
X159310000Y-72374093D01*
X159420107Y-72352191D01*
X158066920Y-73705378D01*
X158021433Y-73705338D01*
X157677657Y-73847383D01*
X157414408Y-74110173D01*
X157271762Y-74453701D01*
X157271438Y-74825667D01*
X157413483Y-75169443D01*
X157676273Y-75432692D01*
X158019801Y-75575338D01*
X158391767Y-75575662D01*
X158735543Y-75433617D01*
X158998792Y-75170827D01*
X159141438Y-74827299D01*
X159141479Y-74780423D01*
X160485802Y-73436100D01*
X163207506Y-73436100D01*
X163200862Y-73452101D01*
X163200538Y-73824067D01*
X163342583Y-74167843D01*
X163605373Y-74431092D01*
X163948901Y-74573738D01*
X163995777Y-74573779D01*
X167448300Y-78026302D01*
X167448300Y-79236937D01*
X167416108Y-79269073D01*
X167273462Y-79612601D01*
X167273138Y-79984567D01*
X167350923Y-80172821D01*
X166292001Y-79113899D01*
X166045439Y-78949152D01*
X165754600Y-78891300D01*
X161488102Y-78891300D01*
X159319301Y-76722499D01*
X159072739Y-76557752D01*
X158781900Y-76499900D01*
X158359963Y-76499900D01*
X158327827Y-76467708D01*
X157984299Y-76325062D01*
X157612333Y-76324738D01*
X157268557Y-76466783D01*
X157005308Y-76729573D01*
X156862662Y-77073101D01*
X156862338Y-77445067D01*
X157004383Y-77788843D01*
X157267173Y-78052092D01*
X157312949Y-78071100D01*
X157312638Y-78427667D01*
X157454683Y-78771443D01*
X157717473Y-79034692D01*
X158061001Y-79177338D01*
X158107877Y-79177379D01*
X159629398Y-80698900D01*
X158627734Y-80698900D01*
X158387299Y-80599062D01*
X158015333Y-80598738D01*
X157671557Y-80740783D01*
X157408308Y-81003573D01*
X157265662Y-81347101D01*
X157265338Y-81719067D01*
X157357566Y-81942277D01*
X157313333Y-81942238D01*
X156969557Y-82084283D01*
X156706308Y-82347073D01*
X156563662Y-82690601D01*
X156563338Y-83062567D01*
X156705383Y-83406343D01*
X156968173Y-83669592D01*
X157311701Y-83812238D01*
X157683667Y-83812562D01*
X158027443Y-83670517D01*
X158060618Y-83637400D01*
X159792237Y-83637400D01*
X159824373Y-83669592D01*
X160167901Y-83812238D01*
X160539867Y-83812562D01*
X160883643Y-83670517D01*
X161146892Y-83407727D01*
X161289538Y-83064199D01*
X161289862Y-82692233D01*
X161156264Y-82368900D01*
X163665766Y-82368900D01*
X163906201Y-82468738D01*
X164278167Y-82469062D01*
X164621943Y-82327017D01*
X164885192Y-82064227D01*
X165027838Y-81720699D01*
X165028100Y-81420000D01*
X165122198Y-81420000D01*
X167680799Y-83978601D01*
X167927361Y-84143348D01*
X168218200Y-84201200D01*
X168872237Y-84201200D01*
X168904373Y-84233392D01*
X169247901Y-84376038D01*
X169619867Y-84376362D01*
X169963643Y-84234317D01*
X170053341Y-84144775D01*
X193524803Y-84144775D01*
X193697233Y-84562086D01*
X194016235Y-84881645D01*
X194433244Y-85054803D01*
X194884775Y-85055197D01*
X195302086Y-84882767D01*
X195621645Y-84563765D01*
X195794803Y-84146756D01*
X195795197Y-83695225D01*
X195622767Y-83277914D01*
X195303765Y-82958355D01*
X194886756Y-82785197D01*
X194435225Y-82784803D01*
X194017914Y-82957233D01*
X193698355Y-83276235D01*
X193525197Y-83693244D01*
X193524803Y-84144775D01*
X170053341Y-84144775D01*
X170226892Y-83971527D01*
X170369538Y-83627999D01*
X170369862Y-83256033D01*
X170227817Y-82912257D01*
X170017447Y-82701519D01*
X170160243Y-82642517D01*
X170423492Y-82379727D01*
X170566138Y-82036199D01*
X170566462Y-81664233D01*
X170424417Y-81320457D01*
X170161627Y-81057208D01*
X169818099Y-80914562D01*
X169446133Y-80914238D01*
X169102357Y-81056283D01*
X169069182Y-81089400D01*
X168267502Y-81089400D01*
X167834825Y-80656723D01*
X168021501Y-80734238D01*
X168393467Y-80734562D01*
X168737243Y-80592517D01*
X169000492Y-80329727D01*
X169143138Y-79986199D01*
X169143462Y-79614233D01*
X169001417Y-79270457D01*
X168968300Y-79237282D01*
X168968300Y-77711500D01*
X168910448Y-77420661D01*
X168745701Y-77174099D01*
X167304569Y-75732967D01*
X171189938Y-75732967D01*
X171290100Y-75975378D01*
X171290100Y-78064566D01*
X171190262Y-78305001D01*
X171189938Y-78676967D01*
X171331983Y-79020743D01*
X171594773Y-79283992D01*
X171938301Y-79426638D01*
X172310267Y-79426962D01*
X172654043Y-79284917D01*
X172917292Y-79022127D01*
X173059938Y-78678599D01*
X173060262Y-78306633D01*
X172960100Y-78064222D01*
X172960100Y-77044775D01*
X198344803Y-77044775D01*
X198517233Y-77462086D01*
X198836235Y-77781645D01*
X198964528Y-77834917D01*
X198837914Y-77887233D01*
X198518355Y-78206235D01*
X198345197Y-78623244D01*
X198344803Y-79074775D01*
X198517233Y-79492086D01*
X198836235Y-79811645D01*
X198964528Y-79864917D01*
X198837914Y-79917233D01*
X198518355Y-80236235D01*
X198345197Y-80653244D01*
X198344803Y-81104775D01*
X198517233Y-81522086D01*
X198836235Y-81841645D01*
X198964528Y-81894917D01*
X198837914Y-81947233D01*
X198518355Y-82266235D01*
X198345197Y-82683244D01*
X198344803Y-83134775D01*
X198517233Y-83552086D01*
X198836235Y-83871645D01*
X199253244Y-84044803D01*
X199704775Y-84045197D01*
X200122086Y-83872767D01*
X200441645Y-83553765D01*
X200614803Y-83136756D01*
X200615053Y-82850461D01*
X200616235Y-82851645D01*
X201033244Y-83024803D01*
X201484775Y-83025197D01*
X201902086Y-82852767D01*
X202221645Y-82533765D01*
X202394803Y-82116756D01*
X202395197Y-81665225D01*
X202222767Y-81247914D01*
X201903765Y-80928355D01*
X201775472Y-80875083D01*
X201902086Y-80822767D01*
X202221645Y-80503765D01*
X202394803Y-80086756D01*
X202395197Y-79635225D01*
X202222767Y-79217914D01*
X201903765Y-78898355D01*
X201775472Y-78845083D01*
X201902086Y-78792767D01*
X202221645Y-78473765D01*
X202394803Y-78056756D01*
X202395197Y-77605225D01*
X202222767Y-77187914D01*
X201903765Y-76868355D01*
X201775472Y-76815083D01*
X201902086Y-76762767D01*
X202221645Y-76443765D01*
X202394803Y-76026756D01*
X202395197Y-75575225D01*
X202222767Y-75157914D01*
X201903765Y-74838355D01*
X201486756Y-74665197D01*
X201035225Y-74664803D01*
X200617914Y-74837233D01*
X200298355Y-75156235D01*
X200125197Y-75573244D01*
X200124947Y-75859539D01*
X200123765Y-75858355D01*
X199706756Y-75685197D01*
X199255225Y-75684803D01*
X198837914Y-75857233D01*
X198518355Y-76176235D01*
X198345197Y-76593244D01*
X198344803Y-77044775D01*
X172960100Y-77044775D01*
X172960100Y-75975034D01*
X173059938Y-75734599D01*
X173060262Y-75362633D01*
X172918217Y-75018857D01*
X172904160Y-75004775D01*
X193524803Y-75004775D01*
X193697233Y-75422086D01*
X194016235Y-75741645D01*
X194433244Y-75914803D01*
X194884775Y-75915197D01*
X195302086Y-75742767D01*
X195621645Y-75423765D01*
X195794803Y-75006756D01*
X195795197Y-74555225D01*
X195622767Y-74137914D01*
X195303765Y-73818355D01*
X194886756Y-73645197D01*
X194435225Y-73644803D01*
X194017914Y-73817233D01*
X193698355Y-74136235D01*
X193525197Y-74553244D01*
X193524803Y-75004775D01*
X172904160Y-75004775D01*
X172655427Y-74755608D01*
X172311899Y-74612962D01*
X171939933Y-74612638D01*
X171596157Y-74754683D01*
X171332908Y-75017473D01*
X171190262Y-75361001D01*
X171189938Y-75732967D01*
X167304569Y-75732967D01*
X165070822Y-73499220D01*
X165070862Y-73453733D01*
X165063576Y-73436100D01*
X177420700Y-73436100D01*
X177711539Y-73378248D01*
X177958101Y-73213501D01*
X178351280Y-72820322D01*
X178396767Y-72820362D01*
X178652307Y-72714775D01*
X193524803Y-72714775D01*
X193697233Y-73132086D01*
X194016235Y-73451645D01*
X194433244Y-73624803D01*
X194884775Y-73625197D01*
X195302086Y-73452767D01*
X195621645Y-73133765D01*
X195794803Y-72716756D01*
X195795197Y-72265225D01*
X195622767Y-71847914D01*
X195303765Y-71528355D01*
X194886756Y-71355197D01*
X194435225Y-71354803D01*
X194017914Y-71527233D01*
X193698355Y-71846235D01*
X193525197Y-72263244D01*
X193524803Y-72714775D01*
X178652307Y-72714775D01*
X178740543Y-72678317D01*
X179003792Y-72415527D01*
X179071317Y-72252910D01*
X179580000Y-72354093D01*
X180148285Y-72241054D01*
X180630054Y-71919147D01*
X180850000Y-71589974D01*
X181069946Y-71919147D01*
X181551715Y-72241054D01*
X182120000Y-72354093D01*
X182688285Y-72241054D01*
X183170054Y-71919147D01*
X183390000Y-71589974D01*
X183609946Y-71919147D01*
X184091715Y-72241054D01*
X184660000Y-72354093D01*
X185228285Y-72241054D01*
X185710054Y-71919147D01*
X185930000Y-71589974D01*
X186149946Y-71919147D01*
X186631715Y-72241054D01*
X187200000Y-72354093D01*
X187768285Y-72241054D01*
X188250054Y-71919147D01*
X188470000Y-71589974D01*
X188689946Y-71919147D01*
X189171715Y-72241054D01*
X189740000Y-72354093D01*
X190308285Y-72241054D01*
X190790054Y-71919147D01*
X191111961Y-71437378D01*
X191225000Y-70869093D01*
X191225000Y-70810907D01*
X191111961Y-70242622D01*
X190790054Y-69760853D01*
X190308285Y-69438946D01*
X189740000Y-69325907D01*
X189171715Y-69438946D01*
X188689946Y-69760853D01*
X188470000Y-70090026D01*
X188250054Y-69760853D01*
X187768285Y-69438946D01*
X187200000Y-69325907D01*
X186631715Y-69438946D01*
X186149946Y-69760853D01*
X185930000Y-70090026D01*
X185710054Y-69760853D01*
X185228285Y-69438946D01*
X184660000Y-69325907D01*
X184091715Y-69438946D01*
X183609946Y-69760853D01*
X183390000Y-70090026D01*
X183170054Y-69760853D01*
X182688285Y-69438946D01*
X182120000Y-69325907D01*
X181551715Y-69438946D01*
X181069946Y-69760853D01*
X180850000Y-70090026D01*
X180630054Y-69760853D01*
X180148285Y-69438946D01*
X179580000Y-69325907D01*
X179011715Y-69438946D01*
X178529946Y-69760853D01*
X178310000Y-70090026D01*
X178090054Y-69760853D01*
X177608285Y-69438946D01*
X177040000Y-69325907D01*
X176471715Y-69438946D01*
X175989946Y-69760853D01*
X175770000Y-70090026D01*
X175550054Y-69760853D01*
X175068285Y-69438946D01*
X174500000Y-69325907D01*
X173931715Y-69438946D01*
X173449946Y-69760853D01*
X173422150Y-69802452D01*
X173413162Y-69754683D01*
X173274090Y-69538559D01*
X173061890Y-69393569D01*
X172810000Y-69342560D01*
X171110000Y-69342560D01*
X170874683Y-69386838D01*
X170658559Y-69525910D01*
X170513569Y-69738110D01*
X170462560Y-69990000D01*
X170462560Y-71690000D01*
X170505104Y-71916100D01*
X167995453Y-71916100D01*
X168301961Y-71457378D01*
X168415000Y-70889093D01*
X168415000Y-70830907D01*
X168301961Y-70262622D01*
X167980054Y-69780853D01*
X167498285Y-69458946D01*
X166930000Y-69345907D01*
X166361715Y-69458946D01*
X165879946Y-69780853D01*
X165660000Y-70110026D01*
X165440054Y-69780853D01*
X164958285Y-69458946D01*
X164390000Y-69345907D01*
X163821715Y-69458946D01*
X163339946Y-69780853D01*
X163120000Y-70110026D01*
X162900054Y-69780853D01*
X162418285Y-69458946D01*
X161850000Y-69345907D01*
X161281715Y-69458946D01*
X160799946Y-69780853D01*
X160580000Y-70110026D01*
X160360054Y-69780853D01*
X159878285Y-69458946D01*
X159310000Y-69345907D01*
X158741715Y-69458946D01*
X158259946Y-69780853D01*
X158040000Y-70110026D01*
X157820054Y-69780853D01*
X157338285Y-69458946D01*
X156770000Y-69345907D01*
X156201715Y-69458946D01*
X155719946Y-69780853D01*
X155500000Y-70110026D01*
X155280054Y-69780853D01*
X154798285Y-69458946D01*
X154230000Y-69345907D01*
X153661715Y-69458946D01*
X153179946Y-69780853D01*
X152960000Y-70110026D01*
X152740054Y-69780853D01*
X152258285Y-69458946D01*
X151690000Y-69345907D01*
X151121715Y-69458946D01*
X150639946Y-69780853D01*
X150612150Y-69822452D01*
X150603162Y-69774683D01*
X150464090Y-69558559D01*
X150251890Y-69413569D01*
X150000000Y-69362560D01*
X148300000Y-69362560D01*
X148064683Y-69406838D01*
X147848559Y-69545910D01*
X147703569Y-69758110D01*
X147652560Y-70010000D01*
X147652560Y-71710000D01*
X147696838Y-71945317D01*
X147835910Y-72161441D01*
X148048110Y-72306431D01*
X148300000Y-72357440D01*
X148390000Y-72357440D01*
X148390000Y-80251998D01*
X148212599Y-80429399D01*
X148047852Y-80675961D01*
X147990000Y-80966800D01*
X147990000Y-97680203D01*
X147895771Y-97719138D01*
X147499682Y-98114536D01*
X147106463Y-97720630D01*
X146551675Y-97490262D01*
X145950960Y-97489738D01*
X145395771Y-97719138D01*
X144999682Y-98114536D01*
X144755400Y-97869827D01*
X144755400Y-73510700D01*
X144697548Y-73219861D01*
X144697548Y-73219860D01*
X144532801Y-72973299D01*
X143547250Y-71987748D01*
X143590054Y-71959147D01*
X143810000Y-71629974D01*
X144029946Y-71959147D01*
X144511715Y-72281054D01*
X145080000Y-72394093D01*
X145648285Y-72281054D01*
X146130054Y-71959147D01*
X146451961Y-71477378D01*
X146565000Y-70909093D01*
X146565000Y-70850907D01*
X146451961Y-70282622D01*
X146130054Y-69800853D01*
X145648285Y-69478946D01*
X145080000Y-69365907D01*
X144511715Y-69478946D01*
X144029946Y-69800853D01*
X143810000Y-70130026D01*
X143590054Y-69800853D01*
X143108285Y-69478946D01*
X142540000Y-69365907D01*
X141971715Y-69478946D01*
X141489946Y-69800853D01*
X141270000Y-70130026D01*
X141050054Y-69800853D01*
X140568285Y-69478946D01*
X140000000Y-69365907D01*
X139431715Y-69478946D01*
X138949946Y-69800853D01*
X138730000Y-70130026D01*
X138510054Y-69800853D01*
X138028285Y-69478946D01*
X137460000Y-69365907D01*
X136891715Y-69478946D01*
X136409946Y-69800853D01*
X136190000Y-70130026D01*
X135970054Y-69800853D01*
X135488285Y-69478946D01*
X134920000Y-69365907D01*
X134351715Y-69478946D01*
X133869946Y-69800853D01*
X133650000Y-70130026D01*
X133430054Y-69800853D01*
X132948285Y-69478946D01*
X132380000Y-69365907D01*
X131811715Y-69478946D01*
X131329946Y-69800853D01*
X131110000Y-70130026D01*
X130890054Y-69800853D01*
X130408285Y-69478946D01*
X129840000Y-69365907D01*
X129271715Y-69478946D01*
X128789946Y-69800853D01*
X128570000Y-70130026D01*
X128350054Y-69800853D01*
X127868285Y-69478946D01*
X127300000Y-69365907D01*
X126731715Y-69478946D01*
X126249946Y-69800853D01*
X126030000Y-70130026D01*
X125810054Y-69800853D01*
X125328285Y-69478946D01*
X124760000Y-69365907D01*
X124191715Y-69478946D01*
X123709946Y-69800853D01*
X123682150Y-69842452D01*
X123673162Y-69794683D01*
X123534090Y-69578559D01*
X123321890Y-69433569D01*
X123070000Y-69382560D01*
X121370000Y-69382560D01*
X121134683Y-69426838D01*
X120918559Y-69565910D01*
X120773569Y-69778110D01*
X120722560Y-70030000D01*
X107210000Y-70030000D01*
X107210000Y-69310000D01*
X205790000Y-69310000D01*
X205790000Y-70878033D01*
G36*
X192852560Y-116350000D02*
X192896838Y-116585317D01*
X193035910Y-116801441D01*
X193248110Y-116946431D01*
X193500000Y-116997440D01*
X193740000Y-116997440D01*
X193740000Y-117509898D01*
X192212599Y-119037299D01*
X192047852Y-119283861D01*
X192042421Y-119311163D01*
X191848559Y-119435910D01*
X191703569Y-119648110D01*
X191652560Y-119900000D01*
X191652560Y-120700000D01*
X191696838Y-120935317D01*
X191835910Y-121151441D01*
X191981083Y-121250633D01*
X191848559Y-121335910D01*
X191703569Y-121548110D01*
X191652560Y-121800000D01*
X191652560Y-122600000D01*
X191696838Y-122835317D01*
X191835910Y-123051441D01*
X191919147Y-123108314D01*
X191814975Y-123175346D01*
X191738327Y-122990301D01*
X191559698Y-122811673D01*
X191326309Y-122715000D01*
X191035750Y-122715000D01*
X190877000Y-122873750D01*
X190877000Y-123623000D01*
X190897000Y-123623000D01*
X190897000Y-123877000D01*
X190877000Y-123877000D01*
X190877000Y-123897000D01*
X190623000Y-123897000D01*
X190623000Y-123877000D01*
X189823750Y-123877000D01*
X189760750Y-123940000D01*
X189722931Y-123940000D01*
X189664090Y-123848559D01*
X189518917Y-123749367D01*
X189651441Y-123664090D01*
X189738064Y-123537314D01*
X189823750Y-123623000D01*
X190623000Y-123623000D01*
X190623000Y-122873750D01*
X190464250Y-122715000D01*
X190173691Y-122715000D01*
X189940302Y-122811673D01*
X189847440Y-122904534D01*
X189847440Y-122400000D01*
X189803162Y-122164683D01*
X189664090Y-121948559D01*
X189451890Y-121803569D01*
X189200000Y-121752560D01*
X188300000Y-121752560D01*
X188064683Y-121796838D01*
X187848559Y-121935910D01*
X187703569Y-122148110D01*
X187652560Y-122400000D01*
X187652560Y-122997938D01*
X187321271Y-123329227D01*
X187347440Y-123200000D01*
X187347440Y-122400000D01*
X187303162Y-122164683D01*
X187164090Y-121948559D01*
X186951890Y-121803569D01*
X186700000Y-121752560D01*
X185800000Y-121752560D01*
X185564683Y-121796838D01*
X185348559Y-121935910D01*
X185203569Y-122148110D01*
X185152560Y-122400000D01*
X185152560Y-122890681D01*
X185085000Y-122844519D01*
X185085000Y-120621450D01*
X185093401Y-120624938D01*
X185443923Y-120625243D01*
X185548110Y-120696431D01*
X185800000Y-120747440D01*
X186700000Y-120747440D01*
X186935317Y-120703162D01*
X187151441Y-120564090D01*
X187296431Y-120351890D01*
X187347440Y-120100000D01*
X187347440Y-119565062D01*
X187662732Y-119249770D01*
X187652560Y-119300000D01*
X187652560Y-120100000D01*
X187696838Y-120335317D01*
X187835910Y-120551441D01*
X188048110Y-120696431D01*
X188300000Y-120747440D01*
X189200000Y-120747440D01*
X189435317Y-120703162D01*
X189651441Y-120564090D01*
X189796431Y-120351890D01*
X189847440Y-120100000D01*
X189847440Y-119595466D01*
X189940302Y-119688327D01*
X190173691Y-119785000D01*
X190464250Y-119785000D01*
X190623000Y-119626250D01*
X190623000Y-118877000D01*
X190877000Y-118877000D01*
X190877000Y-119626250D01*
X191035750Y-119785000D01*
X191326309Y-119785000D01*
X191559698Y-119688327D01*
X191738327Y-119509699D01*
X191835000Y-119276310D01*
X191835000Y-119035750D01*
X191676250Y-118877000D01*
X190877000Y-118877000D01*
X190623000Y-118877000D01*
X190603000Y-118877000D01*
X190603000Y-118623000D01*
X190623000Y-118623000D01*
X190623000Y-118603000D01*
X190877000Y-118603000D01*
X190877000Y-118623000D01*
X191676250Y-118623000D01*
X191835000Y-118464250D01*
X191835000Y-118223690D01*
X191738327Y-117990301D01*
X191559698Y-117811673D01*
X191326309Y-117715000D01*
X191190013Y-117715000D01*
X191202148Y-117696839D01*
X191260000Y-117406000D01*
X191260000Y-116997440D01*
X191500000Y-116997440D01*
X191735317Y-116953162D01*
X191951441Y-116814090D01*
X192096431Y-116601890D01*
X192147440Y-116350000D01*
X192147440Y-115010000D01*
X192852560Y-115010000D01*
X192852560Y-116350000D01*
X192852560Y-116350000D01*
G37*
X192852560Y-116350000D02*
X192896838Y-116585317D01*
X193035910Y-116801441D01*
X193248110Y-116946431D01*
X193500000Y-116997440D01*
X193740000Y-116997440D01*
X193740000Y-117509898D01*
X192212599Y-119037299D01*
X192047852Y-119283861D01*
X192042421Y-119311163D01*
X191848559Y-119435910D01*
X191703569Y-119648110D01*
X191652560Y-119900000D01*
X191652560Y-120700000D01*
X191696838Y-120935317D01*
X191835910Y-121151441D01*
X191981083Y-121250633D01*
X191848559Y-121335910D01*
X191703569Y-121548110D01*
X191652560Y-121800000D01*
X191652560Y-122600000D01*
X191696838Y-122835317D01*
X191835910Y-123051441D01*
X191919147Y-123108314D01*
X191814975Y-123175346D01*
X191738327Y-122990301D01*
X191559698Y-122811673D01*
X191326309Y-122715000D01*
X191035750Y-122715000D01*
X190877000Y-122873750D01*
X190877000Y-123623000D01*
X190897000Y-123623000D01*
X190897000Y-123877000D01*
X190877000Y-123877000D01*
X190877000Y-123897000D01*
X190623000Y-123897000D01*
X190623000Y-123877000D01*
X189823750Y-123877000D01*
X189760750Y-123940000D01*
X189722931Y-123940000D01*
X189664090Y-123848559D01*
X189518917Y-123749367D01*
X189651441Y-123664090D01*
X189738064Y-123537314D01*
X189823750Y-123623000D01*
X190623000Y-123623000D01*
X190623000Y-122873750D01*
X190464250Y-122715000D01*
X190173691Y-122715000D01*
X189940302Y-122811673D01*
X189847440Y-122904534D01*
X189847440Y-122400000D01*
X189803162Y-122164683D01*
X189664090Y-121948559D01*
X189451890Y-121803569D01*
X189200000Y-121752560D01*
X188300000Y-121752560D01*
X188064683Y-121796838D01*
X187848559Y-121935910D01*
X187703569Y-122148110D01*
X187652560Y-122400000D01*
X187652560Y-122997938D01*
X187321271Y-123329227D01*
X187347440Y-123200000D01*
X187347440Y-122400000D01*
X187303162Y-122164683D01*
X187164090Y-121948559D01*
X186951890Y-121803569D01*
X186700000Y-121752560D01*
X185800000Y-121752560D01*
X185564683Y-121796838D01*
X185348559Y-121935910D01*
X185203569Y-122148110D01*
X185152560Y-122400000D01*
X185152560Y-122890681D01*
X185085000Y-122844519D01*
X185085000Y-120621450D01*
X185093401Y-120624938D01*
X185443923Y-120625243D01*
X185548110Y-120696431D01*
X185800000Y-120747440D01*
X186700000Y-120747440D01*
X186935317Y-120703162D01*
X187151441Y-120564090D01*
X187296431Y-120351890D01*
X187347440Y-120100000D01*
X187347440Y-119565062D01*
X187662732Y-119249770D01*
X187652560Y-119300000D01*
X187652560Y-120100000D01*
X187696838Y-120335317D01*
X187835910Y-120551441D01*
X188048110Y-120696431D01*
X188300000Y-120747440D01*
X189200000Y-120747440D01*
X189435317Y-120703162D01*
X189651441Y-120564090D01*
X189796431Y-120351890D01*
X189847440Y-120100000D01*
X189847440Y-119595466D01*
X189940302Y-119688327D01*
X190173691Y-119785000D01*
X190464250Y-119785000D01*
X190623000Y-119626250D01*
X190623000Y-118877000D01*
X190877000Y-118877000D01*
X190877000Y-119626250D01*
X191035750Y-119785000D01*
X191326309Y-119785000D01*
X191559698Y-119688327D01*
X191738327Y-119509699D01*
X191835000Y-119276310D01*
X191835000Y-119035750D01*
X191676250Y-118877000D01*
X190877000Y-118877000D01*
X190623000Y-118877000D01*
X190603000Y-118877000D01*
X190603000Y-118623000D01*
X190623000Y-118623000D01*
X190623000Y-118603000D01*
X190877000Y-118603000D01*
X190877000Y-118623000D01*
X191676250Y-118623000D01*
X191835000Y-118464250D01*
X191835000Y-118223690D01*
X191738327Y-117990301D01*
X191559698Y-117811673D01*
X191326309Y-117715000D01*
X191190013Y-117715000D01*
X191202148Y-117696839D01*
X191260000Y-117406000D01*
X191260000Y-116997440D01*
X191500000Y-116997440D01*
X191735317Y-116953162D01*
X191951441Y-116814090D01*
X192096431Y-116601890D01*
X192147440Y-116350000D01*
X192147440Y-115010000D01*
X192852560Y-115010000D01*
X192852560Y-116350000D01*
G36*
X141489946Y-71959147D02*
X141802402Y-72167923D01*
X141837852Y-72346139D01*
X142002599Y-72592701D01*
X143235400Y-73825502D01*
X143235400Y-74182758D01*
X143176890Y-74158524D01*
X142947000Y-74279845D01*
X142947000Y-75473000D01*
X142967000Y-75473000D01*
X142967000Y-75727000D01*
X142947000Y-75727000D01*
X142947000Y-76920155D01*
X143176890Y-77041476D01*
X143235400Y-77017242D01*
X143235400Y-79002560D01*
X142876429Y-79002560D01*
X142876462Y-78964333D01*
X142734417Y-78620557D01*
X142471627Y-78357308D01*
X142128099Y-78214662D01*
X141756133Y-78214338D01*
X141412357Y-78356383D01*
X141149108Y-78619173D01*
X141006462Y-78962701D01*
X141006421Y-79009577D01*
X140917999Y-79097999D01*
X140889871Y-79140096D01*
X140828285Y-79098946D01*
X140260000Y-78985907D01*
X140172284Y-79003355D01*
X140065517Y-78744957D01*
X139802727Y-78481708D01*
X139459199Y-78339062D01*
X139087233Y-78338738D01*
X138743457Y-78480783D01*
X138480208Y-78743573D01*
X138337562Y-79087101D01*
X138337523Y-79131846D01*
X138288285Y-79098946D01*
X137720000Y-78985907D01*
X137151715Y-79098946D01*
X136669946Y-79420853D01*
X136442298Y-79761553D01*
X136375183Y-79618642D01*
X135946924Y-79228355D01*
X135536890Y-79058524D01*
X135307002Y-79179844D01*
X135307002Y-79026000D01*
X136912801Y-77420201D01*
X137077548Y-77173640D01*
X137118898Y-76965763D01*
X137171715Y-77001054D01*
X137740000Y-77114093D01*
X138308285Y-77001054D01*
X138790054Y-76679147D01*
X139010000Y-76349974D01*
X139229946Y-76679147D01*
X139711715Y-77001054D01*
X140280000Y-77114093D01*
X140848285Y-77001054D01*
X141330054Y-76679147D01*
X141557702Y-76338447D01*
X141624817Y-76481358D01*
X142053076Y-76871645D01*
X142463110Y-77041476D01*
X142693000Y-76920155D01*
X142693000Y-75727000D01*
X142673000Y-75727000D01*
X142673000Y-75473000D01*
X142693000Y-75473000D01*
X142693000Y-74279845D01*
X142463110Y-74158524D01*
X142053076Y-74328355D01*
X141624817Y-74718642D01*
X141557702Y-74861553D01*
X141330054Y-74520853D01*
X140848285Y-74198946D01*
X140280000Y-74085907D01*
X139711715Y-74198946D01*
X139229946Y-74520853D01*
X139010000Y-74850026D01*
X138790054Y-74520853D01*
X138308285Y-74198946D01*
X137740000Y-74085907D01*
X137171715Y-74198946D01*
X137135400Y-74223211D01*
X137135400Y-73454702D01*
X137997401Y-72592701D01*
X138162148Y-72346139D01*
X138197598Y-72167923D01*
X138510054Y-71959147D01*
X138730000Y-71629974D01*
X138949946Y-71959147D01*
X139431715Y-72281054D01*
X140000000Y-72394093D01*
X140568285Y-72281054D01*
X141050054Y-71959147D01*
X141270000Y-71629974D01*
X141489946Y-71959147D01*
X141489946Y-71959147D01*
G37*
X141489946Y-71959147D02*
X141802402Y-72167923D01*
X141837852Y-72346139D01*
X142002599Y-72592701D01*
X143235400Y-73825502D01*
X143235400Y-74182758D01*
X143176890Y-74158524D01*
X142947000Y-74279845D01*
X142947000Y-75473000D01*
X142967000Y-75473000D01*
X142967000Y-75727000D01*
X142947000Y-75727000D01*
X142947000Y-76920155D01*
X143176890Y-77041476D01*
X143235400Y-77017242D01*
X143235400Y-79002560D01*
X142876429Y-79002560D01*
X142876462Y-78964333D01*
X142734417Y-78620557D01*
X142471627Y-78357308D01*
X142128099Y-78214662D01*
X141756133Y-78214338D01*
X141412357Y-78356383D01*
X141149108Y-78619173D01*
X141006462Y-78962701D01*
X141006421Y-79009577D01*
X140917999Y-79097999D01*
X140889871Y-79140096D01*
X140828285Y-79098946D01*
X140260000Y-78985907D01*
X140172284Y-79003355D01*
X140065517Y-78744957D01*
X139802727Y-78481708D01*
X139459199Y-78339062D01*
X139087233Y-78338738D01*
X138743457Y-78480783D01*
X138480208Y-78743573D01*
X138337562Y-79087101D01*
X138337523Y-79131846D01*
X138288285Y-79098946D01*
X137720000Y-78985907D01*
X137151715Y-79098946D01*
X136669946Y-79420853D01*
X136442298Y-79761553D01*
X136375183Y-79618642D01*
X135946924Y-79228355D01*
X135536890Y-79058524D01*
X135307002Y-79179844D01*
X135307002Y-79026000D01*
X136912801Y-77420201D01*
X137077548Y-77173640D01*
X137118898Y-76965763D01*
X137171715Y-77001054D01*
X137740000Y-77114093D01*
X138308285Y-77001054D01*
X138790054Y-76679147D01*
X139010000Y-76349974D01*
X139229946Y-76679147D01*
X139711715Y-77001054D01*
X140280000Y-77114093D01*
X140848285Y-77001054D01*
X141330054Y-76679147D01*
X141557702Y-76338447D01*
X141624817Y-76481358D01*
X142053076Y-76871645D01*
X142463110Y-77041476D01*
X142693000Y-76920155D01*
X142693000Y-75727000D01*
X142673000Y-75727000D01*
X142673000Y-75473000D01*
X142693000Y-75473000D01*
X142693000Y-74279845D01*
X142463110Y-74158524D01*
X142053076Y-74328355D01*
X141624817Y-74718642D01*
X141557702Y-74861553D01*
X141330054Y-74520853D01*
X140848285Y-74198946D01*
X140280000Y-74085907D01*
X139711715Y-74198946D01*
X139229946Y-74520853D01*
X139010000Y-74850026D01*
X138790054Y-74520853D01*
X138308285Y-74198946D01*
X137740000Y-74085907D01*
X137171715Y-74198946D01*
X137135400Y-74223211D01*
X137135400Y-73454702D01*
X137997401Y-72592701D01*
X138162148Y-72346139D01*
X138197598Y-72167923D01*
X138510054Y-71959147D01*
X138730000Y-71629974D01*
X138949946Y-71959147D01*
X139431715Y-72281054D01*
X140000000Y-72394093D01*
X140568285Y-72281054D01*
X141050054Y-71959147D01*
X141270000Y-71629974D01*
X141489946Y-71959147D01*
M02*
