M48
;DRILL file {KiCad 4.0.5} date 03/19/18 20:57:18
;FORMAT={3:3/ absolute / metric / suppress leading zeros}
FMAT,2
METRIC,TZ
T1C0.400
T2C0.762
T3C1.000
T4C0.762
%
G90
G05
M71
T1
X107364Y-114075
X109706Y-126493
X110400Y-70400
X112899Y-88287
X115643Y-115406
X115740Y-88287
X117025Y-112550
X117042Y-109367
X118617Y-78867
X118794Y-90833
X118875Y-73966
X124416Y-84467
X128200Y-90889
X128514Y-79224
X128580Y-111830
X128622Y-105855
X130873Y-79030
X131535Y-126685
X131724Y-85774
X131944Y-80692
X133129Y-77820
X133321Y-82093
X136416Y-120845
X136900Y-123413
X138945Y-87741
X139272Y-79274
X140828Y-103634
X141279Y-92903
X141921Y-83025
X141941Y-79150
X142516Y-98250
X143718Y-101725
X145874Y-94152
X147400Y-79100
X149600Y-92766
X150341Y-109511
X150573Y-103140
X151074Y-87658
X151074Y-91261
X151375Y-76731
X151491Y-108173
X152700Y-82800
X154466Y-106306
X154820Y-81399
X155000Y-111700
X155000Y-114700
X155000Y-116200
X155100Y-108600
X155740Y-105486
X156900Y-78200
X157499Y-82877
X157760Y-126838
X157798Y-77260
X157892Y-113824
X157989Y-121400
X158201Y-81534
X158207Y-74641
X158248Y-78243
X158700Y-116300
X158800Y-101300
X159800Y-106200
X160000Y-113400
X160355Y-82877
X161500Y-93805
X161758Y-113678
X161913Y-89156
X162700Y-110200
X163100Y-101300
X163109Y-116821
X164089Y-77328
X164093Y-81534
X164136Y-73639
X164427Y-85377
X165400Y-109300
X167200Y-83600
X168154Y-76422
X168208Y-79799
X169435Y-83441
X169631Y-81849
X170600Y-107500
X170737Y-125637
X170800Y-103900
X171300Y-111900
X171782Y-88069
X172000Y-110100
X172125Y-75548
X172125Y-78492
X173155Y-114233
X175495Y-78305
X175600Y-117159
X175700Y-89900
X175814Y-86934
X177700Y-98300
X177800Y-94700
X178212Y-71885
X179200Y-92800
X181514Y-101294
X181600Y-107900
X183635Y-111646
X183953Y-110682
X184250Y-117819
X184883Y-106503
X184900Y-107400
X185279Y-124613
X185280Y-119690
X186195Y-123708
X189769Y-111647
X191518Y-125732
X191800Y-105100
X193500Y-96782
X196700Y-100700
X199009Y-125741
X199172Y-90750
X199339Y-113879
X201824Y-117517
X203359Y-113872
X205500Y-113792
T2
X194660Y-72490
X194660Y-74780
X194660Y-83920
X194660Y-86210
X197380Y-93500
X197380Y-108500
X199480Y-76820
X199480Y-78850
X199480Y-80880
X199480Y-82910
X199920Y-93500
X199920Y-108500
X201260Y-75800
X201260Y-77830
X201260Y-79860
X201260Y-81890
X202460Y-93500
X202460Y-108500
X205000Y-93500
X205000Y-108500
T3
X108600Y-90400
X108600Y-92940
X108600Y-95480
X108600Y-98020
X108600Y-102300
X108600Y-104840
X108600Y-107380
X108600Y-109920
X113750Y-99000
X116250Y-99000
X118750Y-99000
X121250Y-99000
X122220Y-70880
X123750Y-99000
X124760Y-70880
X126250Y-99000
X127300Y-70880
X128750Y-99000
X129840Y-70880
X131250Y-99000
X131300Y-119130
X132380Y-70880
X132520Y-105600
X132520Y-110100
X132520Y-114700
X133000Y-123000
X133000Y-125540
X133000Y-128080
X133750Y-99000
X133840Y-119130
X134920Y-70880
X135060Y-105600
X135060Y-110100
X135060Y-114700
X135180Y-80500
X135200Y-75600
X136250Y-99000
X136380Y-119130
X137460Y-70880
X137600Y-105600
X137600Y-110100
X137600Y-114700
X137720Y-80500
X137740Y-75600
X138750Y-99000
X138750Y-123000
X138750Y-125540
X138750Y-128080
X138920Y-119130
X140000Y-70880
X140260Y-80500
X140280Y-75600
X141250Y-99000
X141460Y-119130
X142540Y-70880
X142800Y-80500
X142820Y-75600
X143750Y-99000
X144000Y-119130
X144500Y-123000
X144500Y-125540
X144500Y-128080
X145080Y-70880
X146250Y-99000
X146540Y-119130
X148750Y-99000
X149080Y-119130
X149150Y-70860
X151250Y-99000
X151690Y-70860
X153750Y-99000
X154170Y-119150
X154230Y-70860
X156250Y-99000
X156710Y-119150
X156770Y-70860
X158750Y-99000
X159250Y-119150
X159310Y-70860
X161250Y-99000
X161790Y-119150
X161850Y-70860
X164330Y-119150
X164390Y-70860
X166870Y-119150
X166930Y-70860
X167000Y-91190
X167000Y-93730
X167000Y-96270
X169410Y-119150
X169540Y-91190
X169540Y-93730
X169540Y-96270
X171950Y-119150
X171960Y-70840
X174000Y-124210
X174000Y-126750
X174500Y-70840
X177040Y-70840
X179580Y-70840
X179600Y-112300
X179600Y-114840
X179600Y-117380
X179600Y-119920
X179600Y-122460
X179600Y-125000
X182120Y-70840
X184660Y-70840
X187200Y-70840
X189740Y-70840
T4
X200370Y-71220
X200370Y-87480
X203800Y-71980
X203800Y-85700
T0
M30
